<mxfile host="app.diagrams.net" modified="2022-03-22T18:49:17.387Z" agent="5.0 (X11; Linux x86_64) AppleWebKit/537.36 (KHTML, like Gecko) Chrome/99.0.4844.83 Safari/537.36" etag="88vKaeRRfF_lwVFQ615A" version="17.1.4" type="github">
  <diagram id="Cc6mNrxVDYVhLV706rjN" name="Page-1">
    <mxGraphModel dx="4857" dy="825" grid="0" gridSize="10" guides="1" tooltips="1" connect="1" arrows="1" fold="1" page="0" pageScale="1" pageWidth="827" pageHeight="1169" background="#FFFFFF" math="0" shadow="1">
      <root>
        <mxCell id="0" />
        <mxCell id="1" style="" parent="0" />
        <mxCell id="8QP3yCqJlQul3fB2jxtT-12" value="" style="edgeStyle=orthogonalEdgeStyle;rounded=0;orthogonalLoop=1;jettySize=auto;html=1;fontFamily=Helvetica;fontSize=12;fontColor=default;" parent="1" target="8QP3yCqJlQul3fB2jxtT-11" edge="1">
          <mxGeometry relative="1" as="geometry">
            <mxPoint x="380" y="90" as="sourcePoint" />
          </mxGeometry>
        </mxCell>
        <mxCell id="8QP3yCqJlQul3fB2jxtT-16" style="edgeStyle=orthogonalEdgeStyle;rounded=0;orthogonalLoop=1;jettySize=auto;html=1;exitX=0.5;exitY=1;exitDx=0;exitDy=0;fontFamily=Helvetica;fontSize=12;fontColor=default;" parent="1" source="8QP3yCqJlQul3fB2jxtT-11" target="8QP3yCqJlQul3fB2jxtT-14" edge="1">
          <mxGeometry relative="1" as="geometry" />
        </mxCell>
        <mxCell id="8QP3yCqJlQul3fB2jxtT-11" value="&lt;span style=&quot;&quot;&gt;Read name from input and&lt;/span&gt;&lt;br style=&quot;&quot;&gt;&lt;span style=&quot;&quot;&gt;print(&#39;Enter your name: &amp;gt; {name}&#39;)&lt;/span&gt;&lt;br style=&quot;&quot;&gt;&lt;span style=&quot;&quot;&gt;on same line&lt;/span&gt;&lt;br&gt;" style="shape=parallelogram;html=1;strokeWidth=2;perimeter=parallelogramPerimeter;whiteSpace=wrap;rounded=1;arcSize=12;size=0.23;labelBackgroundColor=none;labelBorderColor=none;comic=0;fontFamily=Helvetica;fontSize=12;fillColor=#dae8fc;strokeColor=#6c8ebf;fontStyle=1" parent="1" vertex="1">
          <mxGeometry x="235" y="140" width="290" height="90" as="geometry" />
        </mxCell>
        <mxCell id="kU6Kl2C4q1-UE2_zCOD4-17" value="" style="edgeStyle=orthogonalEdgeStyle;shape=connector;rounded=0;sketch=0;orthogonalLoop=1;jettySize=auto;html=1;shadow=1;labelBackgroundColor=default;labelBorderColor=default;fontFamily=Helvetica;fontSize=14;fontColor=default;endArrow=classic;strokeColor=default;strokeWidth=2;fillColor=default;gradientColor=none;" parent="1" source="8QP3yCqJlQul3fB2jxtT-14" target="8QP3yCqJlQul3fB2jxtT-17" edge="1">
          <mxGeometry relative="1" as="geometry" />
        </mxCell>
        <mxCell id="8QP3yCqJlQul3fB2jxtT-14" value="&lt;span data-lucid-type=&quot;application/vnd.lucid.text&quot; data-lucid-content=&quot;{&amp;#34;t&amp;#34;:&amp;#34;set input to name var&amp;#34;,&amp;#34;m&amp;#34;:[{&amp;#34;s&amp;#34;:0,&amp;#34;n&amp;#34;:&amp;#34;a&amp;#34;,&amp;#34;v&amp;#34;:&amp;#34;center&amp;#34;},{&amp;#34;s&amp;#34;:0,&amp;#34;n&amp;#34;:&amp;#34;f&amp;#34;,&amp;#34;v&amp;#34;:&amp;#34;Orbitron&amp;#34;,&amp;#34;e&amp;#34;:21},{&amp;#34;s&amp;#34;:0,&amp;#34;n&amp;#34;:&amp;#34;fc&amp;#34;,&amp;#34;v&amp;#34;:&amp;#34;Bold&amp;#34;,&amp;#34;e&amp;#34;:21},{&amp;#34;s&amp;#34;:0,&amp;#34;n&amp;#34;:&amp;#34;fid&amp;#34;,&amp;#34;v&amp;#34;:1706,&amp;#34;e&amp;#34;:21},{&amp;#34;s&amp;#34;:0,&amp;#34;n&amp;#34;:&amp;#34;b&amp;#34;,&amp;#34;v&amp;#34;:true,&amp;#34;e&amp;#34;:21},{&amp;#34;s&amp;#34;:0,&amp;#34;n&amp;#34;:&amp;#34;s&amp;#34;,&amp;#34;v&amp;#34;:22.222222222222218,&amp;#34;e&amp;#34;:21},{&amp;#34;s&amp;#34;:0,&amp;#34;n&amp;#34;:&amp;#34;c&amp;#34;,&amp;#34;v&amp;#34;:&amp;#34;3a414aff&amp;#34;,&amp;#34;e&amp;#34;:21}]}&quot;&gt;&lt;span style=&quot;font-weight: bold ; font-size: 16.6667px ; color: rgb(58 , 65 , 74)&quot;&gt;set input to name var&lt;/span&gt;&lt;/span&gt;" style="rounded=1;whiteSpace=wrap;html=1;absoluteArcSize=1;arcSize=14;strokeWidth=2;labelBackgroundColor=none;labelBorderColor=none;comic=0;fontFamily=Helvetica;fontSize=12;fillColor=#dae8fc;strokeColor=#6c8ebf;" parent="1" vertex="1">
          <mxGeometry x="290" y="270" width="180" height="50" as="geometry" />
        </mxCell>
        <mxCell id="kU6Kl2C4q1-UE2_zCOD4-27" value="" style="edgeStyle=orthogonalEdgeStyle;shape=connector;rounded=0;sketch=0;orthogonalLoop=1;jettySize=auto;html=1;shadow=1;labelBackgroundColor=default;labelBorderColor=default;fontFamily=Helvetica;fontSize=14;fontColor=default;endArrow=classic;strokeColor=default;strokeWidth=2;fillColor=default;gradientColor=none;" parent="1" source="8QP3yCqJlQul3fB2jxtT-17" target="kU6Kl2C4q1-UE2_zCOD4-26" edge="1">
          <mxGeometry relative="1" as="geometry" />
        </mxCell>
        <mxCell id="8QP3yCqJlQul3fB2jxtT-17" value="&lt;span data-lucid-type=&quot;application/vnd.lucid.text&quot; data-lucid-content=&quot;{&amp;#34;t&amp;#34;:&amp;#34;print(&#39;Hello {name}&#39;)&amp;#34;,&amp;#34;m&amp;#34;:[{&amp;#34;s&amp;#34;:0,&amp;#34;n&amp;#34;:&amp;#34;a&amp;#34;,&amp;#34;v&amp;#34;:&amp;#34;center&amp;#34;},{&amp;#34;s&amp;#34;:0,&amp;#34;n&amp;#34;:&amp;#34;f&amp;#34;,&amp;#34;v&amp;#34;:&amp;#34;Orbitron&amp;#34;,&amp;#34;e&amp;#34;:21},{&amp;#34;s&amp;#34;:0,&amp;#34;n&amp;#34;:&amp;#34;fc&amp;#34;,&amp;#34;v&amp;#34;:&amp;#34;Bold&amp;#34;,&amp;#34;e&amp;#34;:21},{&amp;#34;s&amp;#34;:0,&amp;#34;n&amp;#34;:&amp;#34;fid&amp;#34;,&amp;#34;v&amp;#34;:1706,&amp;#34;e&amp;#34;:21},{&amp;#34;s&amp;#34;:0,&amp;#34;n&amp;#34;:&amp;#34;b&amp;#34;,&amp;#34;v&amp;#34;:true,&amp;#34;e&amp;#34;:21},{&amp;#34;s&amp;#34;:0,&amp;#34;n&amp;#34;:&amp;#34;s&amp;#34;,&amp;#34;v&amp;#34;:22.222222222222218,&amp;#34;e&amp;#34;:21},{&amp;#34;s&amp;#34;:0,&amp;#34;n&amp;#34;:&amp;#34;c&amp;#34;,&amp;#34;v&amp;#34;:&amp;#34;3a414aff&amp;#34;,&amp;#34;e&amp;#34;:21}]}&quot;&gt;&lt;span style=&quot;font-weight: bold ; font-size: 16.6667px ; color: rgb(58 , 65 , 74)&quot;&gt;print(&#39;Hello {name}&#39;)&lt;/span&gt;&lt;/span&gt;" style="shape=parallelogram;html=1;strokeWidth=2;perimeter=parallelogramPerimeter;whiteSpace=wrap;rounded=1;arcSize=12;size=0.23;labelBackgroundColor=none;labelBorderColor=none;comic=0;fontFamily=Helvetica;fontSize=12;fillColor=#dae8fc;strokeColor=#6c8ebf;" parent="1" vertex="1">
          <mxGeometry x="260" y="360" width="240" height="50" as="geometry" />
        </mxCell>
        <mxCell id="nzFtdgMQ5nwZeQu9WLnp-3" value="" style="edgeStyle=elbowEdgeStyle;shape=connector;rounded=0;sketch=0;orthogonalLoop=1;jettySize=auto;html=1;shadow=1;labelBackgroundColor=default;labelBorderColor=default;fontFamily=Helvetica;fontSize=14;fontColor=default;endArrow=classic;strokeColor=default;strokeWidth=2;fillColor=default;gradientColor=none;" edge="1" parent="1" source="8QP3yCqJlQul3fB2jxtT-23" target="nzFtdgMQ5nwZeQu9WLnp-1">
          <mxGeometry relative="1" as="geometry" />
        </mxCell>
        <mxCell id="8QP3yCqJlQul3fB2jxtT-23" value="&lt;span data-lucid-type=&quot;application/vnd.lucid.text&quot; data-lucid-content=&quot;{&amp;#34;t&amp;#34;:&amp;#34;Read input&amp;#34;,&amp;#34;m&amp;#34;:[{&amp;#34;s&amp;#34;:0,&amp;#34;n&amp;#34;:&amp;#34;a&amp;#34;,&amp;#34;v&amp;#34;:&amp;#34;center&amp;#34;},{&amp;#34;s&amp;#34;:0,&amp;#34;n&amp;#34;:&amp;#34;b&amp;#34;,&amp;#34;v&amp;#34;:true,&amp;#34;e&amp;#34;:10},{&amp;#34;s&amp;#34;:0,&amp;#34;n&amp;#34;:&amp;#34;c&amp;#34;,&amp;#34;v&amp;#34;:&amp;#34;3a414aff&amp;#34;,&amp;#34;e&amp;#34;:10},{&amp;#34;s&amp;#34;:0,&amp;#34;n&amp;#34;:&amp;#34;f&amp;#34;,&amp;#34;v&amp;#34;:&amp;#34;Orbitron&amp;#34;,&amp;#34;e&amp;#34;:10},{&amp;#34;s&amp;#34;:0,&amp;#34;n&amp;#34;:&amp;#34;fc&amp;#34;,&amp;#34;v&amp;#34;:&amp;#34;Bold&amp;#34;,&amp;#34;e&amp;#34;:10},{&amp;#34;s&amp;#34;:0,&amp;#34;n&amp;#34;:&amp;#34;fid&amp;#34;,&amp;#34;v&amp;#34;:1706,&amp;#34;e&amp;#34;:10},{&amp;#34;s&amp;#34;:0,&amp;#34;n&amp;#34;:&amp;#34;s&amp;#34;,&amp;#34;v&amp;#34;:22.222222222222218,&amp;#34;e&amp;#34;:10}]}&quot;&gt;&lt;span style=&quot;font-weight: bold ; color: rgb(58 , 65 , 74) ; font-size: 16.6667px&quot;&gt;Read input&lt;/span&gt;&lt;/span&gt;" style="shape=parallelogram;html=1;strokeWidth=2;perimeter=parallelogramPerimeter;whiteSpace=wrap;rounded=1;arcSize=12;size=0.23;labelBackgroundColor=none;labelBorderColor=none;comic=0;fontFamily=Helvetica;fontSize=12;fillColor=#dae8fc;strokeColor=#6c8ebf;" parent="1" vertex="1">
          <mxGeometry x="-153" y="277.5" width="240" height="50" as="geometry" />
        </mxCell>
        <mxCell id="kU6Kl2C4q1-UE2_zCOD4-31" value="" style="edgeStyle=orthogonalEdgeStyle;shape=connector;rounded=0;sketch=0;orthogonalLoop=1;jettySize=auto;html=1;shadow=1;labelBackgroundColor=default;labelBorderColor=default;fontFamily=Helvetica;fontSize=14;fontColor=default;endArrow=classic;strokeColor=default;strokeWidth=2;fillColor=default;gradientColor=none;" parent="1" source="In0JP3tiPYyU7r_qCaVs-1" target="In0JP3tiPYyU7r_qCaVs-26" edge="1">
          <mxGeometry relative="1" as="geometry" />
        </mxCell>
        <mxCell id="In0JP3tiPYyU7r_qCaVs-1" value="&lt;span data-lucid-type=&quot;application/vnd.lucid.text&quot; data-lucid-content=&quot;{&amp;#34;t&amp;#34;:&amp;#34;set input as user_action var&amp;#34;,&amp;#34;m&amp;#34;:[{&amp;#34;s&amp;#34;:0,&amp;#34;n&amp;#34;:&amp;#34;a&amp;#34;,&amp;#34;v&amp;#34;:&amp;#34;center&amp;#34;},{&amp;#34;s&amp;#34;:0,&amp;#34;n&amp;#34;:&amp;#34;b&amp;#34;,&amp;#34;v&amp;#34;:true,&amp;#34;e&amp;#34;:28},{&amp;#34;s&amp;#34;:0,&amp;#34;n&amp;#34;:&amp;#34;c&amp;#34;,&amp;#34;v&amp;#34;:&amp;#34;3a414aff&amp;#34;,&amp;#34;e&amp;#34;:28},{&amp;#34;s&amp;#34;:0,&amp;#34;n&amp;#34;:&amp;#34;f&amp;#34;,&amp;#34;v&amp;#34;:&amp;#34;Orbitron&amp;#34;,&amp;#34;e&amp;#34;:28},{&amp;#34;s&amp;#34;:0,&amp;#34;n&amp;#34;:&amp;#34;fc&amp;#34;,&amp;#34;v&amp;#34;:&amp;#34;Bold&amp;#34;,&amp;#34;e&amp;#34;:28},{&amp;#34;s&amp;#34;:0,&amp;#34;n&amp;#34;:&amp;#34;fid&amp;#34;,&amp;#34;v&amp;#34;:1706,&amp;#34;e&amp;#34;:28},{&amp;#34;s&amp;#34;:0,&amp;#34;n&amp;#34;:&amp;#34;s&amp;#34;,&amp;#34;v&amp;#34;:22.222222222222218,&amp;#34;e&amp;#34;:28}]}&quot;&gt;&lt;span style=&quot;font-weight: bold ; color: rgb(58 , 65 , 74) ; font-size: 16.6667px&quot;&gt;set input as user_action var&lt;/span&gt;&lt;/span&gt;" style="rounded=1;whiteSpace=wrap;html=1;absoluteArcSize=1;arcSize=14;strokeWidth=2;fillColor=#dae8fc;strokeColor=#6c8ebf;" parent="1" vertex="1">
          <mxGeometry x="-124.25" y="779" width="176" height="60" as="geometry" />
        </mxCell>
        <mxCell id="kU6Kl2C4q1-UE2_zCOD4-13" value="" style="edgeStyle=orthogonalEdgeStyle;shape=connector;rounded=0;sketch=0;orthogonalLoop=1;jettySize=auto;html=1;shadow=1;labelBackgroundColor=default;labelBorderColor=default;fontFamily=Helvetica;fontSize=14;fontColor=default;endArrow=classic;strokeColor=default;strokeWidth=2;fillColor=default;gradientColor=none;" parent="1" source="In0JP3tiPYyU7r_qCaVs-5" target="In0JP3tiPYyU7r_qCaVs-45" edge="1">
          <mxGeometry relative="1" as="geometry" />
        </mxCell>
        <mxCell id="In0JP3tiPYyU7r_qCaVs-5" value="&lt;span data-lucid-type=&quot;application/vnd.lucid.text&quot; data-lucid-content=&quot;{&amp;#34;t&amp;#34;:&amp;#34;crate computer_action var &amp;amp; set random.action to it&amp;#34;,&amp;#34;m&amp;#34;:[{&amp;#34;s&amp;#34;:0,&amp;#34;n&amp;#34;:&amp;#34;a&amp;#34;,&amp;#34;v&amp;#34;:&amp;#34;center&amp;#34;},{&amp;#34;s&amp;#34;:0,&amp;#34;n&amp;#34;:&amp;#34;p&amp;#34;,&amp;#34;v&amp;#34;:1.2},{&amp;#34;s&amp;#34;:0,&amp;#34;n&amp;#34;:&amp;#34;b&amp;#34;,&amp;#34;v&amp;#34;:true,&amp;#34;e&amp;#34;:51},{&amp;#34;s&amp;#34;:0,&amp;#34;n&amp;#34;:&amp;#34;c&amp;#34;,&amp;#34;v&amp;#34;:&amp;#34;3a414aff&amp;#34;,&amp;#34;e&amp;#34;:51},{&amp;#34;s&amp;#34;:0,&amp;#34;n&amp;#34;:&amp;#34;f&amp;#34;,&amp;#34;v&amp;#34;:&amp;#34;Orbitron&amp;#34;,&amp;#34;e&amp;#34;:51},{&amp;#34;s&amp;#34;:0,&amp;#34;n&amp;#34;:&amp;#34;fc&amp;#34;,&amp;#34;v&amp;#34;:&amp;#34;Bold&amp;#34;,&amp;#34;e&amp;#34;:51},{&amp;#34;s&amp;#34;:0,&amp;#34;n&amp;#34;:&amp;#34;fid&amp;#34;,&amp;#34;v&amp;#34;:1706,&amp;#34;e&amp;#34;:51},{&amp;#34;s&amp;#34;:0,&amp;#34;n&amp;#34;:&amp;#34;s&amp;#34;,&amp;#34;v&amp;#34;:22.222222222222218,&amp;#34;e&amp;#34;:51},{&amp;#34;s&amp;#34;:32,&amp;#34;n&amp;#34;:&amp;#34;lk&amp;#34;,&amp;#34;v&amp;#34;:[{&amp;#34;tp&amp;#34;:&amp;#34;ext&amp;#34;,&amp;#34;url&amp;#34;:&amp;#34;http://random.action&amp;#34;}],&amp;#34;e&amp;#34;:45}]}&quot;&gt;&lt;span style=&quot;font-weight: bold ; color: rgb(58 , 65 , 74) ; font-size: 16.6667px&quot;&gt;crate computer_action var &amp;amp; set &lt;/span&gt;&lt;span style=&quot;font-weight: bold ; color: rgb(58 , 65 , 74) ; font-size: 16.6667px&quot;&gt;random.action&lt;/span&gt;&lt;span style=&quot;font-weight: bold ; color: rgb(58 , 65 , 74) ; font-size: 16.6667px&quot;&gt; to it&lt;/span&gt;&lt;/span&gt;" style="rounded=1;whiteSpace=wrap;html=1;absoluteArcSize=1;arcSize=14;strokeWidth=2;fillColor=#dae8fc;strokeColor=#6c8ebf;" parent="1" vertex="1">
          <mxGeometry x="-1090" y="639" width="220" height="90" as="geometry" />
        </mxCell>
        <mxCell id="In0JP3tiPYyU7r_qCaVs-8" value="&lt;span data-lucid-type=&quot;application/vnd.lucid.text&quot; data-lucid-content=&quot;{&amp;#34;t&amp;#34;:&amp;#34;STOP&amp;#34;,&amp;#34;m&amp;#34;:[{&amp;#34;s&amp;#34;:0,&amp;#34;n&amp;#34;:&amp;#34;b&amp;#34;,&amp;#34;v&amp;#34;:true,&amp;#34;e&amp;#34;:4},{&amp;#34;s&amp;#34;:0,&amp;#34;n&amp;#34;:&amp;#34;c&amp;#34;,&amp;#34;v&amp;#34;:&amp;#34;3a414aff&amp;#34;,&amp;#34;e&amp;#34;:4},{&amp;#34;s&amp;#34;:0,&amp;#34;n&amp;#34;:&amp;#34;f&amp;#34;,&amp;#34;v&amp;#34;:&amp;#34;Orbitron&amp;#34;,&amp;#34;e&amp;#34;:4},{&amp;#34;s&amp;#34;:0,&amp;#34;n&amp;#34;:&amp;#34;fc&amp;#34;,&amp;#34;v&amp;#34;:&amp;#34;Bold&amp;#34;,&amp;#34;e&amp;#34;:4},{&amp;#34;s&amp;#34;:0,&amp;#34;n&amp;#34;:&amp;#34;fid&amp;#34;,&amp;#34;v&amp;#34;:1706,&amp;#34;e&amp;#34;:4},{&amp;#34;s&amp;#34;:0,&amp;#34;n&amp;#34;:&amp;#34;s&amp;#34;,&amp;#34;v&amp;#34;:22.222222222222218,&amp;#34;e&amp;#34;:4}]}&quot;&gt;&lt;span style=&quot;font-weight: bold ; color: #3a414a ; font-size: 16.666666666666664px&quot;&gt;STOP&lt;/span&gt;&lt;/span&gt;" style="strokeWidth=4;html=1;shape=mxgraph.flowchart.terminator;whiteSpace=wrap;fillColor=#e51400;fontColor=#ffffff;strokeColor=none;gradientColor=none;shadow=1;sketch=0;" parent="1" vertex="1">
          <mxGeometry x="330" y="772" width="100" height="50" as="geometry" />
        </mxCell>
        <mxCell id="In0JP3tiPYyU7r_qCaVs-9" value="&lt;span data-lucid-type=&quot;application/vnd.lucid.text&quot; data-lucid-content=&quot;{&amp;#34;t&amp;#34;:&amp;#34;STOP&amp;#34;,&amp;#34;m&amp;#34;:[{&amp;#34;s&amp;#34;:0,&amp;#34;n&amp;#34;:&amp;#34;b&amp;#34;,&amp;#34;v&amp;#34;:true,&amp;#34;e&amp;#34;:4},{&amp;#34;s&amp;#34;:0,&amp;#34;n&amp;#34;:&amp;#34;c&amp;#34;,&amp;#34;v&amp;#34;:&amp;#34;3a414aff&amp;#34;,&amp;#34;e&amp;#34;:4},{&amp;#34;s&amp;#34;:0,&amp;#34;n&amp;#34;:&amp;#34;f&amp;#34;,&amp;#34;v&amp;#34;:&amp;#34;Orbitron&amp;#34;,&amp;#34;e&amp;#34;:4},{&amp;#34;s&amp;#34;:0,&amp;#34;n&amp;#34;:&amp;#34;fc&amp;#34;,&amp;#34;v&amp;#34;:&amp;#34;Bold&amp;#34;,&amp;#34;e&amp;#34;:4},{&amp;#34;s&amp;#34;:0,&amp;#34;n&amp;#34;:&amp;#34;fid&amp;#34;,&amp;#34;v&amp;#34;:1706,&amp;#34;e&amp;#34;:4},{&amp;#34;s&amp;#34;:0,&amp;#34;n&amp;#34;:&amp;#34;s&amp;#34;,&amp;#34;v&amp;#34;:22.222222222222218,&amp;#34;e&amp;#34;:4}]}&quot;&gt;&lt;span style=&quot;font-weight: bold ; color: #3a414a ; font-size: 16.666666666666664px&quot;&gt;START&lt;br&gt;&lt;/span&gt;&lt;/span&gt;" style="strokeWidth=4;html=1;shape=mxgraph.flowchart.terminator;whiteSpace=wrap;fillColor=#60a917;fontColor=#ffffff;strokeColor=none;shadow=1;sketch=0;" parent="1" vertex="1">
          <mxGeometry x="330" y="40" width="100" height="50" as="geometry" />
        </mxCell>
        <mxCell id="kU6Kl2C4q1-UE2_zCOD4-29" value="" style="edgeStyle=orthogonalEdgeStyle;shape=connector;rounded=0;sketch=0;orthogonalLoop=1;jettySize=auto;html=1;shadow=1;labelBackgroundColor=default;labelBorderColor=default;fontFamily=Helvetica;fontSize=14;fontColor=default;endArrow=classic;strokeColor=default;strokeWidth=2;fillColor=default;gradientColor=none;" parent="1" source="In0JP3tiPYyU7r_qCaVs-25" target="8QP3yCqJlQul3fB2jxtT-23" edge="1">
          <mxGeometry relative="1" as="geometry" />
        </mxCell>
        <mxCell id="In0JP3tiPYyU7r_qCaVs-25" value="&lt;span data-lucid-type=&quot;application/vnd.lucid.text&quot; data-lucid-content=&quot;{&amp;#34;t&amp;#34;:&amp;#34;def check_user_action()&amp;#34;,&amp;#34;m&amp;#34;:[{&amp;#34;s&amp;#34;:0,&amp;#34;n&amp;#34;:&amp;#34;a&amp;#34;,&amp;#34;v&amp;#34;:&amp;#34;center&amp;#34;},{&amp;#34;s&amp;#34;:0,&amp;#34;n&amp;#34;:&amp;#34;b&amp;#34;,&amp;#34;v&amp;#34;:true,&amp;#34;e&amp;#34;:23},{&amp;#34;s&amp;#34;:0,&amp;#34;n&amp;#34;:&amp;#34;c&amp;#34;,&amp;#34;v&amp;#34;:&amp;#34;3a414aff&amp;#34;,&amp;#34;e&amp;#34;:23},{&amp;#34;s&amp;#34;:0,&amp;#34;n&amp;#34;:&amp;#34;f&amp;#34;,&amp;#34;v&amp;#34;:&amp;#34;Orbitron&amp;#34;,&amp;#34;e&amp;#34;:23},{&amp;#34;s&amp;#34;:0,&amp;#34;n&amp;#34;:&amp;#34;fc&amp;#34;,&amp;#34;v&amp;#34;:&amp;#34;Bold&amp;#34;,&amp;#34;e&amp;#34;:23},{&amp;#34;s&amp;#34;:0,&amp;#34;n&amp;#34;:&amp;#34;fid&amp;#34;,&amp;#34;v&amp;#34;:1706,&amp;#34;e&amp;#34;:23},{&amp;#34;s&amp;#34;:0,&amp;#34;n&amp;#34;:&amp;#34;s&amp;#34;,&amp;#34;v&amp;#34;:22.222222222222218,&amp;#34;e&amp;#34;:23}]}&quot;&gt;&lt;span style=&quot;font-weight: bold ; color: rgb(58 , 65 , 74) ; font-size: 16.6667px&quot;&gt;def&lt;br&gt;rpc_logic()&lt;/span&gt;&lt;/span&gt;" style="verticalLabelPosition=middle;verticalAlign=middle;html=1;shape=process;whiteSpace=wrap;rounded=1;size=0.14;arcSize=6;labelPosition=center;align=center;fillColor=#e1d5e7;strokeColor=#9673a6;" parent="1" vertex="1">
          <mxGeometry x="-119" y="140" width="172" height="90" as="geometry" />
        </mxCell>
        <mxCell id="In0JP3tiPYyU7r_qCaVs-29" value="Yes" style="edgeStyle=none;rounded=0;sketch=0;orthogonalLoop=1;jettySize=auto;html=1;shadow=1;labelBackgroundColor=default;labelBorderColor=default;fontFamily=Helvetica;fontSize=14;fontColor=default;endArrow=classic;strokeWidth=2;fillColor=default;gradientColor=none;fontStyle=1;spacing=0;" parent="1" source="In0JP3tiPYyU7r_qCaVs-26" target="In0JP3tiPYyU7r_qCaVs-28" edge="1">
          <mxGeometry relative="1" as="geometry" />
        </mxCell>
        <mxCell id="In0JP3tiPYyU7r_qCaVs-32" value="No" style="edgeStyle=orthogonalEdgeStyle;rounded=0;sketch=0;orthogonalLoop=1;jettySize=auto;html=1;shadow=1;labelBackgroundColor=default;labelBorderColor=default;fontFamily=Helvetica;fontSize=14;fontColor=default;endArrow=classic;strokeWidth=2;fillColor=default;gradientColor=none;elbow=vertical;fontStyle=1;entryX=1;entryY=0.5;entryDx=0;entryDy=0;entryPerimeter=0;" parent="1" source="In0JP3tiPYyU7r_qCaVs-26" target="kU6Kl2C4q1-UE2_zCOD4-3" edge="1">
          <mxGeometry relative="1" as="geometry">
            <mxPoint x="-310" y="950" as="targetPoint" />
          </mxGeometry>
        </mxCell>
        <mxCell id="In0JP3tiPYyU7r_qCaVs-26" value="&lt;span data-lucid-type=&quot;application/vnd.lucid.text&quot; data-lucid-content=&quot;{&amp;quot;t&amp;quot;:&amp;quot;if user_action == &#39;!exit&#39;&amp;quot;,&amp;quot;m&amp;quot;:[{&amp;quot;s&amp;quot;:0,&amp;quot;n&amp;quot;:&amp;quot;a&amp;quot;,&amp;quot;v&amp;quot;:&amp;quot;center&amp;quot;},{&amp;quot;s&amp;quot;:0,&amp;quot;n&amp;quot;:&amp;quot;f&amp;quot;,&amp;quot;v&amp;quot;:&amp;quot;Orbitron&amp;quot;,&amp;quot;e&amp;quot;:25},{&amp;quot;s&amp;quot;:0,&amp;quot;n&amp;quot;:&amp;quot;fc&amp;quot;,&amp;quot;v&amp;quot;:&amp;quot;Bold&amp;quot;,&amp;quot;e&amp;quot;:25},{&amp;quot;s&amp;quot;:0,&amp;quot;n&amp;quot;:&amp;quot;fid&amp;quot;,&amp;quot;v&amp;quot;:1706,&amp;quot;e&amp;quot;:25},{&amp;quot;s&amp;quot;:0,&amp;quot;n&amp;quot;:&amp;quot;b&amp;quot;,&amp;quot;v&amp;quot;:true,&amp;quot;e&amp;quot;:25},{&amp;quot;s&amp;quot;:0,&amp;quot;n&amp;quot;:&amp;quot;s&amp;quot;,&amp;quot;v&amp;quot;:22.222222222222218,&amp;quot;e&amp;quot;:25},{&amp;quot;s&amp;quot;:0,&amp;quot;n&amp;quot;:&amp;quot;c&amp;quot;,&amp;quot;v&amp;quot;:&amp;quot;3a414aff&amp;quot;,&amp;quot;e&amp;quot;:25}]}&quot;&gt;&lt;span style=&quot;font-weight: bold ; font-size: 16.6667px ; color: rgb(58 , 65 , 74)&quot;&gt;if user_action == &#39;!exit&#39;&lt;/span&gt;&lt;/span&gt;" style="strokeWidth=2;html=1;shape=mxgraph.flowchart.decision;shadow=1;sketch=0;fontFamily=Helvetica;fontSize=11;verticalAlign=middle;labelPosition=center;verticalLabelPosition=middle;align=center;labelBackgroundColor=none;labelBorderColor=none;whiteSpace=wrap;spacing=0;spacingTop=0;spacingLeft=24;spacingRight=24;spacingBottom=0;fillColor=#fad7ac;strokeColor=#b46504;" parent="1" vertex="1">
          <mxGeometry x="-103.25" y="883.5" width="134" height="120" as="geometry" />
        </mxCell>
        <mxCell id="kU6Kl2C4q1-UE2_zCOD4-4" style="edgeStyle=elbowEdgeStyle;shape=connector;rounded=0;sketch=0;orthogonalLoop=1;jettySize=auto;html=1;entryX=0;entryY=0.5;entryDx=0;entryDy=0;entryPerimeter=0;shadow=1;labelBackgroundColor=default;labelBorderColor=default;fontFamily=Helvetica;fontSize=14;fontColor=default;endArrow=classic;strokeColor=default;strokeWidth=2;fillColor=default;gradientColor=none;" parent="1" source="In0JP3tiPYyU7r_qCaVs-28" target="In0JP3tiPYyU7r_qCaVs-8" edge="1">
          <mxGeometry relative="1" as="geometry">
            <Array as="points">
              <mxPoint x="176" y="788" />
              <mxPoint x="252" y="820" />
              <mxPoint x="-33" y="996" />
            </Array>
          </mxGeometry>
        </mxCell>
        <mxCell id="In0JP3tiPYyU7r_qCaVs-28" value="&lt;span data-lucid-type=&quot;application/vnd.lucid.text&quot; data-lucid-content=&quot;{&amp;#34;t&amp;#34;:&amp;#34;print(&#39;Bye!&#39;)&amp;#34;,&amp;#34;m&amp;#34;:[{&amp;#34;s&amp;#34;:0,&amp;#34;n&amp;#34;:&amp;#34;a&amp;#34;,&amp;#34;v&amp;#34;:&amp;#34;center&amp;#34;},{&amp;#34;s&amp;#34;:0,&amp;#34;n&amp;#34;:&amp;#34;f&amp;#34;,&amp;#34;v&amp;#34;:&amp;#34;Orbitron&amp;#34;,&amp;#34;e&amp;#34;:13},{&amp;#34;s&amp;#34;:0,&amp;#34;n&amp;#34;:&amp;#34;fc&amp;#34;,&amp;#34;v&amp;#34;:&amp;#34;Bold&amp;#34;,&amp;#34;e&amp;#34;:13},{&amp;#34;s&amp;#34;:0,&amp;#34;n&amp;#34;:&amp;#34;fid&amp;#34;,&amp;#34;v&amp;#34;:1706,&amp;#34;e&amp;#34;:13},{&amp;#34;s&amp;#34;:0,&amp;#34;n&amp;#34;:&amp;#34;b&amp;#34;,&amp;#34;v&amp;#34;:true,&amp;#34;e&amp;#34;:13},{&amp;#34;s&amp;#34;:0,&amp;#34;n&amp;#34;:&amp;#34;s&amp;#34;,&amp;#34;v&amp;#34;:22.222222222222218,&amp;#34;e&amp;#34;:13},{&amp;#34;s&amp;#34;:0,&amp;#34;n&amp;#34;:&amp;#34;c&amp;#34;,&amp;#34;v&amp;#34;:&amp;#34;3a414aff&amp;#34;,&amp;#34;e&amp;#34;:13}]}&quot;&gt;&lt;span style=&quot;font-weight: bold ; font-size: 16.6667px ; color: rgb(58 , 65 , 74)&quot;&gt;print(&#39;Bye!&#39;)&lt;/span&gt;&lt;/span&gt;" style="shape=parallelogram;html=1;strokeWidth=2;perimeter=parallelogramPerimeter;whiteSpace=wrap;rounded=1;arcSize=12;size=0.23;labelBackgroundColor=none;labelBorderColor=none;comic=0;fontFamily=Helvetica;fontSize=12;fillColor=#dae8fc;strokeColor=#6c8ebf;shadow=1;sketch=0;fontColor=default;" parent="1" vertex="1">
          <mxGeometry x="-137.25" y="1096.5" width="202" height="50" as="geometry" />
        </mxCell>
        <mxCell id="kU6Kl2C4q1-UE2_zCOD4-33" style="edgeStyle=orthogonalEdgeStyle;shape=connector;rounded=0;sketch=0;orthogonalLoop=1;jettySize=auto;html=1;entryX=1;entryY=0.5;entryDx=0;entryDy=0;entryPerimeter=0;shadow=1;labelBackgroundColor=default;labelBorderColor=default;fontFamily=Helvetica;fontSize=14;fontColor=default;endArrow=classic;strokeColor=default;strokeWidth=2;fillColor=default;gradientColor=none;" parent="1" source="In0JP3tiPYyU7r_qCaVs-31" target="In0JP3tiPYyU7r_qCaVs-33" edge="1">
          <mxGeometry relative="1" as="geometry">
            <Array as="points">
              <mxPoint x="-650" y="451" />
            </Array>
          </mxGeometry>
        </mxCell>
        <mxCell id="In0JP3tiPYyU7r_qCaVs-31" value="&lt;span data-lucid-type=&quot;application/vnd.lucid.text&quot; data-lucid-content=&quot;{&amp;#34;t&amp;#34;:&amp;#34;crate var valid_actions and store valid user actions in it&amp;#34;,&amp;#34;m&amp;#34;:[{&amp;#34;s&amp;#34;:0,&amp;#34;n&amp;#34;:&amp;#34;a&amp;#34;,&amp;#34;v&amp;#34;:&amp;#34;center&amp;#34;},{&amp;#34;s&amp;#34;:0,&amp;#34;n&amp;#34;:&amp;#34;f&amp;#34;,&amp;#34;v&amp;#34;:&amp;#34;Orbitron&amp;#34;,&amp;#34;e&amp;#34;:58},{&amp;#34;s&amp;#34;:0,&amp;#34;n&amp;#34;:&amp;#34;fc&amp;#34;,&amp;#34;v&amp;#34;:&amp;#34;Bold&amp;#34;,&amp;#34;e&amp;#34;:58},{&amp;#34;s&amp;#34;:0,&amp;#34;n&amp;#34;:&amp;#34;fid&amp;#34;,&amp;#34;v&amp;#34;:1706,&amp;#34;e&amp;#34;:58},{&amp;#34;s&amp;#34;:0,&amp;#34;n&amp;#34;:&amp;#34;b&amp;#34;,&amp;#34;v&amp;#34;:true,&amp;#34;e&amp;#34;:58},{&amp;#34;s&amp;#34;:0,&amp;#34;n&amp;#34;:&amp;#34;s&amp;#34;,&amp;#34;v&amp;#34;:22.222222222222218,&amp;#34;e&amp;#34;:58},{&amp;#34;s&amp;#34;:0,&amp;#34;n&amp;#34;:&amp;#34;c&amp;#34;,&amp;#34;v&amp;#34;:&amp;#34;3a414aff&amp;#34;,&amp;#34;e&amp;#34;:58}]}&quot;&gt;&lt;span style=&quot;font-weight: bold ; font-size: 16.6667px ; color: rgb(58 , 65 , 74)&quot;&gt;crate var valid_actions and store valid user actions in it&lt;/span&gt;&lt;/span&gt;" style="rounded=1;whiteSpace=wrap;html=1;absoluteArcSize=1;arcSize=14;strokeWidth=2;fillColor=#dae8fc;strokeColor=#6c8ebf;shadow=1;labelBackgroundColor=none;labelBorderColor=none;sketch=0;fontFamily=Helvetica;fontSize=14;fontColor=default;" parent="1" vertex="1">
          <mxGeometry x="-779" y="676.75" width="258" height="88.5" as="geometry" />
        </mxCell>
        <mxCell id="In0JP3tiPYyU7r_qCaVs-36" value="Yes" style="edgeStyle=orthogonalEdgeStyle;rounded=0;sketch=0;orthogonalLoop=1;jettySize=auto;html=1;shadow=1;labelBackgroundColor=default;labelBorderColor=default;fontFamily=Helvetica;fontSize=14;fontColor=default;endArrow=classic;strokeWidth=2;fillColor=default;gradientColor=none;elbow=vertical;fontStyle=1" parent="1" source="In0JP3tiPYyU7r_qCaVs-33" edge="1" target="In0JP3tiPYyU7r_qCaVs-5">
          <mxGeometry relative="1" as="geometry">
            <mxPoint x="-1055" y="1093.5" as="targetPoint" />
          </mxGeometry>
        </mxCell>
        <mxCell id="In0JP3tiPYyU7r_qCaVs-39" style="rounded=0;sketch=0;orthogonalLoop=1;jettySize=auto;html=1;shadow=1;labelBackgroundColor=default;labelBorderColor=default;fontFamily=Helvetica;fontSize=14;fontColor=default;endArrow=classic;strokeWidth=2;fillColor=default;gradientColor=none;exitX=0;exitY=0.5;exitDx=0;exitDy=0;exitPerimeter=0;edgeStyle=elbowEdgeStyle;elbow=vertical;" parent="1" source="In0JP3tiPYyU7r_qCaVs-33" edge="1" target="In0JP3tiPYyU7r_qCaVs-38">
          <mxGeometry relative="1" as="geometry">
            <mxPoint x="-1056.5319148936169" y="448" as="sourcePoint" />
            <mxPoint x="-1055" y="300" as="targetPoint" />
            <Array as="points">
              <mxPoint x="-1124" y="451" />
              <mxPoint x="-1250" y="943" />
            </Array>
          </mxGeometry>
        </mxCell>
        <mxCell id="In0JP3tiPYyU7r_qCaVs-40" value="No" style="edgeLabel;html=1;align=center;verticalAlign=middle;resizable=0;points=[];fontSize=14;fontFamily=Helvetica;fontColor=default;fontStyle=1;labelBorderColor=default;" parent="In0JP3tiPYyU7r_qCaVs-39" vertex="1" connectable="0">
          <mxGeometry x="0.1593" y="1" relative="1" as="geometry">
            <mxPoint as="offset" />
          </mxGeometry>
        </mxCell>
        <mxCell id="In0JP3tiPYyU7r_qCaVs-33" value="&lt;span data-lucid-type=&quot;application/vnd.lucid.text&quot; data-lucid-content=&quot;{&amp;#34;t&amp;#34;:&amp;#34;elif user_action in valid_actions&amp;#34;,&amp;#34;m&amp;#34;:[{&amp;#34;s&amp;#34;:0,&amp;#34;n&amp;#34;:&amp;#34;a&amp;#34;,&amp;#34;v&amp;#34;:&amp;#34;center&amp;#34;},{&amp;#34;s&amp;#34;:0,&amp;#34;n&amp;#34;:&amp;#34;f&amp;#34;,&amp;#34;v&amp;#34;:&amp;#34;Orbitron&amp;#34;,&amp;#34;e&amp;#34;:33},{&amp;#34;s&amp;#34;:0,&amp;#34;n&amp;#34;:&amp;#34;fc&amp;#34;,&amp;#34;v&amp;#34;:&amp;#34;Bold&amp;#34;,&amp;#34;e&amp;#34;:33},{&amp;#34;s&amp;#34;:0,&amp;#34;n&amp;#34;:&amp;#34;fid&amp;#34;,&amp;#34;v&amp;#34;:1706,&amp;#34;e&amp;#34;:33},{&amp;#34;s&amp;#34;:0,&amp;#34;n&amp;#34;:&amp;#34;b&amp;#34;,&amp;#34;v&amp;#34;:true,&amp;#34;e&amp;#34;:33},{&amp;#34;s&amp;#34;:0,&amp;#34;n&amp;#34;:&amp;#34;s&amp;#34;,&amp;#34;v&amp;#34;:22.222222222222218,&amp;#34;e&amp;#34;:33},{&amp;#34;s&amp;#34;:0,&amp;#34;n&amp;#34;:&amp;#34;c&amp;#34;,&amp;#34;v&amp;#34;:&amp;#34;3a414aff&amp;#34;,&amp;#34;e&amp;#34;:33}]}&quot;&gt;&lt;span style=&quot;font-weight: bold ; font-size: 16.6667px ; color: rgb(58 , 65 , 74)&quot;&gt;elif user_action in valid_actions&lt;/span&gt;&lt;/span&gt;" style="strokeWidth=2;html=1;shape=mxgraph.flowchart.decision;shadow=1;sketch=0;fontFamily=Helvetica;fontSize=11;verticalAlign=middle;labelPosition=center;verticalLabelPosition=middle;align=center;labelBackgroundColor=none;labelBorderColor=none;whiteSpace=wrap;spacing=0;spacingTop=0;spacingLeft=24;spacingRight=24;spacingBottom=11;fillColor=#fad7ac;strokeColor=#b46504;" parent="1" vertex="1">
          <mxGeometry x="-1062" y="377" width="164" height="147" as="geometry" />
        </mxCell>
        <mxCell id="kU6Kl2C4q1-UE2_zCOD4-12" style="edgeStyle=orthogonalEdgeStyle;shape=connector;rounded=0;sketch=0;orthogonalLoop=1;jettySize=auto;html=1;entryX=0;entryY=0.5;entryDx=0;entryDy=0;entryPerimeter=0;shadow=1;labelBackgroundColor=default;labelBorderColor=default;fontFamily=Helvetica;fontSize=14;fontColor=default;endArrow=classic;strokeColor=default;strokeWidth=2;fillColor=default;gradientColor=none;" parent="1" source="In0JP3tiPYyU7r_qCaVs-38" target="In0JP3tiPYyU7r_qCaVs-9" edge="1">
          <mxGeometry relative="1" as="geometry">
            <Array as="points">
              <mxPoint x="-1246" y="65" />
            </Array>
          </mxGeometry>
        </mxCell>
        <mxCell id="In0JP3tiPYyU7r_qCaVs-38" value="&lt;span data-lucid-type=&quot;application/vnd.lucid.text&quot; data-lucid-content=&quot;{&amp;#34;t&amp;#34;:&amp;#34;print(&#39;Invalid input&#39;)&amp;#34;,&amp;#34;m&amp;#34;:[{&amp;#34;s&amp;#34;:0,&amp;#34;n&amp;#34;:&amp;#34;a&amp;#34;,&amp;#34;v&amp;#34;:&amp;#34;center&amp;#34;},{&amp;#34;s&amp;#34;:0,&amp;#34;n&amp;#34;:&amp;#34;f&amp;#34;,&amp;#34;v&amp;#34;:&amp;#34;Orbitron&amp;#34;,&amp;#34;e&amp;#34;:22},{&amp;#34;s&amp;#34;:0,&amp;#34;n&amp;#34;:&amp;#34;fc&amp;#34;,&amp;#34;v&amp;#34;:&amp;#34;Bold&amp;#34;,&amp;#34;e&amp;#34;:22},{&amp;#34;s&amp;#34;:0,&amp;#34;n&amp;#34;:&amp;#34;fid&amp;#34;,&amp;#34;v&amp;#34;:1706,&amp;#34;e&amp;#34;:22},{&amp;#34;s&amp;#34;:0,&amp;#34;n&amp;#34;:&amp;#34;b&amp;#34;,&amp;#34;v&amp;#34;:true,&amp;#34;e&amp;#34;:22},{&amp;#34;s&amp;#34;:0,&amp;#34;n&amp;#34;:&amp;#34;s&amp;#34;,&amp;#34;v&amp;#34;:22.222222222222218,&amp;#34;e&amp;#34;:22},{&amp;#34;s&amp;#34;:0,&amp;#34;n&amp;#34;:&amp;#34;c&amp;#34;,&amp;#34;v&amp;#34;:&amp;#34;3a414aff&amp;#34;,&amp;#34;e&amp;#34;:22}]}&quot;&gt;&lt;span style=&quot;font-weight: bold ; font-size: 16.6667px ; color: rgb(58 , 65 , 74)&quot;&gt;print(&#39;Invalid input&#39;)&lt;/span&gt;&lt;/span&gt;" style="shape=parallelogram;html=1;strokeWidth=2;perimeter=parallelogramPerimeter;whiteSpace=wrap;rounded=1;arcSize=12;size=0.23;labelBackgroundColor=none;labelBorderColor=none;comic=0;fontFamily=Helvetica;fontSize=12;fillColor=#dae8fc;strokeColor=#6c8ebf;shadow=1;sketch=0;fontColor=default;" parent="1" vertex="1">
          <mxGeometry x="-1370" y="249.75" width="240" height="50" as="geometry" />
        </mxCell>
        <mxCell id="In0JP3tiPYyU7r_qCaVs-57" style="edgeStyle=orthogonalEdgeStyle;rounded=0;sketch=0;orthogonalLoop=1;jettySize=auto;html=1;entryX=0.5;entryY=0;entryDx=0;entryDy=0;entryPerimeter=0;shadow=1;labelBackgroundColor=default;labelBorderColor=default;fontFamily=Helvetica;fontSize=14;fontColor=default;endArrow=classic;strokeWidth=2;fillColor=default;gradientColor=none;elbow=vertical;" parent="1" source="In0JP3tiPYyU7r_qCaVs-45" target="In0JP3tiPYyU7r_qCaVs-46" edge="1">
          <mxGeometry relative="1" as="geometry" />
        </mxCell>
        <mxCell id="In0JP3tiPYyU7r_qCaVs-45" value="&lt;span data-lucid-type=&quot;application/vnd.lucid.text&quot; data-lucid-content=&quot;{&amp;#34;t&amp;#34;:&amp;#34;read user_action and computer_action&amp;#34;,&amp;#34;m&amp;#34;:[{&amp;#34;s&amp;#34;:0,&amp;#34;n&amp;#34;:&amp;#34;a&amp;#34;,&amp;#34;v&amp;#34;:&amp;#34;center&amp;#34;},{&amp;#34;s&amp;#34;:0,&amp;#34;n&amp;#34;:&amp;#34;f&amp;#34;,&amp;#34;v&amp;#34;:&amp;#34;Orbitron&amp;#34;,&amp;#34;e&amp;#34;:36},{&amp;#34;s&amp;#34;:0,&amp;#34;n&amp;#34;:&amp;#34;fc&amp;#34;,&amp;#34;v&amp;#34;:&amp;#34;Bold&amp;#34;,&amp;#34;e&amp;#34;:36},{&amp;#34;s&amp;#34;:0,&amp;#34;n&amp;#34;:&amp;#34;fid&amp;#34;,&amp;#34;v&amp;#34;:1706,&amp;#34;e&amp;#34;:36},{&amp;#34;s&amp;#34;:0,&amp;#34;n&amp;#34;:&amp;#34;b&amp;#34;,&amp;#34;v&amp;#34;:true,&amp;#34;e&amp;#34;:36},{&amp;#34;s&amp;#34;:0,&amp;#34;n&amp;#34;:&amp;#34;s&amp;#34;,&amp;#34;v&amp;#34;:22.222222222222218,&amp;#34;e&amp;#34;:36},{&amp;#34;s&amp;#34;:0,&amp;#34;n&amp;#34;:&amp;#34;c&amp;#34;,&amp;#34;v&amp;#34;:&amp;#34;3a414aff&amp;#34;,&amp;#34;e&amp;#34;:36}]}&quot;&gt;&lt;span style=&quot;font-weight: bold ; font-size: 16.6667px ; color: rgb(58 , 65 , 74)&quot;&gt;read user_action and computer_action&lt;/span&gt;&lt;/span&gt;" style="rounded=1;whiteSpace=wrap;html=1;absoluteArcSize=1;arcSize=14;strokeWidth=2;fillColor=#dae8fc;strokeColor=#6c8ebf;shadow=1;labelBackgroundColor=none;labelBorderColor=none;sketch=0;fontFamily=Helvetica;fontSize=14;fontColor=default;" parent="1" vertex="1">
          <mxGeometry x="-1081.5" y="820" width="203" height="79" as="geometry" />
        </mxCell>
        <mxCell id="In0JP3tiPYyU7r_qCaVs-48" value="Yes" style="edgeStyle=orthogonalEdgeStyle;rounded=0;sketch=0;orthogonalLoop=1;jettySize=auto;html=1;shadow=1;labelBackgroundColor=default;labelBorderColor=default;fontFamily=Helvetica;fontSize=14;fontColor=default;endArrow=classic;strokeWidth=2;fillColor=default;gradientColor=none;elbow=vertical;fontStyle=1" parent="1" source="In0JP3tiPYyU7r_qCaVs-46" target="In0JP3tiPYyU7r_qCaVs-47" edge="1">
          <mxGeometry relative="1" as="geometry" />
        </mxCell>
        <mxCell id="kU6Kl2C4q1-UE2_zCOD4-14" value="No" style="edgeStyle=orthogonalEdgeStyle;shape=connector;rounded=0;sketch=0;orthogonalLoop=1;jettySize=auto;html=1;entryX=1;entryY=0.5;entryDx=0;entryDy=0;entryPerimeter=0;shadow=1;labelBackgroundColor=default;labelBorderColor=default;fontFamily=Helvetica;fontSize=14;fontColor=default;endArrow=classic;strokeColor=default;strokeWidth=2;fillColor=default;gradientColor=none;" parent="1" source="In0JP3tiPYyU7r_qCaVs-46" target="In0JP3tiPYyU7r_qCaVs-52" edge="1">
          <mxGeometry relative="1" as="geometry" />
        </mxCell>
        <mxCell id="In0JP3tiPYyU7r_qCaVs-46" value="&lt;span data-lucid-type=&quot;application/vnd.lucid.text&quot; data-lucid-content=&quot;{&amp;#34;t&amp;#34;:&amp;#34;if user_action == computer_action&amp;#34;,&amp;#34;m&amp;#34;:[{&amp;#34;s&amp;#34;:0,&amp;#34;n&amp;#34;:&amp;#34;a&amp;#34;,&amp;#34;v&amp;#34;:&amp;#34;center&amp;#34;},{&amp;#34;s&amp;#34;:0,&amp;#34;n&amp;#34;:&amp;#34;p&amp;#34;,&amp;#34;v&amp;#34;:1.2},{&amp;#34;s&amp;#34;:0,&amp;#34;n&amp;#34;:&amp;#34;f&amp;#34;,&amp;#34;v&amp;#34;:&amp;#34;Orbitron&amp;#34;,&amp;#34;e&amp;#34;:33},{&amp;#34;s&amp;#34;:0,&amp;#34;n&amp;#34;:&amp;#34;fc&amp;#34;,&amp;#34;v&amp;#34;:&amp;#34;Bold&amp;#34;,&amp;#34;e&amp;#34;:33},{&amp;#34;s&amp;#34;:0,&amp;#34;n&amp;#34;:&amp;#34;fid&amp;#34;,&amp;#34;v&amp;#34;:1706,&amp;#34;e&amp;#34;:33},{&amp;#34;s&amp;#34;:0,&amp;#34;n&amp;#34;:&amp;#34;b&amp;#34;,&amp;#34;v&amp;#34;:true,&amp;#34;e&amp;#34;:33},{&amp;#34;s&amp;#34;:0,&amp;#34;n&amp;#34;:&amp;#34;s&amp;#34;,&amp;#34;v&amp;#34;:22.222222222222218,&amp;#34;e&amp;#34;:33},{&amp;#34;s&amp;#34;:0,&amp;#34;n&amp;#34;:&amp;#34;c&amp;#34;,&amp;#34;v&amp;#34;:&amp;#34;3a414aff&amp;#34;,&amp;#34;e&amp;#34;:33}]}&quot;&gt;&lt;span style=&quot;font-weight: bold ; font-size: 16.6667px ; color: rgb(58 , 65 , 74)&quot;&gt;if &lt;br&gt;user_action == computer_action&lt;/span&gt;&lt;/span&gt;" style="strokeWidth=2;html=1;shape=mxgraph.flowchart.decision;shadow=1;sketch=0;fontFamily=Helvetica;fontSize=11;verticalAlign=middle;labelPosition=center;verticalLabelPosition=middle;align=center;labelBackgroundColor=none;labelBorderColor=none;whiteSpace=wrap;spacing=0;spacingTop=0;spacingLeft=24;spacingRight=24;spacingBottom=32;fillColor=#fad7ac;strokeColor=#b46504;" parent="1" vertex="1">
          <mxGeometry x="-1064" y="973" width="166" height="148" as="geometry" />
        </mxCell>
        <mxCell id="kU6Kl2C4q1-UE2_zCOD4-22" value="" style="edgeStyle=orthogonalEdgeStyle;shape=connector;rounded=0;sketch=0;orthogonalLoop=1;jettySize=auto;html=1;shadow=1;labelBackgroundColor=default;labelBorderColor=default;fontFamily=Helvetica;fontSize=14;fontColor=default;endArrow=classic;strokeColor=default;strokeWidth=2;fillColor=default;gradientColor=none;entryX=0.5;entryY=0;entryDx=0;entryDy=0;" parent="1" source="In0JP3tiPYyU7r_qCaVs-47" target="kU6Kl2C4q1-UE2_zCOD4-23" edge="1">
          <mxGeometry relative="1" as="geometry">
            <mxPoint x="-1048.5" y="1750.5" as="targetPoint" />
          </mxGeometry>
        </mxCell>
        <mxCell id="In0JP3tiPYyU7r_qCaVs-47" value="&lt;span data-lucid-type=&quot;application/vnd.lucid.text&quot; data-lucid-content=&quot;{&amp;#34;t&amp;#34;:&amp;#34;print(&#39;There is a draw &amp;lt;computer_action&amp;gt;&#39;)&amp;#34;,&amp;#34;m&amp;#34;:[{&amp;#34;s&amp;#34;:0,&amp;#34;n&amp;#34;:&amp;#34;p&amp;#34;,&amp;#34;v&amp;#34;:1.2},{&amp;#34;s&amp;#34;:0,&amp;#34;n&amp;#34;:&amp;#34;a&amp;#34;,&amp;#34;v&amp;#34;:&amp;#34;center&amp;#34;},{&amp;#34;s&amp;#34;:0,&amp;#34;n&amp;#34;:&amp;#34;f&amp;#34;,&amp;#34;v&amp;#34;:&amp;#34;Orbitron&amp;#34;,&amp;#34;e&amp;#34;:7},{&amp;#34;s&amp;#34;:0,&amp;#34;n&amp;#34;:&amp;#34;fc&amp;#34;,&amp;#34;v&amp;#34;:&amp;#34;Bold&amp;#34;,&amp;#34;e&amp;#34;:7},{&amp;#34;s&amp;#34;:0,&amp;#34;n&amp;#34;:&amp;#34;fid&amp;#34;,&amp;#34;v&amp;#34;:1706,&amp;#34;e&amp;#34;:7},{&amp;#34;s&amp;#34;:0,&amp;#34;n&amp;#34;:&amp;#34;b&amp;#34;,&amp;#34;v&amp;#34;:true,&amp;#34;e&amp;#34;:7},{&amp;#34;s&amp;#34;:0,&amp;#34;n&amp;#34;:&amp;#34;s&amp;#34;,&amp;#34;v&amp;#34;:22.222222222222218,&amp;#34;e&amp;#34;:7},{&amp;#34;s&amp;#34;:0,&amp;#34;n&amp;#34;:&amp;#34;c&amp;#34;,&amp;#34;v&amp;#34;:&amp;#34;3a414aff&amp;#34;,&amp;#34;e&amp;#34;:7},{&amp;#34;s&amp;#34;:7,&amp;#34;n&amp;#34;:&amp;#34;c&amp;#34;,&amp;#34;v&amp;#34;:&amp;#34;#3f1888ff&amp;#34;,&amp;#34;e&amp;#34;:42},{&amp;#34;s&amp;#34;:7,&amp;#34;n&amp;#34;:&amp;#34;s&amp;#34;,&amp;#34;v&amp;#34;:18.666666666666668,&amp;#34;e&amp;#34;:42},{&amp;#34;s&amp;#34;:7,&amp;#34;n&amp;#34;:&amp;#34;f&amp;#34;,&amp;#34;v&amp;#34;:&amp;#34;Liberation Mono&amp;#34;,&amp;#34;e&amp;#34;:42}]}&quot;&gt;&lt;span style=&quot;font-weight: bold ; font-size: 16.6667px ; color: rgb(58 , 65 , 74)&quot;&gt;print(&#39;&lt;/span&gt;&lt;span style=&quot;color: rgb(63 , 24 , 136) ; font-size: 14px&quot;&gt;There is a draw &amp;lt;computer_action&amp;gt;&#39;)&lt;/span&gt;&lt;/span&gt;" style="shape=parallelogram;html=1;strokeWidth=2;perimeter=parallelogramPerimeter;whiteSpace=wrap;rounded=1;arcSize=12;size=0.23;labelBackgroundColor=none;labelBorderColor=none;comic=0;fontFamily=Helvetica;fontSize=12;fillColor=#dae8fc;strokeColor=#6c8ebf;shadow=1;sketch=0;fontColor=default;" parent="1" vertex="1">
          <mxGeometry x="-1107.5" y="1203" width="253" height="59" as="geometry" />
        </mxCell>
        <mxCell id="In0JP3tiPYyU7r_qCaVs-61" style="edgeStyle=elbowEdgeStyle;rounded=0;sketch=0;orthogonalLoop=1;jettySize=auto;html=1;entryX=0;entryY=0.25;entryDx=0;entryDy=0;shadow=1;labelBackgroundColor=default;labelBorderColor=default;fontFamily=Helvetica;fontSize=14;fontColor=default;endArrow=classic;strokeWidth=2;fillColor=default;gradientColor=none;" parent="1" source="In0JP3tiPYyU7r_qCaVs-49" target="In0JP3tiPYyU7r_qCaVs-54" edge="1">
          <mxGeometry relative="1" as="geometry">
            <Array as="points">
              <mxPoint x="-2346" y="1272" />
              <mxPoint x="-2128" y="1355" />
              <mxPoint x="-2346" y="1226" />
            </Array>
          </mxGeometry>
        </mxCell>
        <mxCell id="In0JP3tiPYyU7r_qCaVs-63" value="Yes" style="edgeLabel;html=1;align=center;verticalAlign=middle;resizable=0;points=[];fontSize=14;fontFamily=Helvetica;fontColor=default;labelBorderColor=default;fontStyle=1" parent="In0JP3tiPYyU7r_qCaVs-61" vertex="1" connectable="0">
          <mxGeometry x="-0.6761" y="-3" relative="1" as="geometry">
            <mxPoint as="offset" />
          </mxGeometry>
        </mxCell>
        <mxCell id="In0JP3tiPYyU7r_qCaVs-69" style="edgeStyle=elbowEdgeStyle;rounded=0;sketch=0;orthogonalLoop=1;jettySize=auto;html=1;entryX=0;entryY=0.5;entryDx=0;entryDy=0;shadow=1;labelBackgroundColor=default;labelBorderColor=default;fontFamily=Helvetica;fontSize=14;fontColor=default;endArrow=classic;strokeWidth=2;fillColor=default;gradientColor=none;" parent="1" source="In0JP3tiPYyU7r_qCaVs-49" target="In0JP3tiPYyU7r_qCaVs-64" edge="1">
          <mxGeometry relative="1" as="geometry">
            <Array as="points">
              <mxPoint x="-2346" y="894" />
              <mxPoint x="-2349" y="894" />
            </Array>
          </mxGeometry>
        </mxCell>
        <mxCell id="In0JP3tiPYyU7r_qCaVs-70" value="No" style="edgeLabel;html=1;align=center;verticalAlign=middle;resizable=0;points=[];fontSize=14;fontFamily=Helvetica;fontColor=default;labelBorderColor=default;fontStyle=1" parent="In0JP3tiPYyU7r_qCaVs-69" vertex="1" connectable="0">
          <mxGeometry x="-0.6422" y="1" relative="1" as="geometry">
            <mxPoint as="offset" />
          </mxGeometry>
        </mxCell>
        <mxCell id="In0JP3tiPYyU7r_qCaVs-49" value="&lt;span data-lucid-type=&quot;application/vnd.lucid.text&quot; data-lucid-content=&quot;{&amp;#34;t&amp;#34;:&amp;#34;elif user_action =&#39;rock&#39; and computer_action = &#39;paper&#39;&amp;#34;,&amp;#34;m&amp;#34;:[{&amp;#34;s&amp;#34;:0,&amp;#34;n&amp;#34;:&amp;#34;a&amp;#34;,&amp;#34;v&amp;#34;:&amp;#34;center&amp;#34;},{&amp;#34;s&amp;#34;:0,&amp;#34;n&amp;#34;:&amp;#34;p&amp;#34;,&amp;#34;v&amp;#34;:1.2},{&amp;#34;s&amp;#34;:0,&amp;#34;n&amp;#34;:&amp;#34;f&amp;#34;,&amp;#34;v&amp;#34;:&amp;#34;Orbitron&amp;#34;,&amp;#34;e&amp;#34;:54},{&amp;#34;s&amp;#34;:0,&amp;#34;n&amp;#34;:&amp;#34;fc&amp;#34;,&amp;#34;v&amp;#34;:&amp;#34;Bold&amp;#34;,&amp;#34;e&amp;#34;:54},{&amp;#34;s&amp;#34;:0,&amp;#34;n&amp;#34;:&amp;#34;fid&amp;#34;,&amp;#34;v&amp;#34;:1706,&amp;#34;e&amp;#34;:54},{&amp;#34;s&amp;#34;:0,&amp;#34;n&amp;#34;:&amp;#34;b&amp;#34;,&amp;#34;v&amp;#34;:true,&amp;#34;e&amp;#34;:54},{&amp;#34;s&amp;#34;:0,&amp;#34;n&amp;#34;:&amp;#34;s&amp;#34;,&amp;#34;v&amp;#34;:22.222222222222218,&amp;#34;e&amp;#34;:54},{&amp;#34;s&amp;#34;:0,&amp;#34;n&amp;#34;:&amp;#34;c&amp;#34;,&amp;#34;v&amp;#34;:&amp;#34;3a414aff&amp;#34;,&amp;#34;e&amp;#34;:54}]}&quot;&gt;&lt;span style=&quot;font-weight: bold ; font-size: 16.6667px ; color: rgb(58 , 65 , 74)&quot;&gt;elif&lt;br&gt;user_action =&#39;rock&#39; and computer_action = &#39;paper&#39;&lt;/span&gt;&lt;/span&gt;" style="strokeWidth=2;html=1;shape=mxgraph.flowchart.decision;shadow=1;sketch=0;fontFamily=Helvetica;fontSize=11;verticalAlign=middle;labelPosition=center;verticalLabelPosition=middle;align=center;labelBackgroundColor=none;labelBorderColor=none;whiteSpace=wrap;spacing=0;spacingTop=0;spacingLeft=24;spacingRight=24;spacingBottom=10;fillColor=#fad7ac;strokeColor=#b46504;" parent="1" vertex="1">
          <mxGeometry x="-2456" y="964" width="219" height="174" as="geometry" />
        </mxCell>
        <mxCell id="In0JP3tiPYyU7r_qCaVs-55" style="edgeStyle=orthogonalEdgeStyle;rounded=0;sketch=0;orthogonalLoop=1;jettySize=auto;html=1;entryX=0.5;entryY=0;entryDx=0;entryDy=0;shadow=1;labelBackgroundColor=default;labelBorderColor=default;fontFamily=Helvetica;fontSize=14;fontColor=default;endArrow=classic;strokeWidth=2;fillColor=default;gradientColor=none;elbow=vertical;" parent="1" source="In0JP3tiPYyU7r_qCaVs-51" target="In0JP3tiPYyU7r_qCaVs-54" edge="1">
          <mxGeometry relative="1" as="geometry" />
        </mxCell>
        <mxCell id="In0JP3tiPYyU7r_qCaVs-56" value="Yes" style="edgeLabel;html=1;align=center;verticalAlign=middle;resizable=0;points=[];fontSize=14;fontFamily=Helvetica;fontColor=default;labelBorderColor=default;fontStyle=1" parent="In0JP3tiPYyU7r_qCaVs-55" vertex="1" connectable="0">
          <mxGeometry x="-0.162" y="-1" relative="1" as="geometry">
            <mxPoint as="offset" />
          </mxGeometry>
        </mxCell>
        <mxCell id="In0JP3tiPYyU7r_qCaVs-65" value="No" style="edgeStyle=elbowEdgeStyle;rounded=0;sketch=0;orthogonalLoop=1;jettySize=auto;html=1;entryX=0.5;entryY=1;entryDx=0;entryDy=0;shadow=1;labelBackgroundColor=default;labelBorderColor=default;fontFamily=Helvetica;fontSize=14;fontColor=default;endArrow=classic;strokeWidth=2;fillColor=default;gradientColor=none;fontStyle=1" parent="1" source="In0JP3tiPYyU7r_qCaVs-51" target="In0JP3tiPYyU7r_qCaVs-64" edge="1">
          <mxGeometry relative="1" as="geometry" />
        </mxCell>
        <mxCell id="In0JP3tiPYyU7r_qCaVs-51" value="&lt;span data-lucid-type=&quot;application/vnd.lucid.text&quot; data-lucid-content=&quot;{&amp;#34;t&amp;#34;:&amp;#34;elif user_action =&#39;scissors&#39; and computer_action = &#39;rock&#39;&amp;#34;,&amp;#34;m&amp;#34;:[{&amp;#34;s&amp;#34;:0,&amp;#34;n&amp;#34;:&amp;#34;a&amp;#34;,&amp;#34;v&amp;#34;:&amp;#34;center&amp;#34;},{&amp;#34;s&amp;#34;:0,&amp;#34;n&amp;#34;:&amp;#34;p&amp;#34;,&amp;#34;v&amp;#34;:1.2},{&amp;#34;s&amp;#34;:0,&amp;#34;n&amp;#34;:&amp;#34;f&amp;#34;,&amp;#34;v&amp;#34;:&amp;#34;Orbitron&amp;#34;,&amp;#34;e&amp;#34;:57},{&amp;#34;s&amp;#34;:0,&amp;#34;n&amp;#34;:&amp;#34;fc&amp;#34;,&amp;#34;v&amp;#34;:&amp;#34;Bold&amp;#34;,&amp;#34;e&amp;#34;:57},{&amp;#34;s&amp;#34;:0,&amp;#34;n&amp;#34;:&amp;#34;fid&amp;#34;,&amp;#34;v&amp;#34;:1706,&amp;#34;e&amp;#34;:57},{&amp;#34;s&amp;#34;:0,&amp;#34;n&amp;#34;:&amp;#34;b&amp;#34;,&amp;#34;v&amp;#34;:true,&amp;#34;e&amp;#34;:57},{&amp;#34;s&amp;#34;:0,&amp;#34;n&amp;#34;:&amp;#34;s&amp;#34;,&amp;#34;v&amp;#34;:22.222222222222218,&amp;#34;e&amp;#34;:57},{&amp;#34;s&amp;#34;:0,&amp;#34;n&amp;#34;:&amp;#34;c&amp;#34;,&amp;#34;v&amp;#34;:&amp;#34;3a414aff&amp;#34;,&amp;#34;e&amp;#34;:57}]}&quot;&gt;&lt;span style=&quot;font-weight: bold ; font-size: 16.6667px ; color: rgb(58 , 65 , 74)&quot;&gt;elif&lt;br&gt;user_action =&#39;scissors&#39; and computer_action = &#39;rock&#39;&lt;/span&gt;&lt;/span&gt;" style="strokeWidth=2;html=1;shape=mxgraph.flowchart.decision;shadow=1;sketch=0;fontFamily=Helvetica;fontSize=11;verticalAlign=middle;labelPosition=center;verticalLabelPosition=middle;align=center;labelBackgroundColor=none;labelBorderColor=none;whiteSpace=wrap;spacing=0;spacingTop=0;spacingLeft=24;spacingRight=24;spacingBottom=10;fillColor=#fad7ac;strokeColor=#b46504;" parent="1" vertex="1">
          <mxGeometry x="-1989" y="964" width="219" height="174" as="geometry" />
        </mxCell>
        <mxCell id="In0JP3tiPYyU7r_qCaVs-59" style="edgeStyle=elbowEdgeStyle;rounded=0;sketch=0;orthogonalLoop=1;jettySize=auto;html=1;entryX=1;entryY=0.5;entryDx=0;entryDy=0;shadow=1;labelBackgroundColor=default;labelBorderColor=default;fontFamily=Helvetica;fontSize=14;fontColor=default;endArrow=classic;strokeWidth=2;fillColor=default;gradientColor=none;" parent="1" source="In0JP3tiPYyU7r_qCaVs-52" target="In0JP3tiPYyU7r_qCaVs-54" edge="1">
          <mxGeometry relative="1" as="geometry">
            <Array as="points">
              <mxPoint x="-1412" y="1177" />
              <mxPoint x="-1550" y="1047" />
              <mxPoint x="-1564" y="1128" />
              <mxPoint x="-1593" y="1200" />
            </Array>
          </mxGeometry>
        </mxCell>
        <mxCell id="In0JP3tiPYyU7r_qCaVs-60" value="Yes" style="edgeLabel;html=1;align=center;verticalAlign=middle;resizable=0;points=[];fontSize=14;fontFamily=Helvetica;fontColor=default;labelBorderColor=default;fontStyle=1" parent="In0JP3tiPYyU7r_qCaVs-59" vertex="1" connectable="0">
          <mxGeometry x="-0.6982" y="-2" relative="1" as="geometry">
            <mxPoint as="offset" />
          </mxGeometry>
        </mxCell>
        <mxCell id="In0JP3tiPYyU7r_qCaVs-66" style="edgeStyle=elbowEdgeStyle;rounded=0;sketch=0;orthogonalLoop=1;jettySize=auto;html=1;entryX=1;entryY=0.75;entryDx=0;entryDy=0;shadow=1;labelBackgroundColor=default;labelBorderColor=default;fontFamily=Helvetica;fontSize=14;fontColor=default;endArrow=classic;strokeWidth=2;fillColor=default;gradientColor=none;" parent="1" source="In0JP3tiPYyU7r_qCaVs-52" target="In0JP3tiPYyU7r_qCaVs-64" edge="1">
          <mxGeometry relative="1" as="geometry">
            <Array as="points">
              <mxPoint x="-1412" y="902" />
            </Array>
          </mxGeometry>
        </mxCell>
        <mxCell id="In0JP3tiPYyU7r_qCaVs-68" value="No" style="edgeLabel;html=1;align=center;verticalAlign=middle;resizable=0;points=[];fontSize=14;fontFamily=Helvetica;fontColor=default;fontStyle=1;labelBorderColor=default;" parent="In0JP3tiPYyU7r_qCaVs-66" vertex="1" connectable="0">
          <mxGeometry x="-0.653" y="1" relative="1" as="geometry">
            <mxPoint as="offset" />
          </mxGeometry>
        </mxCell>
        <mxCell id="In0JP3tiPYyU7r_qCaVs-52" value="&lt;span data-lucid-type=&quot;application/vnd.lucid.text&quot; data-lucid-content=&quot;{&amp;#34;t&amp;#34;:&amp;#34;elif user_action =&#39;paper&#39; and computer_action = &#39;scissors&#39;&amp;#34;,&amp;#34;m&amp;#34;:[{&amp;#34;s&amp;#34;:0,&amp;#34;n&amp;#34;:&amp;#34;a&amp;#34;,&amp;#34;v&amp;#34;:&amp;#34;center&amp;#34;},{&amp;#34;s&amp;#34;:0,&amp;#34;n&amp;#34;:&amp;#34;p&amp;#34;,&amp;#34;v&amp;#34;:1.2},{&amp;#34;s&amp;#34;:0,&amp;#34;n&amp;#34;:&amp;#34;b&amp;#34;,&amp;#34;v&amp;#34;:true,&amp;#34;e&amp;#34;:58},{&amp;#34;s&amp;#34;:0,&amp;#34;n&amp;#34;:&amp;#34;c&amp;#34;,&amp;#34;v&amp;#34;:&amp;#34;3a414aff&amp;#34;,&amp;#34;e&amp;#34;:58},{&amp;#34;s&amp;#34;:0,&amp;#34;n&amp;#34;:&amp;#34;f&amp;#34;,&amp;#34;v&amp;#34;:&amp;#34;Orbitron&amp;#34;,&amp;#34;e&amp;#34;:58},{&amp;#34;s&amp;#34;:0,&amp;#34;n&amp;#34;:&amp;#34;fc&amp;#34;,&amp;#34;v&amp;#34;:&amp;#34;Bold&amp;#34;,&amp;#34;e&amp;#34;:58},{&amp;#34;s&amp;#34;:0,&amp;#34;n&amp;#34;:&amp;#34;fid&amp;#34;,&amp;#34;v&amp;#34;:1706,&amp;#34;e&amp;#34;:58},{&amp;#34;s&amp;#34;:0,&amp;#34;n&amp;#34;:&amp;#34;s&amp;#34;,&amp;#34;v&amp;#34;:22.222222222222218,&amp;#34;e&amp;#34;:58}]}&quot;&gt;&lt;span style=&quot;font-weight: bold ; color: rgb(58 , 65 , 74) ; font-size: 16.6667px&quot;&gt;elif&lt;br&gt;user_action =&#39;paper&#39; and computer_action = &#39;scissors&#39;&lt;/span&gt;&lt;/span&gt;" style="strokeWidth=2;html=1;shape=mxgraph.flowchart.decision;shadow=1;sketch=0;fontFamily=Helvetica;fontSize=11;verticalAlign=middle;labelPosition=center;verticalLabelPosition=middle;align=center;labelBackgroundColor=none;labelBorderColor=none;whiteSpace=wrap;spacing=0;spacingTop=0;spacingLeft=24;spacingRight=24;spacingBottom=10;fillColor=#fad7ac;strokeColor=#b46504;" parent="1" vertex="1">
          <mxGeometry x="-1522" y="960" width="219" height="174" as="geometry" />
        </mxCell>
        <mxCell id="In0JP3tiPYyU7r_qCaVs-54" value="&lt;span data-lucid-type=&quot;application/vnd.lucid.text&quot; data-lucid-content=&quot;{&amp;#34;t&amp;#34;:&amp;#34;print(&#39;Sorry, but the computer chose &amp;lt;computer_action&amp;gt;&#39;)&amp;#34;,&amp;#34;m&amp;#34;:[{&amp;#34;s&amp;#34;:0,&amp;#34;n&amp;#34;:&amp;#34;p&amp;#34;,&amp;#34;v&amp;#34;:1.2},{&amp;#34;s&amp;#34;:0,&amp;#34;n&amp;#34;:&amp;#34;a&amp;#34;,&amp;#34;v&amp;#34;:&amp;#34;center&amp;#34;},{&amp;#34;s&amp;#34;:0,&amp;#34;n&amp;#34;:&amp;#34;f&amp;#34;,&amp;#34;v&amp;#34;:&amp;#34;Orbitron&amp;#34;,&amp;#34;e&amp;#34;:7},{&amp;#34;s&amp;#34;:0,&amp;#34;n&amp;#34;:&amp;#34;fc&amp;#34;,&amp;#34;v&amp;#34;:&amp;#34;Bold&amp;#34;,&amp;#34;e&amp;#34;:7},{&amp;#34;s&amp;#34;:0,&amp;#34;n&amp;#34;:&amp;#34;fid&amp;#34;,&amp;#34;v&amp;#34;:1706,&amp;#34;e&amp;#34;:7},{&amp;#34;s&amp;#34;:0,&amp;#34;n&amp;#34;:&amp;#34;b&amp;#34;,&amp;#34;v&amp;#34;:true,&amp;#34;e&amp;#34;:7},{&amp;#34;s&amp;#34;:0,&amp;#34;n&amp;#34;:&amp;#34;s&amp;#34;,&amp;#34;v&amp;#34;:22.222222222222218,&amp;#34;e&amp;#34;:7},{&amp;#34;s&amp;#34;:0,&amp;#34;n&amp;#34;:&amp;#34;c&amp;#34;,&amp;#34;v&amp;#34;:&amp;#34;3a414aff&amp;#34;,&amp;#34;e&amp;#34;:7},{&amp;#34;s&amp;#34;:7,&amp;#34;n&amp;#34;:&amp;#34;c&amp;#34;,&amp;#34;v&amp;#34;:&amp;#34;#3f1888ff&amp;#34;,&amp;#34;e&amp;#34;:56},{&amp;#34;s&amp;#34;:7,&amp;#34;n&amp;#34;:&amp;#34;s&amp;#34;,&amp;#34;v&amp;#34;:18.666666666666668,&amp;#34;e&amp;#34;:56},{&amp;#34;s&amp;#34;:7,&amp;#34;n&amp;#34;:&amp;#34;f&amp;#34;,&amp;#34;v&amp;#34;:&amp;#34;Liberation Mono&amp;#34;,&amp;#34;e&amp;#34;:56}]}&quot;&gt;&lt;span style=&quot;font-weight: bold ; font-size: 16.6667px ; color: rgb(58 , 65 , 74)&quot;&gt;print(&#39;&lt;/span&gt;&lt;span style=&quot;color: rgb(63 , 24 , 136) ; font-size: 14px&quot;&gt;Sorry, but the computer chose &amp;lt;computer_action&amp;gt;&#39;)&lt;/span&gt;&lt;/span&gt;" style="shape=parallelogram;html=1;strokeWidth=2;perimeter=parallelogramPerimeter;whiteSpace=wrap;rounded=1;arcSize=12;size=0.23;labelBackgroundColor=none;labelBorderColor=none;comic=0;fontFamily=Helvetica;fontSize=12;fillColor=#dae8fc;strokeColor=#6c8ebf;shadow=1;sketch=0;fontColor=default;spacing=0;spacingLeft=19;" parent="1" vertex="1">
          <mxGeometry x="-2051" y="1317" width="343" height="50" as="geometry" />
        </mxCell>
        <mxCell id="kU6Kl2C4q1-UE2_zCOD4-25" value="" style="edgeStyle=orthogonalEdgeStyle;shape=connector;rounded=0;sketch=0;orthogonalLoop=1;jettySize=auto;html=1;shadow=1;labelBackgroundColor=default;labelBorderColor=default;fontFamily=Helvetica;fontSize=14;fontColor=default;endArrow=classic;strokeColor=default;strokeWidth=2;fillColor=default;gradientColor=none;" parent="1" source="In0JP3tiPYyU7r_qCaVs-64" target="kU6Kl2C4q1-UE2_zCOD4-24" edge="1">
          <mxGeometry relative="1" as="geometry" />
        </mxCell>
        <mxCell id="In0JP3tiPYyU7r_qCaVs-64" value="&lt;span data-lucid-type=&quot;application/vnd.lucid.text&quot; data-lucid-content=&quot;{&amp;#34;t&amp;#34;:&amp;#34;print(&#39;Well done. The computer chose &amp;lt;computer_action&amp;gt; and failed&#39;)&amp;#34;,&amp;#34;m&amp;#34;:[{&amp;#34;s&amp;#34;:0,&amp;#34;n&amp;#34;:&amp;#34;p&amp;#34;,&amp;#34;v&amp;#34;:1.2},{&amp;#34;s&amp;#34;:0,&amp;#34;n&amp;#34;:&amp;#34;a&amp;#34;,&amp;#34;v&amp;#34;:&amp;#34;center&amp;#34;},{&amp;#34;s&amp;#34;:0,&amp;#34;n&amp;#34;:&amp;#34;f&amp;#34;,&amp;#34;v&amp;#34;:&amp;#34;Orbitron&amp;#34;,&amp;#34;e&amp;#34;:7},{&amp;#34;s&amp;#34;:0,&amp;#34;n&amp;#34;:&amp;#34;fc&amp;#34;,&amp;#34;v&amp;#34;:&amp;#34;Bold&amp;#34;,&amp;#34;e&amp;#34;:7},{&amp;#34;s&amp;#34;:0,&amp;#34;n&amp;#34;:&amp;#34;fid&amp;#34;,&amp;#34;v&amp;#34;:1706,&amp;#34;e&amp;#34;:7},{&amp;#34;s&amp;#34;:0,&amp;#34;n&amp;#34;:&amp;#34;b&amp;#34;,&amp;#34;v&amp;#34;:true,&amp;#34;e&amp;#34;:7},{&amp;#34;s&amp;#34;:0,&amp;#34;n&amp;#34;:&amp;#34;s&amp;#34;,&amp;#34;v&amp;#34;:22.222222222222218,&amp;#34;e&amp;#34;:7},{&amp;#34;s&amp;#34;:0,&amp;#34;n&amp;#34;:&amp;#34;c&amp;#34;,&amp;#34;v&amp;#34;:&amp;#34;3a414aff&amp;#34;,&amp;#34;e&amp;#34;:7},{&amp;#34;s&amp;#34;:7,&amp;#34;n&amp;#34;:&amp;#34;c&amp;#34;,&amp;#34;v&amp;#34;:&amp;#34;#3f1888ff&amp;#34;,&amp;#34;e&amp;#34;:67},{&amp;#34;s&amp;#34;:7,&amp;#34;n&amp;#34;:&amp;#34;s&amp;#34;,&amp;#34;v&amp;#34;:18.666666666666668,&amp;#34;e&amp;#34;:67},{&amp;#34;s&amp;#34;:7,&amp;#34;n&amp;#34;:&amp;#34;f&amp;#34;,&amp;#34;v&amp;#34;:&amp;#34;Liberation Mono&amp;#34;,&amp;#34;e&amp;#34;:67}]}&quot;&gt;&lt;span style=&quot;font-weight: bold ; font-size: 16.6667px ; color: rgb(58 , 65 , 74)&quot;&gt;print(&#39;&lt;/span&gt;&lt;span style=&quot;color: rgb(63 , 24 , 136) ; font-size: 14px&quot;&gt;Well done. The computer chose &amp;lt;computer_action&amp;gt; and failed&#39;)&lt;/span&gt;&lt;/span&gt;" style="shape=parallelogram;html=1;strokeWidth=2;perimeter=parallelogramPerimeter;whiteSpace=wrap;rounded=1;arcSize=12;size=0.23;labelBackgroundColor=none;labelBorderColor=none;comic=0;fontFamily=Helvetica;fontSize=12;fillColor=#dae8fc;strokeColor=#6c8ebf;fontColor=default;spacingLeft=15;" parent="1" vertex="1">
          <mxGeometry x="-2051" y="716" width="342" height="69" as="geometry" />
        </mxCell>
        <mxCell id="In0JP3tiPYyU7r_qCaVs-75" style="edgeStyle=elbowEdgeStyle;rounded=0;sketch=0;orthogonalLoop=1;jettySize=auto;html=1;entryX=0.5;entryY=0;entryDx=0;entryDy=0;shadow=1;labelBackgroundColor=default;labelBorderColor=default;fontFamily=Helvetica;fontSize=14;fontColor=default;endArrow=classic;strokeWidth=2;fillColor=default;gradientColor=none;" parent="1" source="In0JP3tiPYyU7r_qCaVs-71" target="In0JP3tiPYyU7r_qCaVs-72" edge="1">
          <mxGeometry relative="1" as="geometry" />
        </mxCell>
        <mxCell id="In0JP3tiPYyU7r_qCaVs-71" value="&lt;span data-lucid-type=&quot;application/vnd.lucid.text&quot; data-lucid-content=&quot;{&amp;#34;t&amp;#34;:&amp;#34;def check_file()&amp;#34;,&amp;#34;m&amp;#34;:[{&amp;#34;s&amp;#34;:0,&amp;#34;n&amp;#34;:&amp;#34;a&amp;#34;,&amp;#34;v&amp;#34;:&amp;#34;center&amp;#34;},{&amp;#34;s&amp;#34;:0,&amp;#34;n&amp;#34;:&amp;#34;b&amp;#34;,&amp;#34;v&amp;#34;:true,&amp;#34;e&amp;#34;:16},{&amp;#34;s&amp;#34;:0,&amp;#34;n&amp;#34;:&amp;#34;c&amp;#34;,&amp;#34;v&amp;#34;:&amp;#34;3a414aff&amp;#34;,&amp;#34;e&amp;#34;:16},{&amp;#34;s&amp;#34;:0,&amp;#34;n&amp;#34;:&amp;#34;f&amp;#34;,&amp;#34;v&amp;#34;:&amp;#34;Orbitron&amp;#34;,&amp;#34;e&amp;#34;:16},{&amp;#34;s&amp;#34;:0,&amp;#34;n&amp;#34;:&amp;#34;fc&amp;#34;,&amp;#34;v&amp;#34;:&amp;#34;Bold&amp;#34;,&amp;#34;e&amp;#34;:16},{&amp;#34;s&amp;#34;:0,&amp;#34;n&amp;#34;:&amp;#34;fid&amp;#34;,&amp;#34;v&amp;#34;:1706,&amp;#34;e&amp;#34;:16},{&amp;#34;s&amp;#34;:0,&amp;#34;n&amp;#34;:&amp;#34;s&amp;#34;,&amp;#34;v&amp;#34;:22.222222222222218,&amp;#34;e&amp;#34;:16}]}&quot;&gt;&lt;span style=&quot;font-weight: bold ; color: rgb(58 , 65 , 74) ; font-size: 16.6667px&quot;&gt;def check_file()&lt;/span&gt;&lt;/span&gt;" style="verticalLabelPosition=middle;verticalAlign=middle;shape=process;rounded=1;size=0.14;arcSize=6;labelBackgroundColor=none;labelBorderColor=none;comic=0;fontFamily=Helvetica;fontSize=12;horizontal=1;align=center;html=1;whiteSpace=wrap;labelPosition=center;fillColor=#e1d5e7;strokeColor=#9673a6;" parent="1" vertex="1">
          <mxGeometry x="2497" y="40" width="180" height="90" as="geometry" />
        </mxCell>
        <mxCell id="kU6Kl2C4q1-UE2_zCOD4-2" value="" style="edgeStyle=elbowEdgeStyle;shape=connector;rounded=0;sketch=0;orthogonalLoop=1;jettySize=auto;html=1;shadow=1;labelBackgroundColor=default;labelBorderColor=default;fontFamily=Helvetica;fontSize=14;fontColor=default;endArrow=classic;strokeColor=default;strokeWidth=2;fillColor=default;gradientColor=none;" parent="1" source="In0JP3tiPYyU7r_qCaVs-72" target="In0JP3tiPYyU7r_qCaVs-76" edge="1">
          <mxGeometry relative="1" as="geometry" />
        </mxCell>
        <mxCell id="In0JP3tiPYyU7r_qCaVs-72" value="&lt;span data-lucid-type=&quot;application/vnd.lucid.text&quot; data-lucid-content=&quot;{&amp;#34;t&amp;#34;:&amp;#34;read file &#39;rating.txt&#39;&amp;#34;,&amp;#34;m&amp;#34;:[{&amp;#34;s&amp;#34;:0,&amp;#34;n&amp;#34;:&amp;#34;a&amp;#34;,&amp;#34;v&amp;#34;:&amp;#34;center&amp;#34;},{&amp;#34;s&amp;#34;:0,&amp;#34;n&amp;#34;:&amp;#34;f&amp;#34;,&amp;#34;v&amp;#34;:&amp;#34;Orbitron&amp;#34;,&amp;#34;e&amp;#34;:22},{&amp;#34;s&amp;#34;:0,&amp;#34;n&amp;#34;:&amp;#34;fc&amp;#34;,&amp;#34;v&amp;#34;:&amp;#34;Bold&amp;#34;,&amp;#34;e&amp;#34;:22},{&amp;#34;s&amp;#34;:0,&amp;#34;n&amp;#34;:&amp;#34;fid&amp;#34;,&amp;#34;v&amp;#34;:1706,&amp;#34;e&amp;#34;:22},{&amp;#34;s&amp;#34;:0,&amp;#34;n&amp;#34;:&amp;#34;b&amp;#34;,&amp;#34;v&amp;#34;:true,&amp;#34;e&amp;#34;:22},{&amp;#34;s&amp;#34;:0,&amp;#34;n&amp;#34;:&amp;#34;s&amp;#34;,&amp;#34;v&amp;#34;:22.222222222222218,&amp;#34;e&amp;#34;:22},{&amp;#34;s&amp;#34;:0,&amp;#34;n&amp;#34;:&amp;#34;c&amp;#34;,&amp;#34;v&amp;#34;:&amp;#34;3a414aff&amp;#34;,&amp;#34;e&amp;#34;:22}]}&quot;&gt;&lt;span style=&quot;font-weight: bold ; font-size: 16.6667px ; color: rgb(58 , 65 , 74)&quot;&gt;read file &#39;rating.txt&#39;&lt;/span&gt;&lt;/span&gt;" style="shape=parallelogram;html=1;strokeWidth=2;perimeter=parallelogramPerimeter;whiteSpace=wrap;rounded=1;arcSize=12;size=0.23;labelBackgroundColor=none;labelBorderColor=none;comic=0;fontFamily=Helvetica;fontSize=12;fillColor=#dae8fc;strokeColor=#6c8ebf;fontColor=default;" parent="1" vertex="1">
          <mxGeometry x="2462" y="242" width="240" height="50" as="geometry" />
        </mxCell>
        <mxCell id="In0JP3tiPYyU7r_qCaVs-81" value="" style="edgeStyle=elbowEdgeStyle;rounded=0;sketch=0;orthogonalLoop=1;jettySize=auto;html=1;shadow=1;labelBackgroundColor=default;labelBorderColor=default;fontFamily=Helvetica;fontSize=14;fontColor=default;endArrow=classic;strokeWidth=2;fillColor=default;gradientColor=none;" parent="1" source="In0JP3tiPYyU7r_qCaVs-76" target="In0JP3tiPYyU7r_qCaVs-78" edge="1">
          <mxGeometry relative="1" as="geometry" />
        </mxCell>
        <mxCell id="In0JP3tiPYyU7r_qCaVs-83" value="" style="edgeStyle=elbowEdgeStyle;rounded=0;sketch=0;orthogonalLoop=1;jettySize=auto;html=1;shadow=1;labelBackgroundColor=default;labelBorderColor=default;fontFamily=Helvetica;fontSize=14;fontColor=default;endArrow=classic;strokeWidth=2;fillColor=default;gradientColor=none;" parent="1" source="In0JP3tiPYyU7r_qCaVs-76" target="In0JP3tiPYyU7r_qCaVs-77" edge="1">
          <mxGeometry relative="1" as="geometry" />
        </mxCell>
        <mxCell id="In0JP3tiPYyU7r_qCaVs-76" value="&lt;span data-lucid-type=&quot;application/vnd.lucid.text&quot; data-lucid-content=&quot;{&amp;#34;t&amp;#34;:&amp;#34;if name in file &#39;rating.txt&#39;&amp;#34;,&amp;#34;m&amp;#34;:[{&amp;#34;s&amp;#34;:0,&amp;#34;n&amp;#34;:&amp;#34;a&amp;#34;,&amp;#34;v&amp;#34;:&amp;#34;center&amp;#34;},{&amp;#34;s&amp;#34;:0,&amp;#34;n&amp;#34;:&amp;#34;f&amp;#34;,&amp;#34;v&amp;#34;:&amp;#34;Orbitron&amp;#34;,&amp;#34;e&amp;#34;:28},{&amp;#34;s&amp;#34;:0,&amp;#34;n&amp;#34;:&amp;#34;fc&amp;#34;,&amp;#34;v&amp;#34;:&amp;#34;Bold&amp;#34;,&amp;#34;e&amp;#34;:28},{&amp;#34;s&amp;#34;:0,&amp;#34;n&amp;#34;:&amp;#34;fid&amp;#34;,&amp;#34;v&amp;#34;:1706,&amp;#34;e&amp;#34;:28},{&amp;#34;s&amp;#34;:0,&amp;#34;n&amp;#34;:&amp;#34;b&amp;#34;,&amp;#34;v&amp;#34;:true,&amp;#34;e&amp;#34;:28},{&amp;#34;s&amp;#34;:0,&amp;#34;n&amp;#34;:&amp;#34;s&amp;#34;,&amp;#34;v&amp;#34;:22.222222222222218,&amp;#34;e&amp;#34;:28},{&amp;#34;s&amp;#34;:0,&amp;#34;n&amp;#34;:&amp;#34;c&amp;#34;,&amp;#34;v&amp;#34;:&amp;#34;3a414aff&amp;#34;,&amp;#34;e&amp;#34;:28}]}&quot;&gt;&lt;span style=&quot;font-weight: bold ; font-size: 16.6667px ; color: rgb(58 , 65 , 74)&quot;&gt;if&lt;br&gt;name in file&#39;rating.txt&#39;&lt;/span&gt;&lt;/span&gt;" style="strokeWidth=2;html=1;shape=mxgraph.flowchart.decision;shadow=1;sketch=0;fontFamily=Helvetica;fontSize=11;verticalAlign=middle;labelPosition=center;verticalLabelPosition=middle;align=center;labelBackgroundColor=none;labelBorderColor=none;whiteSpace=wrap;spacing=0;spacingTop=0;spacingLeft=24;spacingRight=24;spacingBottom=19;fillColor=#fad7ac;strokeColor=#b46504;" parent="1" vertex="1">
          <mxGeometry x="2502" y="393" width="160" height="126" as="geometry" />
        </mxCell>
        <mxCell id="In0JP3tiPYyU7r_qCaVs-77" value="&lt;span data-lucid-type=&quot;application/vnd.lucid.text&quot; data-lucid-content=&quot;{&amp;#34;t&amp;#34;:&amp;#34;set starting_poin = 0&amp;#34;,&amp;#34;m&amp;#34;:[{&amp;#34;s&amp;#34;:0,&amp;#34;n&amp;#34;:&amp;#34;a&amp;#34;,&amp;#34;v&amp;#34;:&amp;#34;center&amp;#34;},{&amp;#34;s&amp;#34;:0,&amp;#34;n&amp;#34;:&amp;#34;p&amp;#34;,&amp;#34;v&amp;#34;:1.2},{&amp;#34;s&amp;#34;:0,&amp;#34;n&amp;#34;:&amp;#34;b&amp;#34;,&amp;#34;v&amp;#34;:true,&amp;#34;e&amp;#34;:21},{&amp;#34;s&amp;#34;:0,&amp;#34;n&amp;#34;:&amp;#34;c&amp;#34;,&amp;#34;v&amp;#34;:&amp;#34;3a414aff&amp;#34;,&amp;#34;e&amp;#34;:21},{&amp;#34;s&amp;#34;:0,&amp;#34;n&amp;#34;:&amp;#34;f&amp;#34;,&amp;#34;v&amp;#34;:&amp;#34;Orbitron&amp;#34;,&amp;#34;e&amp;#34;:21},{&amp;#34;s&amp;#34;:0,&amp;#34;n&amp;#34;:&amp;#34;fc&amp;#34;,&amp;#34;v&amp;#34;:&amp;#34;Bold&amp;#34;,&amp;#34;e&amp;#34;:21},{&amp;#34;s&amp;#34;:0,&amp;#34;n&amp;#34;:&amp;#34;fid&amp;#34;,&amp;#34;v&amp;#34;:1706,&amp;#34;e&amp;#34;:21},{&amp;#34;s&amp;#34;:0,&amp;#34;n&amp;#34;:&amp;#34;s&amp;#34;,&amp;#34;v&amp;#34;:22.222222222222218,&amp;#34;e&amp;#34;:21}]}&quot;&gt;&lt;span style=&quot;font-weight: bold ; color: rgb(58 , 65 , 74) ; font-size: 16.6667px&quot;&gt;return 0&lt;/span&gt;&lt;/span&gt;" style="rounded=1;whiteSpace=wrap;html=1;absoluteArcSize=1;arcSize=14;strokeWidth=2;fillColor=#dae8fc;strokeColor=#6c8ebf;labelBackgroundColor=none;labelBorderColor=none;fontFamily=Helvetica;fontSize=14;fontColor=default;" parent="1" vertex="1">
          <mxGeometry x="2227" y="426" width="176" height="60" as="geometry" />
        </mxCell>
        <mxCell id="In0JP3tiPYyU7r_qCaVs-82" value="" style="edgeStyle=elbowEdgeStyle;rounded=0;sketch=0;orthogonalLoop=1;jettySize=auto;html=1;shadow=1;labelBackgroundColor=default;labelBorderColor=default;fontFamily=Helvetica;fontSize=14;fontColor=default;endArrow=classic;strokeWidth=2;fillColor=default;gradientColor=none;" parent="1" source="In0JP3tiPYyU7r_qCaVs-78" target="In0JP3tiPYyU7r_qCaVs-80" edge="1">
          <mxGeometry relative="1" as="geometry" />
        </mxCell>
        <mxCell id="In0JP3tiPYyU7r_qCaVs-78" value="&lt;span data-lucid-type=&quot;application/vnd.lucid.text&quot; data-lucid-content=&quot;{&amp;#34;t&amp;#34;:&amp;#34;read score&amp;#34;,&amp;#34;m&amp;#34;:[{&amp;#34;s&amp;#34;:0,&amp;#34;n&amp;#34;:&amp;#34;a&amp;#34;,&amp;#34;v&amp;#34;:&amp;#34;center&amp;#34;},{&amp;#34;s&amp;#34;:0,&amp;#34;n&amp;#34;:&amp;#34;f&amp;#34;,&amp;#34;v&amp;#34;:&amp;#34;Orbitron&amp;#34;,&amp;#34;e&amp;#34;:10},{&amp;#34;s&amp;#34;:0,&amp;#34;n&amp;#34;:&amp;#34;fc&amp;#34;,&amp;#34;v&amp;#34;:&amp;#34;Bold&amp;#34;,&amp;#34;e&amp;#34;:10},{&amp;#34;s&amp;#34;:0,&amp;#34;n&amp;#34;:&amp;#34;fid&amp;#34;,&amp;#34;v&amp;#34;:1706,&amp;#34;e&amp;#34;:10},{&amp;#34;s&amp;#34;:0,&amp;#34;n&amp;#34;:&amp;#34;b&amp;#34;,&amp;#34;v&amp;#34;:true,&amp;#34;e&amp;#34;:10},{&amp;#34;s&amp;#34;:0,&amp;#34;n&amp;#34;:&amp;#34;s&amp;#34;,&amp;#34;v&amp;#34;:22.222222222222218,&amp;#34;e&amp;#34;:10},{&amp;#34;s&amp;#34;:0,&amp;#34;n&amp;#34;:&amp;#34;c&amp;#34;,&amp;#34;v&amp;#34;:&amp;#34;3a414aff&amp;#34;,&amp;#34;e&amp;#34;:10}]}&quot;&gt;&lt;span style=&quot;font-weight: bold ; font-size: 16.6667px ; color: rgb(58 , 65 , 74)&quot;&gt;read score&lt;/span&gt;&lt;/span&gt;" style="shape=parallelogram;html=1;strokeWidth=2;perimeter=parallelogramPerimeter;whiteSpace=wrap;rounded=1;arcSize=12;size=0.23;labelBackgroundColor=none;labelBorderColor=none;comic=0;fontFamily=Helvetica;fontSize=12;fillColor=#dae8fc;strokeColor=#6c8ebf;fontColor=default;" parent="1" vertex="1">
          <mxGeometry x="2483.5" y="603" width="197" height="50" as="geometry" />
        </mxCell>
        <mxCell id="In0JP3tiPYyU7r_qCaVs-80" value="&lt;span data-lucid-type=&quot;application/vnd.lucid.text&quot; data-lucid-content=&quot;{&amp;#34;t&amp;#34;:&amp;#34;set starting_poin = score&amp;#34;,&amp;#34;m&amp;#34;:[{&amp;#34;s&amp;#34;:0,&amp;#34;n&amp;#34;:&amp;#34;a&amp;#34;,&amp;#34;v&amp;#34;:&amp;#34;center&amp;#34;},{&amp;#34;s&amp;#34;:0,&amp;#34;n&amp;#34;:&amp;#34;f&amp;#34;,&amp;#34;v&amp;#34;:&amp;#34;Orbitron&amp;#34;,&amp;#34;e&amp;#34;:25},{&amp;#34;s&amp;#34;:0,&amp;#34;n&amp;#34;:&amp;#34;fc&amp;#34;,&amp;#34;v&amp;#34;:&amp;#34;Bold&amp;#34;,&amp;#34;e&amp;#34;:25},{&amp;#34;s&amp;#34;:0,&amp;#34;n&amp;#34;:&amp;#34;fid&amp;#34;,&amp;#34;v&amp;#34;:1706,&amp;#34;e&amp;#34;:25},{&amp;#34;s&amp;#34;:0,&amp;#34;n&amp;#34;:&amp;#34;b&amp;#34;,&amp;#34;v&amp;#34;:true,&amp;#34;e&amp;#34;:25},{&amp;#34;s&amp;#34;:0,&amp;#34;n&amp;#34;:&amp;#34;s&amp;#34;,&amp;#34;v&amp;#34;:22.222222222222218,&amp;#34;e&amp;#34;:25},{&amp;#34;s&amp;#34;:0,&amp;#34;n&amp;#34;:&amp;#34;c&amp;#34;,&amp;#34;v&amp;#34;:&amp;#34;3a414aff&amp;#34;,&amp;#34;e&amp;#34;:25}]}&quot;&gt;&lt;span style=&quot;font-weight: bold ; font-size: 16.6667px ; color: rgb(58 , 65 , 74)&quot;&gt;&amp;nbsp;return score&lt;/span&gt;&lt;/span&gt;" style="rounded=1;whiteSpace=wrap;html=1;absoluteArcSize=1;arcSize=14;strokeWidth=2;fillColor=#dae8fc;strokeColor=#6c8ebf;labelBackgroundColor=none;labelBorderColor=none;fontFamily=Helvetica;fontSize=14;fontColor=default;" parent="1" vertex="1">
          <mxGeometry x="2469.5" y="730.5" width="235" height="43" as="geometry" />
        </mxCell>
        <mxCell id="kU6Kl2C4q1-UE2_zCOD4-6" value="Yes" style="edgeStyle=elbowEdgeStyle;shape=connector;rounded=0;sketch=0;orthogonalLoop=1;jettySize=auto;html=1;shadow=1;labelBackgroundColor=default;labelBorderColor=default;fontFamily=Helvetica;fontSize=14;fontColor=default;endArrow=classic;strokeColor=default;strokeWidth=2;fillColor=default;gradientColor=none;" parent="1" source="kU6Kl2C4q1-UE2_zCOD4-3" target="kU6Kl2C4q1-UE2_zCOD4-5" edge="1">
          <mxGeometry relative="1" as="geometry" />
        </mxCell>
        <mxCell id="nzFtdgMQ5nwZeQu9WLnp-56" value="No" style="edgeStyle=orthogonalEdgeStyle;shape=connector;rounded=0;sketch=0;orthogonalLoop=1;jettySize=auto;html=1;entryX=0.5;entryY=1;entryDx=0;entryDy=0;shadow=1;labelBackgroundColor=default;labelBorderColor=default;fontFamily=Helvetica;fontSize=14;fontColor=default;endArrow=classic;strokeColor=default;strokeWidth=2;fillColor=default;gradientColor=none;elbow=vertical;" edge="1" parent="1" source="kU6Kl2C4q1-UE2_zCOD4-3" target="In0JP3tiPYyU7r_qCaVs-31">
          <mxGeometry relative="1" as="geometry" />
        </mxCell>
        <mxCell id="kU6Kl2C4q1-UE2_zCOD4-3" value="&lt;span data-lucid-type=&quot;application/vnd.lucid.text&quot; data-lucid-content=&quot;{&amp;#34;t&amp;#34;:&amp;#34;if user_action == &#39;!exit&#39;&amp;#34;,&amp;#34;m&amp;#34;:[{&amp;#34;s&amp;#34;:0,&amp;#34;n&amp;#34;:&amp;#34;a&amp;#34;,&amp;#34;v&amp;#34;:&amp;#34;center&amp;#34;},{&amp;#34;s&amp;#34;:0,&amp;#34;n&amp;#34;:&amp;#34;f&amp;#34;,&amp;#34;v&amp;#34;:&amp;#34;Orbitron&amp;#34;,&amp;#34;e&amp;#34;:25},{&amp;#34;s&amp;#34;:0,&amp;#34;n&amp;#34;:&amp;#34;fc&amp;#34;,&amp;#34;v&amp;#34;:&amp;#34;Bold&amp;#34;,&amp;#34;e&amp;#34;:25},{&amp;#34;s&amp;#34;:0,&amp;#34;n&amp;#34;:&amp;#34;fid&amp;#34;,&amp;#34;v&amp;#34;:1706,&amp;#34;e&amp;#34;:25},{&amp;#34;s&amp;#34;:0,&amp;#34;n&amp;#34;:&amp;#34;b&amp;#34;,&amp;#34;v&amp;#34;:true,&amp;#34;e&amp;#34;:25},{&amp;#34;s&amp;#34;:0,&amp;#34;n&amp;#34;:&amp;#34;s&amp;#34;,&amp;#34;v&amp;#34;:22.222222222222218,&amp;#34;e&amp;#34;:25},{&amp;#34;s&amp;#34;:0,&amp;#34;n&amp;#34;:&amp;#34;c&amp;#34;,&amp;#34;v&amp;#34;:&amp;#34;3a414aff&amp;#34;,&amp;#34;e&amp;#34;:25}]}&quot;&gt;&lt;span style=&quot;font-weight: bold ; font-size: 16.6667px ; color: rgb(58 , 65 , 74)&quot;&gt;if user_action == &#39;!rating&#39;&lt;/span&gt;&lt;/span&gt;" style="strokeWidth=2;html=1;shape=mxgraph.flowchart.decision;shadow=1;sketch=0;fontFamily=Helvetica;fontSize=11;verticalAlign=middle;labelPosition=center;verticalLabelPosition=middle;align=center;labelBackgroundColor=none;labelBorderColor=none;whiteSpace=wrap;spacing=0;spacingTop=0;spacingLeft=24;spacingRight=24;spacingBottom=0;fillColor=#fad7ac;strokeColor=#b46504;" parent="1" vertex="1">
          <mxGeometry x="-384" y="885" width="134" height="120" as="geometry" />
        </mxCell>
        <mxCell id="kU6Kl2C4q1-UE2_zCOD4-5" value="&lt;span data-lucid-type=&quot;application/vnd.lucid.text&quot; data-lucid-content=&quot;{&amp;#34;t&amp;#34;:&amp;#34;print(&#39;Bye!&#39;)&amp;#34;,&amp;#34;m&amp;#34;:[{&amp;#34;s&amp;#34;:0,&amp;#34;n&amp;#34;:&amp;#34;a&amp;#34;,&amp;#34;v&amp;#34;:&amp;#34;center&amp;#34;},{&amp;#34;s&amp;#34;:0,&amp;#34;n&amp;#34;:&amp;#34;f&amp;#34;,&amp;#34;v&amp;#34;:&amp;#34;Orbitron&amp;#34;,&amp;#34;e&amp;#34;:13},{&amp;#34;s&amp;#34;:0,&amp;#34;n&amp;#34;:&amp;#34;fc&amp;#34;,&amp;#34;v&amp;#34;:&amp;#34;Bold&amp;#34;,&amp;#34;e&amp;#34;:13},{&amp;#34;s&amp;#34;:0,&amp;#34;n&amp;#34;:&amp;#34;fid&amp;#34;,&amp;#34;v&amp;#34;:1706,&amp;#34;e&amp;#34;:13},{&amp;#34;s&amp;#34;:0,&amp;#34;n&amp;#34;:&amp;#34;b&amp;#34;,&amp;#34;v&amp;#34;:true,&amp;#34;e&amp;#34;:13},{&amp;#34;s&amp;#34;:0,&amp;#34;n&amp;#34;:&amp;#34;s&amp;#34;,&amp;#34;v&amp;#34;:22.222222222222218,&amp;#34;e&amp;#34;:13},{&amp;#34;s&amp;#34;:0,&amp;#34;n&amp;#34;:&amp;#34;c&amp;#34;,&amp;#34;v&amp;#34;:&amp;#34;3a414aff&amp;#34;,&amp;#34;e&amp;#34;:13}]}&quot;&gt;&lt;span style=&quot;font-weight: bold ; font-size: 16.6667px ; color: rgb(58 , 65 , 74)&quot;&gt;print(&#39;Your rating is: {score}&#39;)&lt;/span&gt;&lt;/span&gt;" style="shape=parallelogram;html=1;strokeWidth=2;perimeter=parallelogramPerimeter;whiteSpace=wrap;rounded=1;arcSize=12;size=0.23;labelBackgroundColor=none;labelBorderColor=none;comic=0;fontFamily=Helvetica;fontSize=12;fillColor=#dae8fc;strokeColor=#6c8ebf;shadow=1;sketch=0;fontColor=default;" parent="1" vertex="1">
          <mxGeometry x="-432" y="1088" width="220" height="62" as="geometry" />
        </mxCell>
        <mxCell id="kU6Kl2C4q1-UE2_zCOD4-23" value="&lt;span data-lucid-type=&quot;application/vnd.lucid.text&quot; data-lucid-content=&quot;{&amp;#34;t&amp;#34;:&amp;#34;set starting_poin = 0&amp;#34;,&amp;#34;m&amp;#34;:[{&amp;#34;s&amp;#34;:0,&amp;#34;n&amp;#34;:&amp;#34;a&amp;#34;,&amp;#34;v&amp;#34;:&amp;#34;center&amp;#34;},{&amp;#34;s&amp;#34;:0,&amp;#34;n&amp;#34;:&amp;#34;p&amp;#34;,&amp;#34;v&amp;#34;:1.2},{&amp;#34;s&amp;#34;:0,&amp;#34;n&amp;#34;:&amp;#34;b&amp;#34;,&amp;#34;v&amp;#34;:true,&amp;#34;e&amp;#34;:21},{&amp;#34;s&amp;#34;:0,&amp;#34;n&amp;#34;:&amp;#34;c&amp;#34;,&amp;#34;v&amp;#34;:&amp;#34;3a414aff&amp;#34;,&amp;#34;e&amp;#34;:21},{&amp;#34;s&amp;#34;:0,&amp;#34;n&amp;#34;:&amp;#34;f&amp;#34;,&amp;#34;v&amp;#34;:&amp;#34;Orbitron&amp;#34;,&amp;#34;e&amp;#34;:21},{&amp;#34;s&amp;#34;:0,&amp;#34;n&amp;#34;:&amp;#34;fc&amp;#34;,&amp;#34;v&amp;#34;:&amp;#34;Bold&amp;#34;,&amp;#34;e&amp;#34;:21},{&amp;#34;s&amp;#34;:0,&amp;#34;n&amp;#34;:&amp;#34;fid&amp;#34;,&amp;#34;v&amp;#34;:1706,&amp;#34;e&amp;#34;:21},{&amp;#34;s&amp;#34;:0,&amp;#34;n&amp;#34;:&amp;#34;s&amp;#34;,&amp;#34;v&amp;#34;:22.222222222222218,&amp;#34;e&amp;#34;:21}]}&quot;&gt;&lt;span style=&quot;font-weight: bold ; color: rgb(58 , 65 , 74) ; font-size: 16.6667px&quot;&gt;score += 50&lt;/span&gt;&lt;/span&gt;" style="rounded=1;whiteSpace=wrap;html=1;absoluteArcSize=1;arcSize=14;strokeWidth=2;fillColor=#dae8fc;strokeColor=#6c8ebf;labelBackgroundColor=none;labelBorderColor=none;fontFamily=Helvetica;fontSize=14;fontColor=default;" parent="1" vertex="1">
          <mxGeometry x="-1068" y="1333" width="176" height="60" as="geometry" />
        </mxCell>
        <mxCell id="kU6Kl2C4q1-UE2_zCOD4-24" value="&lt;span data-lucid-type=&quot;application/vnd.lucid.text&quot; data-lucid-content=&quot;{&amp;#34;t&amp;#34;:&amp;#34;set starting_poin = 0&amp;#34;,&amp;#34;m&amp;#34;:[{&amp;#34;s&amp;#34;:0,&amp;#34;n&amp;#34;:&amp;#34;a&amp;#34;,&amp;#34;v&amp;#34;:&amp;#34;center&amp;#34;},{&amp;#34;s&amp;#34;:0,&amp;#34;n&amp;#34;:&amp;#34;p&amp;#34;,&amp;#34;v&amp;#34;:1.2},{&amp;#34;s&amp;#34;:0,&amp;#34;n&amp;#34;:&amp;#34;b&amp;#34;,&amp;#34;v&amp;#34;:true,&amp;#34;e&amp;#34;:21},{&amp;#34;s&amp;#34;:0,&amp;#34;n&amp;#34;:&amp;#34;c&amp;#34;,&amp;#34;v&amp;#34;:&amp;#34;3a414aff&amp;#34;,&amp;#34;e&amp;#34;:21},{&amp;#34;s&amp;#34;:0,&amp;#34;n&amp;#34;:&amp;#34;f&amp;#34;,&amp;#34;v&amp;#34;:&amp;#34;Orbitron&amp;#34;,&amp;#34;e&amp;#34;:21},{&amp;#34;s&amp;#34;:0,&amp;#34;n&amp;#34;:&amp;#34;fc&amp;#34;,&amp;#34;v&amp;#34;:&amp;#34;Bold&amp;#34;,&amp;#34;e&amp;#34;:21},{&amp;#34;s&amp;#34;:0,&amp;#34;n&amp;#34;:&amp;#34;fid&amp;#34;,&amp;#34;v&amp;#34;:1706,&amp;#34;e&amp;#34;:21},{&amp;#34;s&amp;#34;:0,&amp;#34;n&amp;#34;:&amp;#34;s&amp;#34;,&amp;#34;v&amp;#34;:22.222222222222218,&amp;#34;e&amp;#34;:21}]}&quot;&gt;&lt;span style=&quot;font-weight: bold ; color: rgb(58 , 65 , 74) ; font-size: 16.6667px&quot;&gt;score += 100&lt;/span&gt;&lt;/span&gt;" style="rounded=1;whiteSpace=wrap;html=1;absoluteArcSize=1;arcSize=14;strokeWidth=2;fillColor=#dae8fc;strokeColor=#6c8ebf;labelBackgroundColor=none;labelBorderColor=none;fontFamily=Helvetica;fontSize=14;fontColor=default;" parent="1" vertex="1">
          <mxGeometry x="-1968" y="552" width="176" height="60" as="geometry" />
        </mxCell>
        <mxCell id="kU6Kl2C4q1-UE2_zCOD4-28" value="" style="edgeStyle=orthogonalEdgeStyle;shape=connector;rounded=0;sketch=0;orthogonalLoop=1;jettySize=auto;html=1;shadow=1;labelBackgroundColor=default;labelBorderColor=default;fontFamily=Helvetica;fontSize=14;fontColor=default;endArrow=classic;strokeColor=default;strokeWidth=2;fillColor=default;gradientColor=none;" parent="1" source="kU6Kl2C4q1-UE2_zCOD4-26" target="rkklXjg4t9wE1NNCopI7-1" edge="1">
          <mxGeometry relative="1" as="geometry">
            <mxPoint x="380" y="561" as="targetPoint" />
          </mxGeometry>
        </mxCell>
        <mxCell id="kU6Kl2C4q1-UE2_zCOD4-26" value="&lt;span data-lucid-type=&quot;application/vnd.lucid.text&quot; data-lucid-content=&quot;{&amp;#34;t&amp;#34;:&amp;#34;set starting_poin = 0&amp;#34;,&amp;#34;m&amp;#34;:[{&amp;#34;s&amp;#34;:0,&amp;#34;n&amp;#34;:&amp;#34;a&amp;#34;,&amp;#34;v&amp;#34;:&amp;#34;center&amp;#34;},{&amp;#34;s&amp;#34;:0,&amp;#34;n&amp;#34;:&amp;#34;p&amp;#34;,&amp;#34;v&amp;#34;:1.2},{&amp;#34;s&amp;#34;:0,&amp;#34;n&amp;#34;:&amp;#34;b&amp;#34;,&amp;#34;v&amp;#34;:true,&amp;#34;e&amp;#34;:21},{&amp;#34;s&amp;#34;:0,&amp;#34;n&amp;#34;:&amp;#34;c&amp;#34;,&amp;#34;v&amp;#34;:&amp;#34;3a414aff&amp;#34;,&amp;#34;e&amp;#34;:21},{&amp;#34;s&amp;#34;:0,&amp;#34;n&amp;#34;:&amp;#34;f&amp;#34;,&amp;#34;v&amp;#34;:&amp;#34;Orbitron&amp;#34;,&amp;#34;e&amp;#34;:21},{&amp;#34;s&amp;#34;:0,&amp;#34;n&amp;#34;:&amp;#34;fc&amp;#34;,&amp;#34;v&amp;#34;:&amp;#34;Bold&amp;#34;,&amp;#34;e&amp;#34;:21},{&amp;#34;s&amp;#34;:0,&amp;#34;n&amp;#34;:&amp;#34;fid&amp;#34;,&amp;#34;v&amp;#34;:1706,&amp;#34;e&amp;#34;:21},{&amp;#34;s&amp;#34;:0,&amp;#34;n&amp;#34;:&amp;#34;s&amp;#34;,&amp;#34;v&amp;#34;:22.222222222222218,&amp;#34;e&amp;#34;:21}]}&quot;&gt;&lt;span style=&quot;font-weight: bold ; color: rgb(58 , 65 , 74) ; font-size: 16.6667px&quot;&gt;score = check_file()&lt;/span&gt;&lt;/span&gt;" style="rounded=1;whiteSpace=wrap;html=1;absoluteArcSize=1;arcSize=14;strokeWidth=2;fillColor=#dae8fc;strokeColor=#6c8ebf;labelBackgroundColor=none;labelBorderColor=none;fontFamily=Helvetica;fontSize=14;fontColor=default;" parent="1" vertex="1">
          <mxGeometry x="292" y="456" width="176" height="60" as="geometry" />
        </mxCell>
        <mxCell id="rkklXjg4t9wE1NNCopI7-1" value="&lt;span data-lucid-type=&quot;application/vnd.lucid.text&quot; data-lucid-content=&quot;{&amp;#34;t&amp;#34;:&amp;#34;set starting_poin = 0&amp;#34;,&amp;#34;m&amp;#34;:[{&amp;#34;s&amp;#34;:0,&amp;#34;n&amp;#34;:&amp;#34;a&amp;#34;,&amp;#34;v&amp;#34;:&amp;#34;center&amp;#34;},{&amp;#34;s&amp;#34;:0,&amp;#34;n&amp;#34;:&amp;#34;p&amp;#34;,&amp;#34;v&amp;#34;:1.2},{&amp;#34;s&amp;#34;:0,&amp;#34;n&amp;#34;:&amp;#34;b&amp;#34;,&amp;#34;v&amp;#34;:true,&amp;#34;e&amp;#34;:21},{&amp;#34;s&amp;#34;:0,&amp;#34;n&amp;#34;:&amp;#34;c&amp;#34;,&amp;#34;v&amp;#34;:&amp;#34;3a414aff&amp;#34;,&amp;#34;e&amp;#34;:21},{&amp;#34;s&amp;#34;:0,&amp;#34;n&amp;#34;:&amp;#34;f&amp;#34;,&amp;#34;v&amp;#34;:&amp;#34;Orbitron&amp;#34;,&amp;#34;e&amp;#34;:21},{&amp;#34;s&amp;#34;:0,&amp;#34;n&amp;#34;:&amp;#34;fc&amp;#34;,&amp;#34;v&amp;#34;:&amp;#34;Bold&amp;#34;,&amp;#34;e&amp;#34;:21},{&amp;#34;s&amp;#34;:0,&amp;#34;n&amp;#34;:&amp;#34;fid&amp;#34;,&amp;#34;v&amp;#34;:1706,&amp;#34;e&amp;#34;:21},{&amp;#34;s&amp;#34;:0,&amp;#34;n&amp;#34;:&amp;#34;s&amp;#34;,&amp;#34;v&amp;#34;:22.222222222222218,&amp;#34;e&amp;#34;:21}]}&quot;&gt;&lt;span style=&quot;font-weight: bold ; color: rgb(58 , 65 , 74) ; font-size: 16.6667px&quot;&gt;call rpc_logic()&lt;/span&gt;&lt;/span&gt;" style="rounded=1;whiteSpace=wrap;html=1;absoluteArcSize=1;arcSize=14;strokeWidth=2;fillColor=#dae8fc;strokeColor=#6c8ebf;labelBackgroundColor=none;labelBorderColor=none;fontFamily=Helvetica;fontSize=14;fontColor=default;" parent="1" vertex="1">
          <mxGeometry x="292" y="563" width="176" height="60" as="geometry" />
        </mxCell>
        <mxCell id="nzFtdgMQ5nwZeQu9WLnp-5" value="Yes" style="edgeStyle=elbowEdgeStyle;shape=connector;rounded=0;sketch=0;orthogonalLoop=1;jettySize=auto;html=1;shadow=1;labelBackgroundColor=default;labelBorderColor=default;fontFamily=Helvetica;fontSize=14;fontColor=default;endArrow=classic;strokeColor=default;strokeWidth=2;fillColor=default;gradientColor=none;fontStyle=1" edge="1" parent="1" source="nzFtdgMQ5nwZeQu9WLnp-1" target="nzFtdgMQ5nwZeQu9WLnp-4">
          <mxGeometry relative="1" as="geometry" />
        </mxCell>
        <mxCell id="nzFtdgMQ5nwZeQu9WLnp-10" style="shape=connector;rounded=0;sketch=0;orthogonalLoop=1;jettySize=auto;elbow=vertical;html=1;shadow=1;labelBackgroundColor=default;labelBorderColor=default;fontFamily=Helvetica;fontSize=14;fontColor=default;endArrow=classic;strokeColor=default;strokeWidth=2;fillColor=default;gradientColor=none;exitX=0;exitY=0.5;exitDx=0;exitDy=0;exitPerimeter=0;entryX=1;entryY=0.5;entryDx=0;entryDy=0;" edge="1" parent="1" source="nzFtdgMQ5nwZeQu9WLnp-1" target="nzFtdgMQ5nwZeQu9WLnp-47">
          <mxGeometry relative="1" as="geometry">
            <mxPoint x="-424" y="517" as="targetPoint" />
          </mxGeometry>
        </mxCell>
        <mxCell id="nzFtdgMQ5nwZeQu9WLnp-12" value="NO" style="edgeLabel;html=1;align=center;verticalAlign=middle;resizable=0;points=[];fontSize=14;fontFamily=Helvetica;fontColor=default;fontStyle=1;labelBorderColor=default;" vertex="1" connectable="0" parent="nzFtdgMQ5nwZeQu9WLnp-10">
          <mxGeometry x="0.2155" y="2" relative="1" as="geometry">
            <mxPoint as="offset" />
          </mxGeometry>
        </mxCell>
        <mxCell id="nzFtdgMQ5nwZeQu9WLnp-1" value="&lt;font color=&quot;#3a414a&quot;&gt;&lt;span style=&quot;font-size: 16.6667px&quot;&gt;&lt;b&gt;if &lt;br&gt;input == &#39;&#39;&lt;/b&gt;&lt;/span&gt;&lt;/font&gt;" style="strokeWidth=2;html=1;shape=mxgraph.flowchart.decision;shadow=1;sketch=0;fontFamily=Helvetica;fontSize=11;verticalAlign=middle;labelPosition=center;verticalLabelPosition=middle;align=center;labelBackgroundColor=none;labelBorderColor=none;whiteSpace=wrap;spacing=0;spacingTop=0;spacingLeft=24;spacingRight=24;spacingBottom=10;fillColor=#fad7ac;strokeColor=#b46504;" vertex="1" parent="1">
          <mxGeometry x="-95" y="405" width="124" height="107" as="geometry" />
        </mxCell>
        <mxCell id="nzFtdgMQ5nwZeQu9WLnp-7" value="" style="edgeStyle=elbowEdgeStyle;shape=connector;rounded=0;sketch=0;orthogonalLoop=1;jettySize=auto;html=1;shadow=1;labelBackgroundColor=default;labelBorderColor=default;fontFamily=Helvetica;fontSize=14;fontColor=default;endArrow=classic;strokeColor=default;strokeWidth=2;fillColor=default;gradientColor=none;" edge="1" parent="1" source="nzFtdgMQ5nwZeQu9WLnp-4" target="nzFtdgMQ5nwZeQu9WLnp-6">
          <mxGeometry relative="1" as="geometry" />
        </mxCell>
        <mxCell id="nzFtdgMQ5nwZeQu9WLnp-4" value="&lt;span data-lucid-type=&quot;application/vnd.lucid.text&quot; data-lucid-content=&quot;{&amp;#34;t&amp;#34;:&amp;#34;print(&#39;Hello {name}&#39;)&amp;#34;,&amp;#34;m&amp;#34;:[{&amp;#34;s&amp;#34;:0,&amp;#34;n&amp;#34;:&amp;#34;a&amp;#34;,&amp;#34;v&amp;#34;:&amp;#34;center&amp;#34;},{&amp;#34;s&amp;#34;:0,&amp;#34;n&amp;#34;:&amp;#34;f&amp;#34;,&amp;#34;v&amp;#34;:&amp;#34;Orbitron&amp;#34;,&amp;#34;e&amp;#34;:21},{&amp;#34;s&amp;#34;:0,&amp;#34;n&amp;#34;:&amp;#34;fc&amp;#34;,&amp;#34;v&amp;#34;:&amp;#34;Bold&amp;#34;,&amp;#34;e&amp;#34;:21},{&amp;#34;s&amp;#34;:0,&amp;#34;n&amp;#34;:&amp;#34;fid&amp;#34;,&amp;#34;v&amp;#34;:1706,&amp;#34;e&amp;#34;:21},{&amp;#34;s&amp;#34;:0,&amp;#34;n&amp;#34;:&amp;#34;b&amp;#34;,&amp;#34;v&amp;#34;:true,&amp;#34;e&amp;#34;:21},{&amp;#34;s&amp;#34;:0,&amp;#34;n&amp;#34;:&amp;#34;s&amp;#34;,&amp;#34;v&amp;#34;:22.222222222222218,&amp;#34;e&amp;#34;:21},{&amp;#34;s&amp;#34;:0,&amp;#34;n&amp;#34;:&amp;#34;c&amp;#34;,&amp;#34;v&amp;#34;:&amp;#34;3a414aff&amp;#34;,&amp;#34;e&amp;#34;:21}]}&quot;&gt;&lt;span style=&quot;font-weight: bold ; font-size: 16.6667px ; color: rgb(58 , 65 , 74)&quot;&gt;print(&#39;Okay, let&#39;s start&#39;)&lt;/span&gt;&lt;/span&gt;" style="shape=parallelogram;html=1;strokeWidth=2;perimeter=parallelogramPerimeter;whiteSpace=wrap;rounded=1;arcSize=12;size=0.23;labelBackgroundColor=none;labelBorderColor=none;comic=0;fontFamily=Helvetica;fontSize=12;fillColor=#dae8fc;strokeColor=#6c8ebf;fontColor=default;spacingRight=9;" vertex="1" parent="1">
          <mxGeometry x="-153" y="587" width="255" height="40" as="geometry" />
        </mxCell>
        <mxCell id="nzFtdgMQ5nwZeQu9WLnp-8" value="" style="edgeStyle=elbowEdgeStyle;shape=connector;rounded=0;sketch=0;orthogonalLoop=1;jettySize=auto;html=1;shadow=1;labelBackgroundColor=default;labelBorderColor=default;fontFamily=Helvetica;fontSize=14;fontColor=default;endArrow=classic;strokeColor=default;strokeWidth=2;fillColor=default;gradientColor=none;" edge="1" parent="1" source="nzFtdgMQ5nwZeQu9WLnp-6" target="In0JP3tiPYyU7r_qCaVs-1">
          <mxGeometry relative="1" as="geometry" />
        </mxCell>
        <mxCell id="nzFtdgMQ5nwZeQu9WLnp-6" value="&lt;span data-lucid-type=&quot;application/vnd.lucid.text&quot; data-lucid-content=&quot;{&amp;#34;t&amp;#34;:&amp;#34;Read input&amp;#34;,&amp;#34;m&amp;#34;:[{&amp;#34;s&amp;#34;:0,&amp;#34;n&amp;#34;:&amp;#34;a&amp;#34;,&amp;#34;v&amp;#34;:&amp;#34;center&amp;#34;},{&amp;#34;s&amp;#34;:0,&amp;#34;n&amp;#34;:&amp;#34;b&amp;#34;,&amp;#34;v&amp;#34;:true,&amp;#34;e&amp;#34;:10},{&amp;#34;s&amp;#34;:0,&amp;#34;n&amp;#34;:&amp;#34;c&amp;#34;,&amp;#34;v&amp;#34;:&amp;#34;3a414aff&amp;#34;,&amp;#34;e&amp;#34;:10},{&amp;#34;s&amp;#34;:0,&amp;#34;n&amp;#34;:&amp;#34;f&amp;#34;,&amp;#34;v&amp;#34;:&amp;#34;Orbitron&amp;#34;,&amp;#34;e&amp;#34;:10},{&amp;#34;s&amp;#34;:0,&amp;#34;n&amp;#34;:&amp;#34;fc&amp;#34;,&amp;#34;v&amp;#34;:&amp;#34;Bold&amp;#34;,&amp;#34;e&amp;#34;:10},{&amp;#34;s&amp;#34;:0,&amp;#34;n&amp;#34;:&amp;#34;fid&amp;#34;,&amp;#34;v&amp;#34;:1706,&amp;#34;e&amp;#34;:10},{&amp;#34;s&amp;#34;:0,&amp;#34;n&amp;#34;:&amp;#34;s&amp;#34;,&amp;#34;v&amp;#34;:22.222222222222218,&amp;#34;e&amp;#34;:10}]}&quot;&gt;&lt;span style=&quot;font-weight: bold ; color: rgb(58 , 65 , 74) ; font-size: 16.6667px&quot;&gt;Read input&lt;/span&gt;&lt;/span&gt;" style="shape=parallelogram;html=1;strokeWidth=2;perimeter=parallelogramPerimeter;whiteSpace=wrap;rounded=1;arcSize=12;size=0.23;labelBackgroundColor=none;labelBorderColor=none;comic=0;fontFamily=Helvetica;fontSize=12;fillColor=#dae8fc;strokeColor=#6c8ebf;" vertex="1" parent="1">
          <mxGeometry x="-130.75" y="675" width="195.5" height="38" as="geometry" />
        </mxCell>
        <mxCell id="nzFtdgMQ5nwZeQu9WLnp-14" value="" style="edgeStyle=elbowEdgeStyle;shape=connector;rounded=0;sketch=0;orthogonalLoop=1;jettySize=auto;elbow=vertical;html=1;shadow=1;labelBackgroundColor=default;labelBorderColor=default;fontFamily=Helvetica;fontSize=14;fontColor=default;endArrow=classic;strokeColor=default;strokeWidth=2;fillColor=default;gradientColor=none;" edge="1" parent="1" source="nzFtdgMQ5nwZeQu9WLnp-9" target="nzFtdgMQ5nwZeQu9WLnp-13">
          <mxGeometry relative="1" as="geometry" />
        </mxCell>
        <mxCell id="nzFtdgMQ5nwZeQu9WLnp-9" value="&lt;span data-lucid-type=&quot;application/vnd.lucid.text&quot; data-lucid-content=&quot;{&amp;#34;t&amp;#34;:&amp;#34;set starting_poin = 0&amp;#34;,&amp;#34;m&amp;#34;:[{&amp;#34;s&amp;#34;:0,&amp;#34;n&amp;#34;:&amp;#34;a&amp;#34;,&amp;#34;v&amp;#34;:&amp;#34;center&amp;#34;},{&amp;#34;s&amp;#34;:0,&amp;#34;n&amp;#34;:&amp;#34;p&amp;#34;,&amp;#34;v&amp;#34;:1.2},{&amp;#34;s&amp;#34;:0,&amp;#34;n&amp;#34;:&amp;#34;b&amp;#34;,&amp;#34;v&amp;#34;:true,&amp;#34;e&amp;#34;:21},{&amp;#34;s&amp;#34;:0,&amp;#34;n&amp;#34;:&amp;#34;c&amp;#34;,&amp;#34;v&amp;#34;:&amp;#34;3a414aff&amp;#34;,&amp;#34;e&amp;#34;:21},{&amp;#34;s&amp;#34;:0,&amp;#34;n&amp;#34;:&amp;#34;f&amp;#34;,&amp;#34;v&amp;#34;:&amp;#34;Orbitron&amp;#34;,&amp;#34;e&amp;#34;:21},{&amp;#34;s&amp;#34;:0,&amp;#34;n&amp;#34;:&amp;#34;fc&amp;#34;,&amp;#34;v&amp;#34;:&amp;#34;Bold&amp;#34;,&amp;#34;e&amp;#34;:21},{&amp;#34;s&amp;#34;:0,&amp;#34;n&amp;#34;:&amp;#34;fid&amp;#34;,&amp;#34;v&amp;#34;:1706,&amp;#34;e&amp;#34;:21},{&amp;#34;s&amp;#34;:0,&amp;#34;n&amp;#34;:&amp;#34;s&amp;#34;,&amp;#34;v&amp;#34;:22.222222222222218,&amp;#34;e&amp;#34;:21}]}&quot;&gt;&lt;span style=&quot;font-weight: bold ; color: rgb(58 , 65 , 74) ; font-size: 16.6667px&quot;&gt;store user input as list&lt;/span&gt;&lt;/span&gt;" style="rounded=1;whiteSpace=wrap;html=1;absoluteArcSize=1;arcSize=14;strokeWidth=2;fillColor=#dae8fc;strokeColor=#6c8ebf;labelBackgroundColor=none;labelBorderColor=none;fontFamily=Helvetica;fontSize=14;fontColor=default;" vertex="1" parent="1">
          <mxGeometry x="916" y="210" width="176" height="60" as="geometry" />
        </mxCell>
        <mxCell id="nzFtdgMQ5nwZeQu9WLnp-16" value="" style="edgeStyle=elbowEdgeStyle;shape=connector;rounded=0;sketch=0;orthogonalLoop=1;jettySize=auto;elbow=vertical;html=1;shadow=1;labelBackgroundColor=default;labelBorderColor=default;fontFamily=Helvetica;fontSize=14;fontColor=default;endArrow=classic;strokeColor=default;strokeWidth=2;fillColor=default;gradientColor=none;" edge="1" parent="1" source="nzFtdgMQ5nwZeQu9WLnp-13" target="nzFtdgMQ5nwZeQu9WLnp-15">
          <mxGeometry relative="1" as="geometry" />
        </mxCell>
        <mxCell id="nzFtdgMQ5nwZeQu9WLnp-13" value="&lt;span data-lucid-type=&quot;application/vnd.lucid.text&quot; data-lucid-content=&quot;{&amp;#34;t&amp;#34;:&amp;#34;print(&#39;Hello {name}&#39;)&amp;#34;,&amp;#34;m&amp;#34;:[{&amp;#34;s&amp;#34;:0,&amp;#34;n&amp;#34;:&amp;#34;a&amp;#34;,&amp;#34;v&amp;#34;:&amp;#34;center&amp;#34;},{&amp;#34;s&amp;#34;:0,&amp;#34;n&amp;#34;:&amp;#34;f&amp;#34;,&amp;#34;v&amp;#34;:&amp;#34;Orbitron&amp;#34;,&amp;#34;e&amp;#34;:21},{&amp;#34;s&amp;#34;:0,&amp;#34;n&amp;#34;:&amp;#34;fc&amp;#34;,&amp;#34;v&amp;#34;:&amp;#34;Bold&amp;#34;,&amp;#34;e&amp;#34;:21},{&amp;#34;s&amp;#34;:0,&amp;#34;n&amp;#34;:&amp;#34;fid&amp;#34;,&amp;#34;v&amp;#34;:1706,&amp;#34;e&amp;#34;:21},{&amp;#34;s&amp;#34;:0,&amp;#34;n&amp;#34;:&amp;#34;b&amp;#34;,&amp;#34;v&amp;#34;:true,&amp;#34;e&amp;#34;:21},{&amp;#34;s&amp;#34;:0,&amp;#34;n&amp;#34;:&amp;#34;s&amp;#34;,&amp;#34;v&amp;#34;:22.222222222222218,&amp;#34;e&amp;#34;:21},{&amp;#34;s&amp;#34;:0,&amp;#34;n&amp;#34;:&amp;#34;c&amp;#34;,&amp;#34;v&amp;#34;:&amp;#34;3a414aff&amp;#34;,&amp;#34;e&amp;#34;:21}]}&quot;&gt;&lt;span style=&quot;font-weight: bold ; font-size: 16.6667px ; color: rgb(58 , 65 , 74)&quot;&gt;print(&#39;Okay, let&#39;s start&#39;)&lt;/span&gt;&lt;/span&gt;" style="shape=parallelogram;html=1;strokeWidth=2;perimeter=parallelogramPerimeter;whiteSpace=wrap;rounded=1;arcSize=12;size=0.23;labelBackgroundColor=none;labelBorderColor=none;comic=0;fontFamily=Helvetica;fontSize=12;fillColor=#dae8fc;strokeColor=#6c8ebf;fontColor=default;spacingRight=9;" vertex="1" parent="1">
          <mxGeometry x="876.5" y="320" width="255" height="40" as="geometry" />
        </mxCell>
        <mxCell id="nzFtdgMQ5nwZeQu9WLnp-48" value="" style="edgeStyle=none;shape=connector;rounded=0;sketch=0;orthogonalLoop=1;jettySize=auto;html=1;shadow=1;labelBackgroundColor=default;labelBorderColor=default;fontFamily=Helvetica;fontSize=14;fontColor=default;endArrow=classic;strokeColor=default;strokeWidth=2;fillColor=default;gradientColor=none;elbow=vertical;" edge="1" parent="1" source="nzFtdgMQ5nwZeQu9WLnp-15" target="nzFtdgMQ5nwZeQu9WLnp-43">
          <mxGeometry relative="1" as="geometry" />
        </mxCell>
        <mxCell id="nzFtdgMQ5nwZeQu9WLnp-15" value="&lt;span data-lucid-type=&quot;application/vnd.lucid.text&quot; data-lucid-content=&quot;{&amp;#34;t&amp;#34;:&amp;#34;Read input&amp;#34;,&amp;#34;m&amp;#34;:[{&amp;#34;s&amp;#34;:0,&amp;#34;n&amp;#34;:&amp;#34;a&amp;#34;,&amp;#34;v&amp;#34;:&amp;#34;center&amp;#34;},{&amp;#34;s&amp;#34;:0,&amp;#34;n&amp;#34;:&amp;#34;b&amp;#34;,&amp;#34;v&amp;#34;:true,&amp;#34;e&amp;#34;:10},{&amp;#34;s&amp;#34;:0,&amp;#34;n&amp;#34;:&amp;#34;c&amp;#34;,&amp;#34;v&amp;#34;:&amp;#34;3a414aff&amp;#34;,&amp;#34;e&amp;#34;:10},{&amp;#34;s&amp;#34;:0,&amp;#34;n&amp;#34;:&amp;#34;f&amp;#34;,&amp;#34;v&amp;#34;:&amp;#34;Orbitron&amp;#34;,&amp;#34;e&amp;#34;:10},{&amp;#34;s&amp;#34;:0,&amp;#34;n&amp;#34;:&amp;#34;fc&amp;#34;,&amp;#34;v&amp;#34;:&amp;#34;Bold&amp;#34;,&amp;#34;e&amp;#34;:10},{&amp;#34;s&amp;#34;:0,&amp;#34;n&amp;#34;:&amp;#34;fid&amp;#34;,&amp;#34;v&amp;#34;:1706,&amp;#34;e&amp;#34;:10},{&amp;#34;s&amp;#34;:0,&amp;#34;n&amp;#34;:&amp;#34;s&amp;#34;,&amp;#34;v&amp;#34;:22.222222222222218,&amp;#34;e&amp;#34;:10}]}&quot;&gt;&lt;span style=&quot;font-weight: bold ; color: rgb(58 , 65 , 74) ; font-size: 16.6667px&quot;&gt;Read input&lt;/span&gt;&lt;/span&gt;" style="shape=parallelogram;html=1;strokeWidth=2;perimeter=parallelogramPerimeter;whiteSpace=wrap;rounded=1;arcSize=12;size=0.23;labelBackgroundColor=none;labelBorderColor=none;comic=0;fontFamily=Helvetica;fontSize=12;fillColor=#dae8fc;strokeColor=#6c8ebf;" vertex="1" parent="1">
          <mxGeometry x="906.25" y="409" width="195.5" height="38" as="geometry" />
        </mxCell>
        <mxCell id="nzFtdgMQ5nwZeQu9WLnp-39" value="" style="edgeStyle=orthogonalEdgeStyle;shape=connector;rounded=0;sketch=0;orthogonalLoop=1;jettySize=auto;html=1;shadow=1;labelBackgroundColor=default;labelBorderColor=default;fontFamily=Helvetica;fontSize=14;fontColor=default;endArrow=classic;strokeColor=default;strokeWidth=2;fillColor=default;gradientColor=none;elbow=vertical;" edge="1" parent="1" source="nzFtdgMQ5nwZeQu9WLnp-22" target="nzFtdgMQ5nwZeQu9WLnp-37">
          <mxGeometry relative="1" as="geometry" />
        </mxCell>
        <mxCell id="nzFtdgMQ5nwZeQu9WLnp-22" value="&lt;span data-lucid-type=&quot;application/vnd.lucid.text&quot; data-lucid-content=&quot;{&amp;#34;t&amp;#34;:&amp;#34;crate computer_action var &amp;amp; set random.action to it&amp;#34;,&amp;#34;m&amp;#34;:[{&amp;#34;s&amp;#34;:0,&amp;#34;n&amp;#34;:&amp;#34;a&amp;#34;,&amp;#34;v&amp;#34;:&amp;#34;center&amp;#34;},{&amp;#34;s&amp;#34;:0,&amp;#34;n&amp;#34;:&amp;#34;p&amp;#34;,&amp;#34;v&amp;#34;:1.2},{&amp;#34;s&amp;#34;:0,&amp;#34;n&amp;#34;:&amp;#34;b&amp;#34;,&amp;#34;v&amp;#34;:true,&amp;#34;e&amp;#34;:51},{&amp;#34;s&amp;#34;:0,&amp;#34;n&amp;#34;:&amp;#34;c&amp;#34;,&amp;#34;v&amp;#34;:&amp;#34;3a414aff&amp;#34;,&amp;#34;e&amp;#34;:51},{&amp;#34;s&amp;#34;:0,&amp;#34;n&amp;#34;:&amp;#34;f&amp;#34;,&amp;#34;v&amp;#34;:&amp;#34;Orbitron&amp;#34;,&amp;#34;e&amp;#34;:51},{&amp;#34;s&amp;#34;:0,&amp;#34;n&amp;#34;:&amp;#34;fc&amp;#34;,&amp;#34;v&amp;#34;:&amp;#34;Bold&amp;#34;,&amp;#34;e&amp;#34;:51},{&amp;#34;s&amp;#34;:0,&amp;#34;n&amp;#34;:&amp;#34;fid&amp;#34;,&amp;#34;v&amp;#34;:1706,&amp;#34;e&amp;#34;:51},{&amp;#34;s&amp;#34;:0,&amp;#34;n&amp;#34;:&amp;#34;s&amp;#34;,&amp;#34;v&amp;#34;:22.222222222222218,&amp;#34;e&amp;#34;:51},{&amp;#34;s&amp;#34;:32,&amp;#34;n&amp;#34;:&amp;#34;lk&amp;#34;,&amp;#34;v&amp;#34;:[{&amp;#34;tp&amp;#34;:&amp;#34;ext&amp;#34;,&amp;#34;url&amp;#34;:&amp;#34;http://random.action&amp;#34;}],&amp;#34;e&amp;#34;:45}]}&quot;&gt;&lt;span style=&quot;font-weight: bold ; color: rgb(58 , 65 , 74) ; font-size: 16.6667px&quot;&gt;crate computer_action var &amp;amp; set random option from list&lt;/span&gt;&lt;/span&gt;" style="rounded=1;whiteSpace=wrap;html=1;absoluteArcSize=1;arcSize=14;strokeWidth=2;fillColor=#dae8fc;strokeColor=#6c8ebf;" vertex="1" parent="1">
          <mxGeometry x="1255.5" y="67" width="238" height="67" as="geometry" />
        </mxCell>
        <mxCell id="nzFtdgMQ5nwZeQu9WLnp-29" style="edgeStyle=orthogonalEdgeStyle;rounded=0;sketch=0;orthogonalLoop=1;jettySize=auto;html=1;entryX=0.5;entryY=0;entryDx=0;entryDy=0;entryPerimeter=0;shadow=1;labelBackgroundColor=default;labelBorderColor=default;fontFamily=Helvetica;fontSize=14;fontColor=default;endArrow=classic;strokeWidth=2;fillColor=default;gradientColor=none;elbow=vertical;" edge="1" source="nzFtdgMQ5nwZeQu9WLnp-30" target="nzFtdgMQ5nwZeQu9WLnp-32" parent="1">
          <mxGeometry relative="1" as="geometry" />
        </mxCell>
        <mxCell id="nzFtdgMQ5nwZeQu9WLnp-30" value="&lt;span data-lucid-type=&quot;application/vnd.lucid.text&quot; data-lucid-content=&quot;{&amp;#34;t&amp;#34;:&amp;#34;read user_action and computer_action&amp;#34;,&amp;#34;m&amp;#34;:[{&amp;#34;s&amp;#34;:0,&amp;#34;n&amp;#34;:&amp;#34;a&amp;#34;,&amp;#34;v&amp;#34;:&amp;#34;center&amp;#34;},{&amp;#34;s&amp;#34;:0,&amp;#34;n&amp;#34;:&amp;#34;f&amp;#34;,&amp;#34;v&amp;#34;:&amp;#34;Orbitron&amp;#34;,&amp;#34;e&amp;#34;:36},{&amp;#34;s&amp;#34;:0,&amp;#34;n&amp;#34;:&amp;#34;fc&amp;#34;,&amp;#34;v&amp;#34;:&amp;#34;Bold&amp;#34;,&amp;#34;e&amp;#34;:36},{&amp;#34;s&amp;#34;:0,&amp;#34;n&amp;#34;:&amp;#34;fid&amp;#34;,&amp;#34;v&amp;#34;:1706,&amp;#34;e&amp;#34;:36},{&amp;#34;s&amp;#34;:0,&amp;#34;n&amp;#34;:&amp;#34;b&amp;#34;,&amp;#34;v&amp;#34;:true,&amp;#34;e&amp;#34;:36},{&amp;#34;s&amp;#34;:0,&amp;#34;n&amp;#34;:&amp;#34;s&amp;#34;,&amp;#34;v&amp;#34;:22.222222222222218,&amp;#34;e&amp;#34;:36},{&amp;#34;s&amp;#34;:0,&amp;#34;n&amp;#34;:&amp;#34;c&amp;#34;,&amp;#34;v&amp;#34;:&amp;#34;3a414aff&amp;#34;,&amp;#34;e&amp;#34;:36}]}&quot;&gt;&lt;span style=&quot;font-weight: bold ; font-size: 16.6667px ; color: rgb(58 , 65 , 74)&quot;&gt;read user_action and computer_action&lt;/span&gt;&lt;/span&gt;" style="rounded=1;whiteSpace=wrap;html=1;absoluteArcSize=1;arcSize=14;strokeWidth=2;fillColor=#dae8fc;strokeColor=#6c8ebf;shadow=1;labelBackgroundColor=none;labelBorderColor=none;sketch=0;fontFamily=Helvetica;fontSize=14;fontColor=default;" vertex="1" parent="1">
          <mxGeometry x="1273" y="426" width="203" height="79" as="geometry" />
        </mxCell>
        <mxCell id="nzFtdgMQ5nwZeQu9WLnp-31" value="Yes" style="edgeStyle=orthogonalEdgeStyle;rounded=0;sketch=0;orthogonalLoop=1;jettySize=auto;html=1;shadow=1;labelBackgroundColor=default;labelBorderColor=default;fontFamily=Helvetica;fontSize=14;fontColor=default;endArrow=classic;strokeWidth=2;fillColor=default;gradientColor=none;elbow=vertical;fontStyle=1;exitX=0.5;exitY=1;exitDx=0;exitDy=0;exitPerimeter=0;entryX=0.5;entryY=0;entryDx=0;entryDy=0;" edge="1" source="nzFtdgMQ5nwZeQu9WLnp-32" parent="1" target="nzFtdgMQ5nwZeQu9WLnp-35">
          <mxGeometry relative="1" as="geometry">
            <mxPoint x="2263.5" y="820" as="targetPoint" />
          </mxGeometry>
        </mxCell>
        <mxCell id="nzFtdgMQ5nwZeQu9WLnp-63" style="edgeStyle=orthogonalEdgeStyle;shape=connector;rounded=0;sketch=0;orthogonalLoop=1;jettySize=auto;html=1;shadow=1;labelBackgroundColor=default;labelBorderColor=default;fontFamily=Helvetica;fontSize=14;fontColor=default;endArrow=classic;strokeColor=default;strokeWidth=2;fillColor=default;gradientColor=none;elbow=vertical;" edge="1" parent="1" source="nzFtdgMQ5nwZeQu9WLnp-32" target="nzFtdgMQ5nwZeQu9WLnp-62">
          <mxGeometry relative="1" as="geometry" />
        </mxCell>
        <mxCell id="nzFtdgMQ5nwZeQu9WLnp-64" value="No" style="edgeLabel;html=1;align=center;verticalAlign=middle;resizable=0;points=[];fontSize=14;fontFamily=Helvetica;fontColor=default;" vertex="1" connectable="0" parent="nzFtdgMQ5nwZeQu9WLnp-63">
          <mxGeometry x="-0.2277" y="-2" relative="1" as="geometry">
            <mxPoint as="offset" />
          </mxGeometry>
        </mxCell>
        <mxCell id="nzFtdgMQ5nwZeQu9WLnp-32" value="&lt;span data-lucid-type=&quot;application/vnd.lucid.text&quot; data-lucid-content=&quot;{&amp;#34;t&amp;#34;:&amp;#34;if user_action == computer_action&amp;#34;,&amp;#34;m&amp;#34;:[{&amp;#34;s&amp;#34;:0,&amp;#34;n&amp;#34;:&amp;#34;a&amp;#34;,&amp;#34;v&amp;#34;:&amp;#34;center&amp;#34;},{&amp;#34;s&amp;#34;:0,&amp;#34;n&amp;#34;:&amp;#34;p&amp;#34;,&amp;#34;v&amp;#34;:1.2},{&amp;#34;s&amp;#34;:0,&amp;#34;n&amp;#34;:&amp;#34;f&amp;#34;,&amp;#34;v&amp;#34;:&amp;#34;Orbitron&amp;#34;,&amp;#34;e&amp;#34;:33},{&amp;#34;s&amp;#34;:0,&amp;#34;n&amp;#34;:&amp;#34;fc&amp;#34;,&amp;#34;v&amp;#34;:&amp;#34;Bold&amp;#34;,&amp;#34;e&amp;#34;:33},{&amp;#34;s&amp;#34;:0,&amp;#34;n&amp;#34;:&amp;#34;fid&amp;#34;,&amp;#34;v&amp;#34;:1706,&amp;#34;e&amp;#34;:33},{&amp;#34;s&amp;#34;:0,&amp;#34;n&amp;#34;:&amp;#34;b&amp;#34;,&amp;#34;v&amp;#34;:true,&amp;#34;e&amp;#34;:33},{&amp;#34;s&amp;#34;:0,&amp;#34;n&amp;#34;:&amp;#34;s&amp;#34;,&amp;#34;v&amp;#34;:22.222222222222218,&amp;#34;e&amp;#34;:33},{&amp;#34;s&amp;#34;:0,&amp;#34;n&amp;#34;:&amp;#34;c&amp;#34;,&amp;#34;v&amp;#34;:&amp;#34;3a414aff&amp;#34;,&amp;#34;e&amp;#34;:33}]}&quot;&gt;&lt;span style=&quot;font-weight: bold ; font-size: 16.6667px ; color: rgb(58 , 65 , 74)&quot;&gt;if &lt;br&gt;user_action == computer_action&lt;/span&gt;&lt;/span&gt;" style="strokeWidth=2;html=1;shape=mxgraph.flowchart.decision;shadow=1;sketch=0;fontFamily=Helvetica;fontSize=11;verticalAlign=middle;labelPosition=center;verticalLabelPosition=middle;align=center;labelBackgroundColor=none;labelBorderColor=none;whiteSpace=wrap;spacing=0;spacingTop=0;spacingLeft=24;spacingRight=24;spacingBottom=32;fillColor=#fad7ac;strokeColor=#b46504;" vertex="1" parent="1">
          <mxGeometry x="1291.5" y="571" width="166" height="148" as="geometry" />
        </mxCell>
        <mxCell id="nzFtdgMQ5nwZeQu9WLnp-34" value="&lt;span data-lucid-type=&quot;application/vnd.lucid.text&quot; data-lucid-content=&quot;{&amp;#34;t&amp;#34;:&amp;#34;set starting_poin = 0&amp;#34;,&amp;#34;m&amp;#34;:[{&amp;#34;s&amp;#34;:0,&amp;#34;n&amp;#34;:&amp;#34;a&amp;#34;,&amp;#34;v&amp;#34;:&amp;#34;center&amp;#34;},{&amp;#34;s&amp;#34;:0,&amp;#34;n&amp;#34;:&amp;#34;p&amp;#34;,&amp;#34;v&amp;#34;:1.2},{&amp;#34;s&amp;#34;:0,&amp;#34;n&amp;#34;:&amp;#34;b&amp;#34;,&amp;#34;v&amp;#34;:true,&amp;#34;e&amp;#34;:21},{&amp;#34;s&amp;#34;:0,&amp;#34;n&amp;#34;:&amp;#34;c&amp;#34;,&amp;#34;v&amp;#34;:&amp;#34;3a414aff&amp;#34;,&amp;#34;e&amp;#34;:21},{&amp;#34;s&amp;#34;:0,&amp;#34;n&amp;#34;:&amp;#34;f&amp;#34;,&amp;#34;v&amp;#34;:&amp;#34;Orbitron&amp;#34;,&amp;#34;e&amp;#34;:21},{&amp;#34;s&amp;#34;:0,&amp;#34;n&amp;#34;:&amp;#34;fc&amp;#34;,&amp;#34;v&amp;#34;:&amp;#34;Bold&amp;#34;,&amp;#34;e&amp;#34;:21},{&amp;#34;s&amp;#34;:0,&amp;#34;n&amp;#34;:&amp;#34;fid&amp;#34;,&amp;#34;v&amp;#34;:1706,&amp;#34;e&amp;#34;:21},{&amp;#34;s&amp;#34;:0,&amp;#34;n&amp;#34;:&amp;#34;s&amp;#34;,&amp;#34;v&amp;#34;:22.222222222222218,&amp;#34;e&amp;#34;:21}]}&quot;&gt;&lt;span style=&quot;font-weight: bold ; color: rgb(58 , 65 , 74) ; font-size: 16.6667px&quot;&gt;score += 50&lt;/span&gt;&lt;/span&gt;" style="rounded=1;whiteSpace=wrap;html=1;absoluteArcSize=1;arcSize=14;strokeWidth=2;fillColor=#dae8fc;strokeColor=#6c8ebf;labelBackgroundColor=none;labelBorderColor=none;fontFamily=Helvetica;fontSize=14;fontColor=default;" vertex="1" parent="1">
          <mxGeometry x="1282.5" y="935" width="176" height="60" as="geometry" />
        </mxCell>
        <mxCell id="nzFtdgMQ5nwZeQu9WLnp-58" value="" style="edgeStyle=none;shape=connector;rounded=0;sketch=0;orthogonalLoop=1;jettySize=auto;html=1;shadow=1;labelBackgroundColor=default;labelBorderColor=default;fontFamily=Helvetica;fontSize=14;fontColor=default;endArrow=classic;strokeColor=default;strokeWidth=2;fillColor=default;gradientColor=none;elbow=vertical;" edge="1" parent="1" source="nzFtdgMQ5nwZeQu9WLnp-35" target="nzFtdgMQ5nwZeQu9WLnp-34">
          <mxGeometry relative="1" as="geometry" />
        </mxCell>
        <mxCell id="nzFtdgMQ5nwZeQu9WLnp-35" value="&lt;span data-lucid-type=&quot;application/vnd.lucid.text&quot; data-lucid-content=&quot;{&amp;#34;t&amp;#34;:&amp;#34;print(&#39;There is a draw &amp;lt;computer_action&amp;gt;&#39;)&amp;#34;,&amp;#34;m&amp;#34;:[{&amp;#34;s&amp;#34;:0,&amp;#34;n&amp;#34;:&amp;#34;p&amp;#34;,&amp;#34;v&amp;#34;:1.2},{&amp;#34;s&amp;#34;:0,&amp;#34;n&amp;#34;:&amp;#34;a&amp;#34;,&amp;#34;v&amp;#34;:&amp;#34;center&amp;#34;},{&amp;#34;s&amp;#34;:0,&amp;#34;n&amp;#34;:&amp;#34;f&amp;#34;,&amp;#34;v&amp;#34;:&amp;#34;Orbitron&amp;#34;,&amp;#34;e&amp;#34;:7},{&amp;#34;s&amp;#34;:0,&amp;#34;n&amp;#34;:&amp;#34;fc&amp;#34;,&amp;#34;v&amp;#34;:&amp;#34;Bold&amp;#34;,&amp;#34;e&amp;#34;:7},{&amp;#34;s&amp;#34;:0,&amp;#34;n&amp;#34;:&amp;#34;fid&amp;#34;,&amp;#34;v&amp;#34;:1706,&amp;#34;e&amp;#34;:7},{&amp;#34;s&amp;#34;:0,&amp;#34;n&amp;#34;:&amp;#34;b&amp;#34;,&amp;#34;v&amp;#34;:true,&amp;#34;e&amp;#34;:7},{&amp;#34;s&amp;#34;:0,&amp;#34;n&amp;#34;:&amp;#34;s&amp;#34;,&amp;#34;v&amp;#34;:22.222222222222218,&amp;#34;e&amp;#34;:7},{&amp;#34;s&amp;#34;:0,&amp;#34;n&amp;#34;:&amp;#34;c&amp;#34;,&amp;#34;v&amp;#34;:&amp;#34;3a414aff&amp;#34;,&amp;#34;e&amp;#34;:7},{&amp;#34;s&amp;#34;:7,&amp;#34;n&amp;#34;:&amp;#34;c&amp;#34;,&amp;#34;v&amp;#34;:&amp;#34;#3f1888ff&amp;#34;,&amp;#34;e&amp;#34;:42},{&amp;#34;s&amp;#34;:7,&amp;#34;n&amp;#34;:&amp;#34;s&amp;#34;,&amp;#34;v&amp;#34;:18.666666666666668,&amp;#34;e&amp;#34;:42},{&amp;#34;s&amp;#34;:7,&amp;#34;n&amp;#34;:&amp;#34;f&amp;#34;,&amp;#34;v&amp;#34;:&amp;#34;Liberation Mono&amp;#34;,&amp;#34;e&amp;#34;:42}]}&quot;&gt;&lt;span style=&quot;font-weight: bold ; font-size: 16.6667px ; color: rgb(58 , 65 , 74)&quot;&gt;print(&#39;&lt;/span&gt;&lt;span style=&quot;color: rgb(63 , 24 , 136) ; font-size: 14px&quot;&gt;There is a draw &amp;lt;computer_action&amp;gt;&#39;)&lt;/span&gt;&lt;/span&gt;" style="shape=parallelogram;html=1;strokeWidth=2;perimeter=parallelogramPerimeter;whiteSpace=wrap;rounded=1;arcSize=12;size=0.23;labelBackgroundColor=none;labelBorderColor=none;comic=0;fontFamily=Helvetica;fontSize=12;fillColor=#dae8fc;strokeColor=#6c8ebf;shadow=1;sketch=0;fontColor=default;" vertex="1" parent="1">
          <mxGeometry x="1246" y="832" width="253" height="59" as="geometry" />
        </mxCell>
        <mxCell id="nzFtdgMQ5nwZeQu9WLnp-41" value="" style="edgeStyle=orthogonalEdgeStyle;shape=connector;rounded=0;sketch=0;orthogonalLoop=1;jettySize=auto;html=1;shadow=1;labelBackgroundColor=default;labelBorderColor=default;fontFamily=Helvetica;fontSize=14;fontColor=default;endArrow=classic;strokeColor=default;strokeWidth=2;fillColor=default;gradientColor=none;elbow=vertical;" edge="1" parent="1" source="nzFtdgMQ5nwZeQu9WLnp-37" target="nzFtdgMQ5nwZeQu9WLnp-38">
          <mxGeometry relative="1" as="geometry" />
        </mxCell>
        <mxCell id="nzFtdgMQ5nwZeQu9WLnp-37" value="&lt;span data-lucid-type=&quot;application/vnd.lucid.text&quot; data-lucid-content=&quot;{&amp;#34;t&amp;#34;:&amp;#34;set starting_poin = 0&amp;#34;,&amp;#34;m&amp;#34;:[{&amp;#34;s&amp;#34;:0,&amp;#34;n&amp;#34;:&amp;#34;a&amp;#34;,&amp;#34;v&amp;#34;:&amp;#34;center&amp;#34;},{&amp;#34;s&amp;#34;:0,&amp;#34;n&amp;#34;:&amp;#34;p&amp;#34;,&amp;#34;v&amp;#34;:1.2},{&amp;#34;s&amp;#34;:0,&amp;#34;n&amp;#34;:&amp;#34;b&amp;#34;,&amp;#34;v&amp;#34;:true,&amp;#34;e&amp;#34;:21},{&amp;#34;s&amp;#34;:0,&amp;#34;n&amp;#34;:&amp;#34;c&amp;#34;,&amp;#34;v&amp;#34;:&amp;#34;3a414aff&amp;#34;,&amp;#34;e&amp;#34;:21},{&amp;#34;s&amp;#34;:0,&amp;#34;n&amp;#34;:&amp;#34;f&amp;#34;,&amp;#34;v&amp;#34;:&amp;#34;Orbitron&amp;#34;,&amp;#34;e&amp;#34;:21},{&amp;#34;s&amp;#34;:0,&amp;#34;n&amp;#34;:&amp;#34;fc&amp;#34;,&amp;#34;v&amp;#34;:&amp;#34;Bold&amp;#34;,&amp;#34;e&amp;#34;:21},{&amp;#34;s&amp;#34;:0,&amp;#34;n&amp;#34;:&amp;#34;fid&amp;#34;,&amp;#34;v&amp;#34;:1706,&amp;#34;e&amp;#34;:21},{&amp;#34;s&amp;#34;:0,&amp;#34;n&amp;#34;:&amp;#34;s&amp;#34;,&amp;#34;v&amp;#34;:22.222222222222218,&amp;#34;e&amp;#34;:21}]}&quot;&gt;&lt;span style=&quot;font-weight: bold ; color: rgb(58 , 65 , 74) ; font-size: 16.6667px&quot;&gt;crate var wining_list and set first half of list to it&lt;br&gt;&lt;/span&gt;&lt;/span&gt;" style="rounded=1;whiteSpace=wrap;html=1;absoluteArcSize=1;arcSize=14;strokeWidth=2;fillColor=#dae8fc;strokeColor=#6c8ebf;labelBackgroundColor=none;labelBorderColor=none;fontFamily=Helvetica;fontSize=14;fontColor=default;" vertex="1" parent="1">
          <mxGeometry x="1286.5" y="195" width="176" height="60" as="geometry" />
        </mxCell>
        <mxCell id="nzFtdgMQ5nwZeQu9WLnp-42" value="" style="edgeStyle=orthogonalEdgeStyle;shape=connector;rounded=0;sketch=0;orthogonalLoop=1;jettySize=auto;html=1;shadow=1;labelBackgroundColor=default;labelBorderColor=default;fontFamily=Helvetica;fontSize=14;fontColor=default;endArrow=classic;strokeColor=default;strokeWidth=2;fillColor=default;gradientColor=none;elbow=vertical;" edge="1" parent="1" source="nzFtdgMQ5nwZeQu9WLnp-38" target="nzFtdgMQ5nwZeQu9WLnp-30">
          <mxGeometry relative="1" as="geometry" />
        </mxCell>
        <mxCell id="nzFtdgMQ5nwZeQu9WLnp-38" value="&lt;span data-lucid-type=&quot;application/vnd.lucid.text&quot; data-lucid-content=&quot;{&amp;#34;t&amp;#34;:&amp;#34;set starting_poin = 0&amp;#34;,&amp;#34;m&amp;#34;:[{&amp;#34;s&amp;#34;:0,&amp;#34;n&amp;#34;:&amp;#34;a&amp;#34;,&amp;#34;v&amp;#34;:&amp;#34;center&amp;#34;},{&amp;#34;s&amp;#34;:0,&amp;#34;n&amp;#34;:&amp;#34;p&amp;#34;,&amp;#34;v&amp;#34;:1.2},{&amp;#34;s&amp;#34;:0,&amp;#34;n&amp;#34;:&amp;#34;b&amp;#34;,&amp;#34;v&amp;#34;:true,&amp;#34;e&amp;#34;:21},{&amp;#34;s&amp;#34;:0,&amp;#34;n&amp;#34;:&amp;#34;c&amp;#34;,&amp;#34;v&amp;#34;:&amp;#34;3a414aff&amp;#34;,&amp;#34;e&amp;#34;:21},{&amp;#34;s&amp;#34;:0,&amp;#34;n&amp;#34;:&amp;#34;f&amp;#34;,&amp;#34;v&amp;#34;:&amp;#34;Orbitron&amp;#34;,&amp;#34;e&amp;#34;:21},{&amp;#34;s&amp;#34;:0,&amp;#34;n&amp;#34;:&amp;#34;fc&amp;#34;,&amp;#34;v&amp;#34;:&amp;#34;Bold&amp;#34;,&amp;#34;e&amp;#34;:21},{&amp;#34;s&amp;#34;:0,&amp;#34;n&amp;#34;:&amp;#34;fid&amp;#34;,&amp;#34;v&amp;#34;:1706,&amp;#34;e&amp;#34;:21},{&amp;#34;s&amp;#34;:0,&amp;#34;n&amp;#34;:&amp;#34;s&amp;#34;,&amp;#34;v&amp;#34;:22.222222222222218,&amp;#34;e&amp;#34;:21}]}&quot;&gt;&lt;span style=&quot;font-weight: bold ; color: rgb(58 , 65 , 74) ; font-size: 16.6667px&quot;&gt;crate var loosing_list and set second half of list to it&lt;br&gt;&lt;/span&gt;&lt;/span&gt;" style="rounded=1;whiteSpace=wrap;html=1;absoluteArcSize=1;arcSize=14;strokeWidth=2;fillColor=#dae8fc;strokeColor=#6c8ebf;labelBackgroundColor=none;labelBorderColor=none;fontFamily=Helvetica;fontSize=14;fontColor=default;" vertex="1" parent="1">
          <mxGeometry x="1287" y="291" width="176" height="60" as="geometry" />
        </mxCell>
        <mxCell id="nzFtdgMQ5nwZeQu9WLnp-51" value="" style="shape=connector;rounded=0;sketch=0;orthogonalLoop=1;jettySize=auto;html=1;shadow=1;labelBackgroundColor=default;labelBorderColor=default;fontFamily=Helvetica;fontSize=14;fontColor=default;endArrow=classic;strokeColor=default;strokeWidth=2;fillColor=default;gradientColor=none;elbow=vertical;" edge="1" parent="1" source="nzFtdgMQ5nwZeQu9WLnp-43" target="nzFtdgMQ5nwZeQu9WLnp-50">
          <mxGeometry relative="1" as="geometry" />
        </mxCell>
        <mxCell id="nzFtdgMQ5nwZeQu9WLnp-43" value="&lt;span data-lucid-type=&quot;application/vnd.lucid.text&quot; data-lucid-content=&quot;{&amp;#34;t&amp;#34;:&amp;#34;set starting_poin = 0&amp;#34;,&amp;#34;m&amp;#34;:[{&amp;#34;s&amp;#34;:0,&amp;#34;n&amp;#34;:&amp;#34;a&amp;#34;,&amp;#34;v&amp;#34;:&amp;#34;center&amp;#34;},{&amp;#34;s&amp;#34;:0,&amp;#34;n&amp;#34;:&amp;#34;p&amp;#34;,&amp;#34;v&amp;#34;:1.2},{&amp;#34;s&amp;#34;:0,&amp;#34;n&amp;#34;:&amp;#34;b&amp;#34;,&amp;#34;v&amp;#34;:true,&amp;#34;e&amp;#34;:21},{&amp;#34;s&amp;#34;:0,&amp;#34;n&amp;#34;:&amp;#34;c&amp;#34;,&amp;#34;v&amp;#34;:&amp;#34;3a414aff&amp;#34;,&amp;#34;e&amp;#34;:21},{&amp;#34;s&amp;#34;:0,&amp;#34;n&amp;#34;:&amp;#34;f&amp;#34;,&amp;#34;v&amp;#34;:&amp;#34;Orbitron&amp;#34;,&amp;#34;e&amp;#34;:21},{&amp;#34;s&amp;#34;:0,&amp;#34;n&amp;#34;:&amp;#34;fc&amp;#34;,&amp;#34;v&amp;#34;:&amp;#34;Bold&amp;#34;,&amp;#34;e&amp;#34;:21},{&amp;#34;s&amp;#34;:0,&amp;#34;n&amp;#34;:&amp;#34;fid&amp;#34;,&amp;#34;v&amp;#34;:1706,&amp;#34;e&amp;#34;:21},{&amp;#34;s&amp;#34;:0,&amp;#34;n&amp;#34;:&amp;#34;s&amp;#34;,&amp;#34;v&amp;#34;:22.222222222222218,&amp;#34;e&amp;#34;:21}]}&quot;&gt;&lt;span style=&quot;font-weight: bold ; color: rgb(58 , 65 , 74) ; font-size: 16.6667px&quot;&gt;set input as user_action var&lt;/span&gt;&lt;/span&gt;" style="rounded=1;whiteSpace=wrap;html=1;absoluteArcSize=1;arcSize=14;strokeWidth=2;fillColor=#dae8fc;strokeColor=#6c8ebf;labelBackgroundColor=none;labelBorderColor=none;fontFamily=Helvetica;fontSize=14;fontColor=default;" vertex="1" parent="1">
          <mxGeometry x="926.5" y="496" width="155" height="44" as="geometry" />
        </mxCell>
        <mxCell id="nzFtdgMQ5nwZeQu9WLnp-49" value="" style="edgeStyle=none;shape=connector;rounded=0;sketch=0;orthogonalLoop=1;jettySize=auto;html=1;shadow=1;labelBackgroundColor=default;labelBorderColor=default;fontFamily=Helvetica;fontSize=14;fontColor=default;endArrow=classic;strokeColor=default;strokeWidth=2;fillColor=default;gradientColor=none;elbow=vertical;" edge="1" parent="1" source="nzFtdgMQ5nwZeQu9WLnp-46" target="nzFtdgMQ5nwZeQu9WLnp-9">
          <mxGeometry relative="1" as="geometry" />
        </mxCell>
        <mxCell id="nzFtdgMQ5nwZeQu9WLnp-46" value="&lt;span data-lucid-type=&quot;application/vnd.lucid.text&quot; data-lucid-content=&quot;{&amp;#34;t&amp;#34;:&amp;#34;def check_user_action()&amp;#34;,&amp;#34;m&amp;#34;:[{&amp;#34;s&amp;#34;:0,&amp;#34;n&amp;#34;:&amp;#34;a&amp;#34;,&amp;#34;v&amp;#34;:&amp;#34;center&amp;#34;},{&amp;#34;s&amp;#34;:0,&amp;#34;n&amp;#34;:&amp;#34;b&amp;#34;,&amp;#34;v&amp;#34;:true,&amp;#34;e&amp;#34;:23},{&amp;#34;s&amp;#34;:0,&amp;#34;n&amp;#34;:&amp;#34;c&amp;#34;,&amp;#34;v&amp;#34;:&amp;#34;3a414aff&amp;#34;,&amp;#34;e&amp;#34;:23},{&amp;#34;s&amp;#34;:0,&amp;#34;n&amp;#34;:&amp;#34;f&amp;#34;,&amp;#34;v&amp;#34;:&amp;#34;Orbitron&amp;#34;,&amp;#34;e&amp;#34;:23},{&amp;#34;s&amp;#34;:0,&amp;#34;n&amp;#34;:&amp;#34;fc&amp;#34;,&amp;#34;v&amp;#34;:&amp;#34;Bold&amp;#34;,&amp;#34;e&amp;#34;:23},{&amp;#34;s&amp;#34;:0,&amp;#34;n&amp;#34;:&amp;#34;fid&amp;#34;,&amp;#34;v&amp;#34;:1706,&amp;#34;e&amp;#34;:23},{&amp;#34;s&amp;#34;:0,&amp;#34;n&amp;#34;:&amp;#34;s&amp;#34;,&amp;#34;v&amp;#34;:22.222222222222218,&amp;#34;e&amp;#34;:23}]}&quot;&gt;&lt;span style=&quot;font-weight: bold ; color: rgb(58 , 65 , 74) ; font-size: 16.6667px&quot;&gt;def&lt;br&gt;arpc_logic(user_input)&lt;/span&gt;&lt;/span&gt;" style="verticalLabelPosition=middle;verticalAlign=middle;html=1;shape=process;whiteSpace=wrap;rounded=1;size=0.14;arcSize=6;labelPosition=center;align=center;fillColor=#e1d5e7;strokeColor=#9673a6;" vertex="1" parent="1">
          <mxGeometry x="905" y="73" width="198" height="72" as="geometry" />
        </mxCell>
        <mxCell id="nzFtdgMQ5nwZeQu9WLnp-47" value="&lt;span data-lucid-type=&quot;application/vnd.lucid.text&quot; data-lucid-content=&quot;{&amp;#34;t&amp;#34;:&amp;#34;set starting_poin = 0&amp;#34;,&amp;#34;m&amp;#34;:[{&amp;#34;s&amp;#34;:0,&amp;#34;n&amp;#34;:&amp;#34;a&amp;#34;,&amp;#34;v&amp;#34;:&amp;#34;center&amp;#34;},{&amp;#34;s&amp;#34;:0,&amp;#34;n&amp;#34;:&amp;#34;p&amp;#34;,&amp;#34;v&amp;#34;:1.2},{&amp;#34;s&amp;#34;:0,&amp;#34;n&amp;#34;:&amp;#34;b&amp;#34;,&amp;#34;v&amp;#34;:true,&amp;#34;e&amp;#34;:21},{&amp;#34;s&amp;#34;:0,&amp;#34;n&amp;#34;:&amp;#34;c&amp;#34;,&amp;#34;v&amp;#34;:&amp;#34;3a414aff&amp;#34;,&amp;#34;e&amp;#34;:21},{&amp;#34;s&amp;#34;:0,&amp;#34;n&amp;#34;:&amp;#34;f&amp;#34;,&amp;#34;v&amp;#34;:&amp;#34;Orbitron&amp;#34;,&amp;#34;e&amp;#34;:21},{&amp;#34;s&amp;#34;:0,&amp;#34;n&amp;#34;:&amp;#34;fc&amp;#34;,&amp;#34;v&amp;#34;:&amp;#34;Bold&amp;#34;,&amp;#34;e&amp;#34;:21},{&amp;#34;s&amp;#34;:0,&amp;#34;n&amp;#34;:&amp;#34;fid&amp;#34;,&amp;#34;v&amp;#34;:1706,&amp;#34;e&amp;#34;:21},{&amp;#34;s&amp;#34;:0,&amp;#34;n&amp;#34;:&amp;#34;s&amp;#34;,&amp;#34;v&amp;#34;:22.222222222222218,&amp;#34;e&amp;#34;:21}]}&quot;&gt;&lt;span style=&quot;font-weight: bold ; color: rgb(58 , 65 , 74) ; font-size: 16.6667px&quot;&gt;call arpc_logic(input=user_input)&lt;/span&gt;&lt;/span&gt;" style="rounded=1;whiteSpace=wrap;html=1;absoluteArcSize=1;arcSize=14;strokeWidth=2;fillColor=#dae8fc;strokeColor=#6c8ebf;labelBackgroundColor=none;labelBorderColor=none;fontFamily=Helvetica;fontSize=14;fontColor=default;" vertex="1" parent="1">
          <mxGeometry x="-481" y="421" width="245" height="75.5" as="geometry" />
        </mxCell>
        <mxCell id="nzFtdgMQ5nwZeQu9WLnp-53" style="edgeStyle=orthogonalEdgeStyle;shape=connector;rounded=0;sketch=0;orthogonalLoop=1;jettySize=auto;html=1;entryX=0.5;entryY=1;entryDx=0;entryDy=0;shadow=1;labelBackgroundColor=default;labelBorderColor=default;fontFamily=Helvetica;fontSize=14;fontColor=default;endArrow=classic;strokeColor=default;strokeWidth=2;fillColor=default;gradientColor=none;elbow=vertical;" edge="1" parent="1" source="nzFtdgMQ5nwZeQu9WLnp-50" target="nzFtdgMQ5nwZeQu9WLnp-52">
          <mxGeometry relative="1" as="geometry" />
        </mxCell>
        <mxCell id="nzFtdgMQ5nwZeQu9WLnp-54" value="NO" style="edgeLabel;html=1;align=center;verticalAlign=middle;resizable=0;points=[];fontSize=14;fontFamily=Helvetica;fontColor=default;fontStyle=1;labelBorderColor=default;" vertex="1" connectable="0" parent="nzFtdgMQ5nwZeQu9WLnp-53">
          <mxGeometry x="-0.5648" y="4" relative="1" as="geometry">
            <mxPoint as="offset" />
          </mxGeometry>
        </mxCell>
        <mxCell id="nzFtdgMQ5nwZeQu9WLnp-59" style="edgeStyle=orthogonalEdgeStyle;shape=connector;rounded=0;sketch=0;orthogonalLoop=1;jettySize=auto;html=1;entryX=0;entryY=0.5;entryDx=0;entryDy=0;shadow=1;labelBackgroundColor=default;labelBorderColor=default;fontFamily=Helvetica;fontSize=14;fontColor=default;endArrow=classic;strokeColor=default;strokeWidth=2;fillColor=default;gradientColor=none;elbow=vertical;" edge="1" parent="1" source="nzFtdgMQ5nwZeQu9WLnp-50" target="nzFtdgMQ5nwZeQu9WLnp-22">
          <mxGeometry relative="1" as="geometry" />
        </mxCell>
        <mxCell id="nzFtdgMQ5nwZeQu9WLnp-60" value="Yes" style="edgeLabel;html=1;align=center;verticalAlign=middle;resizable=0;points=[];fontSize=14;fontFamily=Helvetica;fontColor=default;" vertex="1" connectable="0" parent="nzFtdgMQ5nwZeQu9WLnp-59">
          <mxGeometry x="-0.4049" relative="1" as="geometry">
            <mxPoint as="offset" />
          </mxGeometry>
        </mxCell>
        <mxCell id="nzFtdgMQ5nwZeQu9WLnp-50" value="&lt;span data-lucid-type=&quot;application/vnd.lucid.text&quot; data-lucid-content=&quot;{&amp;#34;t&amp;#34;:&amp;#34;if user_action == &#39;!exit&#39;&amp;#34;,&amp;#34;m&amp;#34;:[{&amp;#34;s&amp;#34;:0,&amp;#34;n&amp;#34;:&amp;#34;a&amp;#34;,&amp;#34;v&amp;#34;:&amp;#34;center&amp;#34;},{&amp;#34;s&amp;#34;:0,&amp;#34;n&amp;#34;:&amp;#34;f&amp;#34;,&amp;#34;v&amp;#34;:&amp;#34;Orbitron&amp;#34;,&amp;#34;e&amp;#34;:25},{&amp;#34;s&amp;#34;:0,&amp;#34;n&amp;#34;:&amp;#34;fc&amp;#34;,&amp;#34;v&amp;#34;:&amp;#34;Bold&amp;#34;,&amp;#34;e&amp;#34;:25},{&amp;#34;s&amp;#34;:0,&amp;#34;n&amp;#34;:&amp;#34;fid&amp;#34;,&amp;#34;v&amp;#34;:1706,&amp;#34;e&amp;#34;:25},{&amp;#34;s&amp;#34;:0,&amp;#34;n&amp;#34;:&amp;#34;b&amp;#34;,&amp;#34;v&amp;#34;:true,&amp;#34;e&amp;#34;:25},{&amp;#34;s&amp;#34;:0,&amp;#34;n&amp;#34;:&amp;#34;s&amp;#34;,&amp;#34;v&amp;#34;:22.222222222222218,&amp;#34;e&amp;#34;:25},{&amp;#34;s&amp;#34;:0,&amp;#34;n&amp;#34;:&amp;#34;c&amp;#34;,&amp;#34;v&amp;#34;:&amp;#34;3a414aff&amp;#34;,&amp;#34;e&amp;#34;:25}]}&quot;&gt;&lt;span style=&quot;font-weight: bold ; font-size: 16.6667px ; color: rgb(58 , 65 , 74)&quot;&gt;if&lt;br&gt;input in list&lt;/span&gt;&lt;/span&gt;" style="strokeWidth=2;html=1;shape=mxgraph.flowchart.decision;shadow=1;sketch=0;fontFamily=Helvetica;fontSize=11;verticalAlign=middle;labelPosition=center;verticalLabelPosition=middle;align=center;labelBackgroundColor=none;labelBorderColor=none;whiteSpace=wrap;spacing=0;spacingTop=0;spacingLeft=24;spacingRight=24;spacingBottom=0;fillColor=#fad7ac;strokeColor=#b46504;fontColor=default;" vertex="1" parent="1">
          <mxGeometry x="939" y="595" width="134" height="120" as="geometry" />
        </mxCell>
        <mxCell id="nzFtdgMQ5nwZeQu9WLnp-55" style="edgeStyle=orthogonalEdgeStyle;shape=connector;rounded=0;sketch=0;orthogonalLoop=1;jettySize=auto;html=1;shadow=1;labelBackgroundColor=default;labelBorderColor=default;fontFamily=Helvetica;fontSize=14;fontColor=default;endArrow=classic;strokeColor=default;strokeWidth=2;fillColor=default;gradientColor=none;elbow=vertical;" edge="1" parent="1" source="nzFtdgMQ5nwZeQu9WLnp-52" target="In0JP3tiPYyU7r_qCaVs-9">
          <mxGeometry relative="1" as="geometry">
            <Array as="points">
              <mxPoint x="740" y="65" />
            </Array>
          </mxGeometry>
        </mxCell>
        <mxCell id="nzFtdgMQ5nwZeQu9WLnp-52" value="&lt;span data-lucid-type=&quot;application/vnd.lucid.text&quot; data-lucid-content=&quot;{&amp;#34;t&amp;#34;:&amp;#34;print(&#39;Invalid input&#39;)&amp;#34;,&amp;#34;m&amp;#34;:[{&amp;#34;s&amp;#34;:0,&amp;#34;n&amp;#34;:&amp;#34;a&amp;#34;,&amp;#34;v&amp;#34;:&amp;#34;center&amp;#34;},{&amp;#34;s&amp;#34;:0,&amp;#34;n&amp;#34;:&amp;#34;f&amp;#34;,&amp;#34;v&amp;#34;:&amp;#34;Orbitron&amp;#34;,&amp;#34;e&amp;#34;:22},{&amp;#34;s&amp;#34;:0,&amp;#34;n&amp;#34;:&amp;#34;fc&amp;#34;,&amp;#34;v&amp;#34;:&amp;#34;Bold&amp;#34;,&amp;#34;e&amp;#34;:22},{&amp;#34;s&amp;#34;:0,&amp;#34;n&amp;#34;:&amp;#34;fid&amp;#34;,&amp;#34;v&amp;#34;:1706,&amp;#34;e&amp;#34;:22},{&amp;#34;s&amp;#34;:0,&amp;#34;n&amp;#34;:&amp;#34;b&amp;#34;,&amp;#34;v&amp;#34;:true,&amp;#34;e&amp;#34;:22},{&amp;#34;s&amp;#34;:0,&amp;#34;n&amp;#34;:&amp;#34;s&amp;#34;,&amp;#34;v&amp;#34;:22.222222222222218,&amp;#34;e&amp;#34;:22},{&amp;#34;s&amp;#34;:0,&amp;#34;n&amp;#34;:&amp;#34;c&amp;#34;,&amp;#34;v&amp;#34;:&amp;#34;3a414aff&amp;#34;,&amp;#34;e&amp;#34;:22}]}&quot;&gt;&lt;span style=&quot;font-weight: bold ; font-size: 16.6667px ; color: rgb(58 , 65 , 74)&quot;&gt;print(&#39;Invalid input&#39;)&lt;/span&gt;&lt;/span&gt;" style="shape=parallelogram;html=1;strokeWidth=2;perimeter=parallelogramPerimeter;whiteSpace=wrap;rounded=1;arcSize=12;size=0.23;labelBackgroundColor=none;labelBorderColor=none;comic=0;fontFamily=Helvetica;fontSize=12;fillColor=#dae8fc;strokeColor=#6c8ebf;shadow=1;sketch=0;fontColor=default;" vertex="1" parent="1">
          <mxGeometry x="615" y="217" width="240" height="50" as="geometry" />
        </mxCell>
        <mxCell id="nzFtdgMQ5nwZeQu9WLnp-70" value="Yes" style="edgeStyle=orthogonalEdgeStyle;shape=connector;rounded=0;sketch=0;orthogonalLoop=1;jettySize=auto;html=1;shadow=1;labelBackgroundColor=default;labelBorderColor=default;fontFamily=Helvetica;fontSize=14;fontColor=default;endArrow=classic;strokeColor=default;strokeWidth=2;fillColor=default;gradientColor=none;elbow=vertical;" edge="1" parent="1" source="nzFtdgMQ5nwZeQu9WLnp-62" target="nzFtdgMQ5nwZeQu9WLnp-65">
          <mxGeometry relative="1" as="geometry" />
        </mxCell>
        <mxCell id="nzFtdgMQ5nwZeQu9WLnp-71" value="No" style="edgeStyle=orthogonalEdgeStyle;shape=connector;rounded=0;sketch=0;orthogonalLoop=1;jettySize=auto;html=1;shadow=1;labelBackgroundColor=default;labelBorderColor=default;fontFamily=Helvetica;fontSize=14;fontColor=default;endArrow=classic;strokeColor=default;strokeWidth=2;fillColor=default;gradientColor=none;elbow=vertical;" edge="1" parent="1" source="nzFtdgMQ5nwZeQu9WLnp-62" target="nzFtdgMQ5nwZeQu9WLnp-68">
          <mxGeometry relative="1" as="geometry" />
        </mxCell>
        <mxCell id="nzFtdgMQ5nwZeQu9WLnp-62" value="&lt;span data-lucid-type=&quot;application/vnd.lucid.text&quot; data-lucid-content=&quot;{&amp;#34;t&amp;#34;:&amp;#34;if user_action == computer_action&amp;#34;,&amp;#34;m&amp;#34;:[{&amp;#34;s&amp;#34;:0,&amp;#34;n&amp;#34;:&amp;#34;a&amp;#34;,&amp;#34;v&amp;#34;:&amp;#34;center&amp;#34;},{&amp;#34;s&amp;#34;:0,&amp;#34;n&amp;#34;:&amp;#34;p&amp;#34;,&amp;#34;v&amp;#34;:1.2},{&amp;#34;s&amp;#34;:0,&amp;#34;n&amp;#34;:&amp;#34;f&amp;#34;,&amp;#34;v&amp;#34;:&amp;#34;Orbitron&amp;#34;,&amp;#34;e&amp;#34;:33},{&amp;#34;s&amp;#34;:0,&amp;#34;n&amp;#34;:&amp;#34;fc&amp;#34;,&amp;#34;v&amp;#34;:&amp;#34;Bold&amp;#34;,&amp;#34;e&amp;#34;:33},{&amp;#34;s&amp;#34;:0,&amp;#34;n&amp;#34;:&amp;#34;fid&amp;#34;,&amp;#34;v&amp;#34;:1706,&amp;#34;e&amp;#34;:33},{&amp;#34;s&amp;#34;:0,&amp;#34;n&amp;#34;:&amp;#34;b&amp;#34;,&amp;#34;v&amp;#34;:true,&amp;#34;e&amp;#34;:33},{&amp;#34;s&amp;#34;:0,&amp;#34;n&amp;#34;:&amp;#34;s&amp;#34;,&amp;#34;v&amp;#34;:22.222222222222218,&amp;#34;e&amp;#34;:33},{&amp;#34;s&amp;#34;:0,&amp;#34;n&amp;#34;:&amp;#34;c&amp;#34;,&amp;#34;v&amp;#34;:&amp;#34;3a414aff&amp;#34;,&amp;#34;e&amp;#34;:33}]}&quot;&gt;&lt;span style=&quot;font-weight: bold ; font-size: 16.6667px ; color: rgb(58 , 65 , 74)&quot;&gt;elif&lt;br&gt;computer_action&lt;br&gt;in winning_list&lt;/span&gt;&lt;/span&gt;" style="strokeWidth=2;html=1;shape=mxgraph.flowchart.decision;shadow=1;sketch=0;fontFamily=Helvetica;fontSize=11;verticalAlign=middle;labelPosition=center;verticalLabelPosition=middle;align=center;labelBackgroundColor=none;labelBorderColor=none;whiteSpace=wrap;spacing=0;spacingTop=0;spacingLeft=24;spacingRight=24;spacingBottom=15;fillColor=#fad7ac;strokeColor=#b46504;" vertex="1" parent="1">
          <mxGeometry x="1609" y="571" width="173" height="148" as="geometry" />
        </mxCell>
        <mxCell id="nzFtdgMQ5nwZeQu9WLnp-65" value="&lt;span data-lucid-type=&quot;application/vnd.lucid.text&quot; data-lucid-content=&quot;{&amp;#34;t&amp;#34;:&amp;#34;print(&#39;Sorry, but the computer chose &amp;lt;computer_action&amp;gt;&#39;)&amp;#34;,&amp;#34;m&amp;#34;:[{&amp;#34;s&amp;#34;:0,&amp;#34;n&amp;#34;:&amp;#34;p&amp;#34;,&amp;#34;v&amp;#34;:1.2},{&amp;#34;s&amp;#34;:0,&amp;#34;n&amp;#34;:&amp;#34;a&amp;#34;,&amp;#34;v&amp;#34;:&amp;#34;center&amp;#34;},{&amp;#34;s&amp;#34;:0,&amp;#34;n&amp;#34;:&amp;#34;f&amp;#34;,&amp;#34;v&amp;#34;:&amp;#34;Orbitron&amp;#34;,&amp;#34;e&amp;#34;:7},{&amp;#34;s&amp;#34;:0,&amp;#34;n&amp;#34;:&amp;#34;fc&amp;#34;,&amp;#34;v&amp;#34;:&amp;#34;Bold&amp;#34;,&amp;#34;e&amp;#34;:7},{&amp;#34;s&amp;#34;:0,&amp;#34;n&amp;#34;:&amp;#34;fid&amp;#34;,&amp;#34;v&amp;#34;:1706,&amp;#34;e&amp;#34;:7},{&amp;#34;s&amp;#34;:0,&amp;#34;n&amp;#34;:&amp;#34;b&amp;#34;,&amp;#34;v&amp;#34;:true,&amp;#34;e&amp;#34;:7},{&amp;#34;s&amp;#34;:0,&amp;#34;n&amp;#34;:&amp;#34;s&amp;#34;,&amp;#34;v&amp;#34;:22.222222222222218,&amp;#34;e&amp;#34;:7},{&amp;#34;s&amp;#34;:0,&amp;#34;n&amp;#34;:&amp;#34;c&amp;#34;,&amp;#34;v&amp;#34;:&amp;#34;3a414aff&amp;#34;,&amp;#34;e&amp;#34;:7},{&amp;#34;s&amp;#34;:7,&amp;#34;n&amp;#34;:&amp;#34;c&amp;#34;,&amp;#34;v&amp;#34;:&amp;#34;#3f1888ff&amp;#34;,&amp;#34;e&amp;#34;:56},{&amp;#34;s&amp;#34;:7,&amp;#34;n&amp;#34;:&amp;#34;s&amp;#34;,&amp;#34;v&amp;#34;:18.666666666666668,&amp;#34;e&amp;#34;:56},{&amp;#34;s&amp;#34;:7,&amp;#34;n&amp;#34;:&amp;#34;f&amp;#34;,&amp;#34;v&amp;#34;:&amp;#34;Liberation Mono&amp;#34;,&amp;#34;e&amp;#34;:56}]}&quot;&gt;&lt;span style=&quot;font-weight: bold ; font-size: 16.6667px ; color: rgb(58 , 65 , 74)&quot;&gt;print(&#39;&lt;/span&gt;&lt;span style=&quot;color: rgb(63 , 24 , 136) ; font-size: 14px&quot;&gt;Sorry, but the computer chose &amp;lt;computer_action&amp;gt;&#39;)&lt;/span&gt;&lt;/span&gt;" style="shape=parallelogram;html=1;strokeWidth=2;perimeter=parallelogramPerimeter;whiteSpace=wrap;rounded=1;arcSize=12;size=0.23;labelBackgroundColor=none;labelBorderColor=none;comic=0;fontFamily=Helvetica;fontSize=12;fillColor=#dae8fc;strokeColor=#6c8ebf;shadow=1;sketch=0;fontColor=default;spacing=0;spacingLeft=19;" vertex="1" parent="1">
          <mxGeometry x="1524" y="836.5" width="343" height="50" as="geometry" />
        </mxCell>
        <mxCell id="nzFtdgMQ5nwZeQu9WLnp-67" value="" style="edgeStyle=orthogonalEdgeStyle;shape=connector;rounded=0;sketch=0;orthogonalLoop=1;jettySize=auto;html=1;shadow=1;labelBackgroundColor=default;labelBorderColor=default;fontFamily=Helvetica;fontSize=14;fontColor=default;endArrow=classic;strokeColor=default;strokeWidth=2;fillColor=default;gradientColor=none;" edge="1" source="nzFtdgMQ5nwZeQu9WLnp-68" target="nzFtdgMQ5nwZeQu9WLnp-69" parent="1">
          <mxGeometry relative="1" as="geometry" />
        </mxCell>
        <mxCell id="nzFtdgMQ5nwZeQu9WLnp-68" value="&lt;span data-lucid-type=&quot;application/vnd.lucid.text&quot; data-lucid-content=&quot;{&amp;#34;t&amp;#34;:&amp;#34;print(&#39;Well done. The computer chose &amp;lt;computer_action&amp;gt; and failed&#39;)&amp;#34;,&amp;#34;m&amp;#34;:[{&amp;#34;s&amp;#34;:0,&amp;#34;n&amp;#34;:&amp;#34;p&amp;#34;,&amp;#34;v&amp;#34;:1.2},{&amp;#34;s&amp;#34;:0,&amp;#34;n&amp;#34;:&amp;#34;a&amp;#34;,&amp;#34;v&amp;#34;:&amp;#34;center&amp;#34;},{&amp;#34;s&amp;#34;:0,&amp;#34;n&amp;#34;:&amp;#34;f&amp;#34;,&amp;#34;v&amp;#34;:&amp;#34;Orbitron&amp;#34;,&amp;#34;e&amp;#34;:7},{&amp;#34;s&amp;#34;:0,&amp;#34;n&amp;#34;:&amp;#34;fc&amp;#34;,&amp;#34;v&amp;#34;:&amp;#34;Bold&amp;#34;,&amp;#34;e&amp;#34;:7},{&amp;#34;s&amp;#34;:0,&amp;#34;n&amp;#34;:&amp;#34;fid&amp;#34;,&amp;#34;v&amp;#34;:1706,&amp;#34;e&amp;#34;:7},{&amp;#34;s&amp;#34;:0,&amp;#34;n&amp;#34;:&amp;#34;b&amp;#34;,&amp;#34;v&amp;#34;:true,&amp;#34;e&amp;#34;:7},{&amp;#34;s&amp;#34;:0,&amp;#34;n&amp;#34;:&amp;#34;s&amp;#34;,&amp;#34;v&amp;#34;:22.222222222222218,&amp;#34;e&amp;#34;:7},{&amp;#34;s&amp;#34;:0,&amp;#34;n&amp;#34;:&amp;#34;c&amp;#34;,&amp;#34;v&amp;#34;:&amp;#34;3a414aff&amp;#34;,&amp;#34;e&amp;#34;:7},{&amp;#34;s&amp;#34;:7,&amp;#34;n&amp;#34;:&amp;#34;c&amp;#34;,&amp;#34;v&amp;#34;:&amp;#34;#3f1888ff&amp;#34;,&amp;#34;e&amp;#34;:67},{&amp;#34;s&amp;#34;:7,&amp;#34;n&amp;#34;:&amp;#34;s&amp;#34;,&amp;#34;v&amp;#34;:18.666666666666668,&amp;#34;e&amp;#34;:67},{&amp;#34;s&amp;#34;:7,&amp;#34;n&amp;#34;:&amp;#34;f&amp;#34;,&amp;#34;v&amp;#34;:&amp;#34;Liberation Mono&amp;#34;,&amp;#34;e&amp;#34;:67}]}&quot;&gt;&lt;span style=&quot;font-weight: bold ; font-size: 16.6667px ; color: rgb(58 , 65 , 74)&quot;&gt;print(&#39;&lt;/span&gt;&lt;span style=&quot;color: rgb(63 , 24 , 136) ; font-size: 14px&quot;&gt;Well done. The computer chose &amp;lt;computer_action&amp;gt; and failed&#39;)&lt;/span&gt;&lt;/span&gt;" style="shape=parallelogram;html=1;strokeWidth=2;perimeter=parallelogramPerimeter;whiteSpace=wrap;rounded=1;arcSize=12;size=0.23;labelBackgroundColor=none;labelBorderColor=none;comic=0;fontFamily=Helvetica;fontSize=12;fillColor=#dae8fc;strokeColor=#6c8ebf;fontColor=default;spacingLeft=15;" vertex="1" parent="1">
          <mxGeometry x="1525" y="417" width="342" height="69" as="geometry" />
        </mxCell>
        <mxCell id="nzFtdgMQ5nwZeQu9WLnp-69" value="&lt;span data-lucid-type=&quot;application/vnd.lucid.text&quot; data-lucid-content=&quot;{&amp;#34;t&amp;#34;:&amp;#34;set starting_poin = 0&amp;#34;,&amp;#34;m&amp;#34;:[{&amp;#34;s&amp;#34;:0,&amp;#34;n&amp;#34;:&amp;#34;a&amp;#34;,&amp;#34;v&amp;#34;:&amp;#34;center&amp;#34;},{&amp;#34;s&amp;#34;:0,&amp;#34;n&amp;#34;:&amp;#34;p&amp;#34;,&amp;#34;v&amp;#34;:1.2},{&amp;#34;s&amp;#34;:0,&amp;#34;n&amp;#34;:&amp;#34;b&amp;#34;,&amp;#34;v&amp;#34;:true,&amp;#34;e&amp;#34;:21},{&amp;#34;s&amp;#34;:0,&amp;#34;n&amp;#34;:&amp;#34;c&amp;#34;,&amp;#34;v&amp;#34;:&amp;#34;3a414aff&amp;#34;,&amp;#34;e&amp;#34;:21},{&amp;#34;s&amp;#34;:0,&amp;#34;n&amp;#34;:&amp;#34;f&amp;#34;,&amp;#34;v&amp;#34;:&amp;#34;Orbitron&amp;#34;,&amp;#34;e&amp;#34;:21},{&amp;#34;s&amp;#34;:0,&amp;#34;n&amp;#34;:&amp;#34;fc&amp;#34;,&amp;#34;v&amp;#34;:&amp;#34;Bold&amp;#34;,&amp;#34;e&amp;#34;:21},{&amp;#34;s&amp;#34;:0,&amp;#34;n&amp;#34;:&amp;#34;fid&amp;#34;,&amp;#34;v&amp;#34;:1706,&amp;#34;e&amp;#34;:21},{&amp;#34;s&amp;#34;:0,&amp;#34;n&amp;#34;:&amp;#34;s&amp;#34;,&amp;#34;v&amp;#34;:22.222222222222218,&amp;#34;e&amp;#34;:21}]}&quot;&gt;&lt;span style=&quot;font-weight: bold ; color: rgb(58 , 65 , 74) ; font-size: 16.6667px&quot;&gt;score += 100&lt;/span&gt;&lt;/span&gt;" style="rounded=1;whiteSpace=wrap;html=1;absoluteArcSize=1;arcSize=14;strokeWidth=2;fillColor=#dae8fc;strokeColor=#6c8ebf;labelBackgroundColor=none;labelBorderColor=none;fontFamily=Helvetica;fontSize=14;fontColor=default;" vertex="1" parent="1">
          <mxGeometry x="1607.5" y="300" width="176" height="60" as="geometry" />
        </mxCell>
      </root>
    </mxGraphModel>
  </diagram>
</mxfile>
